<svg id="Aucun" xmlns="http://www.w3.org/2000/svg" xmlns:xlink="http://www.w3.org/1999/xlink" width="186.627" height="142" viewBox="0 0 186.627 142">
  <defs>
    <clipPath id="clip-path">
      <rect id="Rectangle_1593" data-name="Rectangle 1593" width="45.974" height="31.67" fill="#f19a38"/>
    </clipPath>
  </defs>
  <g id="Composant_82_1" data-name="Composant 82 – 1">
    <circle id="Ellipse_11" data-name="Ellipse 11" cx="50.5" cy="50.5" r="50.5" transform="translate(39)" fill="#bbf2f4"/>
    <path id="Tracé_925" data-name="Tracé 925" d="M859.684,158.818a48.191,48.191,0,0,0-43.929-48c1.4-.123,2.823-.189,4.259-.189a48.188,48.188,0,1,1,0,96.377c-1.433,0-2.851-.067-4.252-.19A48.191,48.191,0,0,0,859.684,158.818Z" transform="translate(-729.283 -107.629)" fill="#cbf8fa" opacity="0.432" style="isolation: isolate"/>
    <g id="Groupe_3522" data-name="Groupe 3522" transform="translate(-5534.439 -1117.855)">
      <path id="Tracé_929" data-name="Tracé 929" d="M811.359,227c-4.143-7-12.34-7.327-12.34-7.327s-7.987-1.021-13.111,9.64c-4.776,9.938-11.367,19.532-1.061,21.859l1.862-5.794,1.153,6.225a40.325,40.325,0,0,0,4.409.075c11.036-.356,21.547.1,21.208-3.856C813.03,242.554,815.345,233.732,811.359,227Z" transform="translate(4825.174 898.212)" fill="#2f2e41"/>
      <path id="Tracé_930" data-name="Tracé 930" d="M790.815,421.67a16.333,16.333,0,0,1-.529,2.275c-.259.729-.659,1.4-.9,2.14-.756,2.348.292,4.965,1.965,6.777a11.059,11.059,0,0,0,5.392,3.2,22,22,0,0,0,4.634.487c4.307.146,8.724.277,12.805-1.107a22.254,22.254,0,0,0,3.72-1.69,2.786,2.786,0,0,0,.965-.76,2.656,2.656,0,0,0,.348-1.559c-.009-1.826-.379-3.642-.291-5.466a21.676,21.676,0,0,0,.145-3.027,5.584,5.584,0,0,0-4.267-4.809,11.591,11.591,0,0,0-3.537,0,90.187,90.187,0,0,1-9.205.412c-3.14-.02-6.261-.5-9.386-.549-.924-.015-.905.27-1.2,1.164a21.791,21.791,0,0,0-.664,2.511Z" transform="translate(4818.618 764.843)" fill="#2f2e41"/>
      <path id="Tracé_931" data-name="Tracé 931" d="M813.753,283.882a5.482,5.482,0,0,1-.789,2.259c-.546.747-1.437,1.174-2.025,1.889a6.176,6.176,0,0,0-.939,3.984,4.908,4.908,0,0,0,2.6,5.359c2.684,1.809,5.584,3.65,8.82,3.71a4.69,4.69,0,0,0,3.661-1.332,5.5,5.5,0,0,0,.886-1.581,21,21,0,0,0,1.486-6.392,7.5,7.5,0,0,0-.283-3.071,28.342,28.342,0,0,0-1.713-3.037,6.761,6.761,0,0,1-.651-4,.432.432,0,0,0-.023-.29.423.423,0,0,0-.348-.141l-6.417-.462a13.966,13.966,0,0,1-1.782-.2c-.346-.07-1.259-.562-1.589-.431C814.038,280.382,813.878,283.226,813.753,283.882Z" transform="translate(4804.592 857.549)" fill="#a0616a"/>
      <path id="Tracé_932" data-name="Tracé 932" d="M813.753,284.493a5.482,5.482,0,0,1-.789,2.259c-.546.747-1.437,1.174-2.025,1.889a6.176,6.176,0,0,0-.939,3.984,4.908,4.908,0,0,0,2.6,5.359c2.684,1.809,5.584,3.65,8.82,3.71a4.69,4.69,0,0,0,3.661-1.332,5.5,5.5,0,0,0,.886-1.581,21,21,0,0,0,1.486-6.392,7.506,7.506,0,0,0-.283-3.071,28.342,28.342,0,0,0-1.713-3.037,6.762,6.762,0,0,1-.651-4,.432.432,0,0,0-.023-.29.423.423,0,0,0-.348-.141l-6.417-.462a13.96,13.96,0,0,1-1.782-.2c-.346-.07-1.259-.562-1.589-.431C814.038,280.994,813.878,283.838,813.753,284.493Z" transform="translate(4804.592 857.137)" opacity="0.1"/>
      <circle id="Ellipse_255" data-name="Ellipse 255" cx="9.414" cy="9.414" r="9.414" transform="translate(5615.068 1123.463)" fill="#a0616a"/>
      <path id="Tracé_933" data-name="Tracé 933" d="M818.5,316.958a5.773,5.773,0,0,0,1.654,1.321,5.2,5.2,0,0,0,2.066.393,6.228,6.228,0,0,0,4.717-1.483c1.522-1.573,1.472-4.109,2.664-5.944a1.325,1.325,0,0,1,.384-.42,1.246,1.246,0,0,1,.654-.15c1.506-.014,2.819.963,4,1.894A5.273,5.273,0,0,1,836.055,314a4.863,4.863,0,0,1,.475,1.455,63.922,63.922,0,0,1,.967,8.724c.1,1.614.209,3.23.2,4.847-.026,5.329-1.264,10.569-2.5,15.753a2.462,2.462,0,0,1-.983,1.735,2.426,2.426,0,0,1-.858.209,105.012,105.012,0,0,1-10.615.884q-2.079.032-4.156-.1a2.239,2.239,0,0,1-.7-.122,1.974,1.974,0,0,1-.763-.648c-1.921-2.421-2.035-5.768-2.022-8.858q.045-11.334.81-22.65a2.491,2.491,0,0,0-.4-1.869,23.4,23.4,0,0,0,2.988,3.594Z" transform="translate(4801.161 837.003)" fill="#be5f25"/>
      <path id="Tracé_934" data-name="Tracé 934" d="M789.578,294.951c-.318.576-2.662,2-3.115,2.482-2.528,2.665-7.143,2.565-9.456,5.42a8.9,8.9,0,0,0-1.547,3.521,8.423,8.423,0,0,0,.062,5.383c.709,1.61,2.2,2.723,3.214,4.161a16.026,16.026,0,0,1,2.091,5.367,12.353,12.353,0,0,1,.573,4.216,25.486,25.486,0,0,1-1.4,4.646c-.461,1.554-.541,3.406.525,4.627a5.279,5.279,0,0,0,3.186,1.453,36.6,36.6,0,0,0,4.541.4c1.342.059,2.822.071,3.854-.79a3.874,3.874,0,0,0,1.214-2.84,18.335,18.335,0,0,0-.313-3.16c-.143-1.09-.2-2.189-.244-3.287q-.31-7.39-.085-14.79a12.588,12.588,0,0,0-.15-3.069,16.825,16.825,0,0,0-1.6-3.712,14.045,14.045,0,0,1-1.557-7.42C789.558,294.914,790.709,292.9,789.578,294.951Z" transform="translate(4828.094 848.141)" fill="#be5f25"/>
      <path id="Tracé_935" data-name="Tracé 935" d="M853.073,293.266c.484.5,2.13.662,2.746.982a9.622,9.622,0,0,0,1.805.625,23.433,23.433,0,0,1,6.341,2.91,3.848,3.848,0,0,1,1.06.916,4.2,4.2,0,0,1,.587,1.657,14.1,14.1,0,0,1-.5,9.256l-1.8,5.77a61.892,61.892,0,0,0-3.082,13.154,30.942,30.942,0,0,0,.278,7.471.886.886,0,0,1-.091.724.713.713,0,0,1-.442.2,4.336,4.336,0,0,1-2.5-.7,27.723,27.723,0,0,0-7.642-2.5,17.766,17.766,0,0,0,2.374-4.893,29.614,29.614,0,0,0,.717-3.365l.84-4.856a47.714,47.714,0,0,0,.72-5.37,6.721,6.721,0,0,0-.117-2.023,9.819,9.819,0,0,0-.767-1.824,15.587,15.587,0,0,1-1.489-9.31,13.6,13.6,0,0,0,.508-4.14,29.161,29.161,0,0,0-.334-3.682C850.87,288.859,852.162,292.329,853.073,293.266Z" transform="translate(4777.818 850.026)" fill="#be5f25"/>
      <path id="Tracé_936" data-name="Tracé 936" d="M776.357,326.8c-.631,1.309-1.686,2.424-2.044,3.832a8.363,8.363,0,0,0-.178,2,9.511,9.511,0,0,0,.3,3.012c.2.621.526,1.194.761,1.8a6.535,6.535,0,0,1,.428,2.67c-.063,1.261-.492,2.485-.525,3.747a12.127,12.127,0,0,0,1.761,5.623,4.133,4.133,0,0,1,6.008-1.967,1.232,1.232,0,0,0,.271-.9q.1-3.454.192-6.908a41.3,41.3,0,0,0-.63-10.638,10.035,10.035,0,0,0-2-4.339c-.556-.639-2.442-2.323-3.354-1.607-.41.322-.314,1.2-.379,1.643A6.971,6.971,0,0,1,776.357,326.8Z" transform="translate(4828.72 828.742)" fill="#be5f25"/>
      <path id="Tracé_937" data-name="Tracé 937" d="M877.731,316.3a9.634,9.634,0,0,1,.322,2.9q.018,2.986-.079,5.971a11.133,11.133,0,0,1-.388,3.023c-.2.641-.518,1.241-.728,1.88-.631,1.913-.286,3.989-.232,6a6.822,6.822,0,0,1-.165,1.942,15.989,15.989,0,0,1-1.851,3.389,33.314,33.314,0,0,1-1.658,3.281,3.129,3.129,0,0,1-3.121,1.489,3.446,3.446,0,0,1-1.982-1.848,9.062,9.062,0,0,1-.937-5.878c.444-2.444,1.88-4.613,2.4-7.042.711-3.337-.37-6.78-.337-10.191a4.927,4.927,0,0,1,.215-1.58,6.612,6.612,0,0,1,1.394-2.026,25.606,25.606,0,0,0,1.873-2.458c.386-.575.91-2.055,1.594-2.178C875.574,312.694,877.352,315.117,877.731,316.3Z" transform="translate(4766.42 835.475)" fill="#be5f25"/>
      <path id="Tracé_938" data-name="Tracé 938" d="M738.955,424.114a9.292,9.292,0,0,0-2.585-.275,6.451,6.451,0,0,0-5.989,7.6,10.83,10.83,0,0,0,1.024,2.8,9.351,9.351,0,0,0,2.776,3.67,10.813,10.813,0,0,0,2.451,1.166l6.683,2.518c.983.37,1.967.741,2.96,1.084a57.889,57.889,0,0,0,15.458,3.073,16.739,16.739,0,0,0,4.8-.243,1.563,1.563,0,0,0,.983-.531,1.684,1.684,0,0,0,.22-.725l.411-2.879a2.412,2.412,0,0,0-.035-1.214A2.325,2.325,0,0,0,767,439.116c-4.394-2.524-9.524-3.916-13.223-7.38-.871-.815-1.6-2.108-2.657-2.662-1.2-.628-2.612-.987-3.852-1.565A42.647,42.647,0,0,0,738.955,424.114Z" transform="translate(4858.199 760.915)" fill="#2f2e41"/>
      <path id="Tracé_939" data-name="Tracé 939" d="M770.995,435.18c2.362.74,12.336,5.869,14.046,7.659-.229.083-8-4.275-8.237-4.345a46.975,46.975,0,0,1-6.267-2.208c-.405-.187-2.632-1.068-2.531-1.579C768.119,434.13,770.575,435.048,770.995,435.18Z" transform="translate(4832.831 753.731)" opacity="0.1"/>
      <path id="Tracé_940" data-name="Tracé 940" d="M847.216,482.762a.555.555,0,0,0,.375-.11.578.578,0,0,0,.117-.431L847.7,478.3a12.057,12.057,0,0,0-3.628-.875l-5.778-.772c.133.018-.9,2.489-.745,2.819.28.581,2.42,1.1,3.024,1.371C842.669,481.8,844.851,482.844,847.216,482.762Z" transform="translate(4786.082 725.401)" fill="#a0616a"/>
      <path id="Tracé_941" data-name="Tracé 941" d="M804.451,475.856a4.682,4.682,0,0,0-3.015,1.177c-.9,1.077-.514,2.682-.087,4.017a1.3,1.3,0,0,0,1.519,1.087,5.25,5.25,0,0,0,2.923-.376,12.806,12.806,0,0,0,1.136-.844,7.28,7.28,0,0,1,2.088-.955,21.11,21.11,0,0,1,4.191-.864,6.515,6.515,0,0,0,1.651-.291,1.829,1.829,0,0,0,1.163-1.129,2.689,2.689,0,0,0-.61-2.065,8.235,8.235,0,0,0-1.757-2.172c-1.077-.836-1.609-.194-2.694.341a22.853,22.853,0,0,1-6.506,2.074Z" transform="translate(4810.717 727.83)" fill="#a0616a"/>
      <path id="Tracé_942" data-name="Tracé 942" d="M776,479.405l-6.927-2.047a9.17,9.17,0,0,0-2.578-.5,3.1,3.1,0,0,0-2.367.957,4.611,4.611,0,0,0-.825,2.309l-.286,1.748a8.781,8.781,0,0,0-.16,2.685,2.969,2.969,0,0,0,1.376,2.212,4.74,4.74,0,0,0,3.2.049,34.877,34.877,0,0,1,6.565-.7,5.269,5.269,0,0,0,2.432-.388,3.036,3.036,0,0,0,1.482-2.419C778.049,481.815,777.551,479.864,776,479.405Z" transform="translate(4836.318 725.264)" fill="#2f2e41"/>
      <path id="Tracé_943" data-name="Tracé 943" d="M869.384,476.322a16.821,16.821,0,0,0,2.551-.969,11.347,11.347,0,0,1,3.807-.419,1.843,1.843,0,0,1,2.171,2.075l.58,4.056a6.363,6.363,0,0,1,.047,2.3,2.162,2.162,0,0,1-1.428,1.67c-.906.235-1.794-.343-2.649-.723-2.138-.95-4.623-.707-6.852-1.417a1.536,1.536,0,0,1-1.025-.733,1.669,1.669,0,0,1-.08-.7c.038-1.3-.237-3.084.156-4.33C867.014,476.007,868.381,476.322,869.384,476.322Z" transform="translate(4766.637 726.563)" fill="#2f2e41"/>
      <path id="Tracé_944" data-name="Tracé 944" d="M860.895,418.965a12.03,12.03,0,0,1,4.238-.29,4.467,4.467,0,0,1,4.484,5.041,11.927,11.927,0,0,1-2.592,7.617,6.912,6.912,0,0,1-1.482,1.427,9.753,9.753,0,0,1-1.928.929l-14.967,5.9a96.7,96.7,0,0,1-12,4.135.935.935,0,0,1-1.258-.456,31.013,31.013,0,0,1-3.281-6,.4.4,0,0,1,.179-.638l10.587-6.083a10.7,10.7,0,0,0,2.155-1.485,5.35,5.35,0,0,0,1.106-1.54c.219-.458.24-1.54.52-1.879s1.213-.358,1.647-.489a14.937,14.937,0,0,0,1.793-.678c2.368-1.059,4.477-2.6,6.747-3.839A17.311,17.311,0,0,1,860.895,418.965Z" transform="translate(4789.785 764.432)" fill="#2f2e41"/>
      <path id="Tracé_945" data-name="Tracé 945" d="M866.961,431.193c-1.819,1.366-4.174,2.622-5.976,4.024-.615.479-10.871,6.244-11.016,7.01,1.682.283,12.395-7.211,13.927-7.959a24.754,24.754,0,0,0,4.238-2.849c.343-.267,1.8-1.069.812-1.367C868.391,429.884,867.371,430.92,866.961,431.193Z" transform="translate(4777.718 756.746)" opacity="0.1"/>
      <path id="Tracé_946" data-name="Tracé 946" d="M825.492,297.693H809.526a2.446,2.446,0,0,0-2.446,2.446v.9h-.173v2h.173v1.4h-.173v1.2h.173v14.779a2.446,2.446,0,0,0,2.446,2.446h15.966a2.446,2.446,0,0,0,2.446-2.446V300.138A2.446,2.446,0,0,0,825.492,297.693Z" transform="translate(4806.672 845.732)" fill="#fff"/>
      <path id="Tracé_947" data-name="Tracé 947" d="M669.026,138.195l-8.1-4.242-11.183,1.735-2.314,10.219,5.759-.222,1.609-3.754v3.692l2.657-.1L659,139.544l.964,6.363,9.448-.193Z" transform="translate(4965.675 986.338)" fill="#2f2e41"/>
      <path id="Tracé_948" data-name="Tracé 948" d="M784.125,362.182a4.208,4.208,0,0,0,1.512,1.5,2.956,2.956,0,0,0,2.6-.07,4.575,4.575,0,0,0,1.875-1.88,9.357,9.357,0,0,0,.952-5.2c-.11-1.783-.49-3.538-.659-5.316-.122-1.292-.132-2.593-.142-3.891a1.294,1.294,0,0,1,.164-.787,1.545,1.545,0,0,1,.868-.434c1.776-.528,2.955-2.193,3.8-3.841a6.658,6.658,0,0,0,.946-3.537,2.777,2.777,0,0,0-2.226-2.6,3.568,3.568,0,0,0-2.684,1.251,11.508,11.508,0,0,0-3.37,6.734,26.091,26.091,0,0,1-.456,3.757c-.728,2.6-3,4.19-4.14,6.527A7.873,7.873,0,0,0,784.125,362.182Z" transform="translate(4823.07 819.891)" fill="#a0616a"/>
      <path id="Tracé_949" data-name="Tracé 949" d="M867.957,336.36a4.909,4.909,0,0,1-2.753,2.645,3.8,3.8,0,0,1-2.393.147,2.654,2.654,0,0,1-1.753-1.568,4.224,4.224,0,0,1-.2-1.178,12.137,12.137,0,0,1,.566-5.193c.245-.631.576-1.229.77-1.878a9.42,9.42,0,0,0,.29-2.292l.209-4.779a3.109,3.109,0,0,0-.071-1.036,3.275,3.275,0,0,0-1.448-1.553,9.517,9.517,0,0,1-3.542-3.759,2.635,2.635,0,0,1-.245-1.557,2.588,2.588,0,0,1,2.1-1.77,4.7,4.7,0,0,1,5.632,3.786c.094.539.092,1.09.147,1.635.116,1.155.483,2.269.713,3.408.565,2.8.272,5.7.831,8.506C867.281,332.266,869.044,333.8,867.957,336.36Z" transform="translate(4772.746 835.789)" fill="#a0616a"/>
      <circle id="Ellipse_256" data-name="Ellipse 256" cx="2.003" cy="2.003" r="2.003" transform="translate(5622.392 1150.171)" fill="#ff8a45"/>
    </g>
  </g>
  <g id="Groupe_3647" data-name="Groupe 3647" transform="translate(142.903 63.734) rotate(18)">
    <g id="Groupe_3591" data-name="Groupe 3591" transform="translate(0 0)" clip-path="url(#clip-path)">
      <path id="Tracé_1375" data-name="Tracé 1375" d="M7.369,26.39c.334-.119.531-.2.735-.26,2.535-.707,5.077-1.387,7.6-2.119,5.909-1.712,11.668-3.74,16.877-7.157,5.029-3.3,9.636-6.942,12.458-12.441A10.7,10.7,0,0,0,45.961.943a.762.762,0,0,0-.726-.931c-.513-.075-.774.216-.9.676a16.274,16.274,0,0,1-4.155,7.224A45.727,45.727,0,0,1,23.861,18.219,89.9,89.9,0,0,1,9.079,22.1c-.51.106-1.027.178-1.646.284.108-.191.128-.269.178-.307,1.869-1.413,2.831-3.513,4.078-5.395a1.1,1.1,0,0,0-.328-1.507A.914.914,0,0,0,10,15.406c-.346.447-.622.949-.969,1.394A22.1,22.1,0,0,1,7.073,19.18a26.232,26.232,0,0,1-6.008,4.145C-.272,24.039-.35,25.263.83,26.2c1.021.814,1.984,1.705,3.037,2.475a43.05,43.05,0,0,0,4.092,2.742,1.854,1.854,0,0,0,2.587-.834,1.763,1.763,0,0,0-.706-2.418c-.778-.582-1.577-1.137-2.471-1.778" transform="translate(0 0)" fill="#f19a38"/>
    </g>
  </g>
</svg>
