<svg id="Eleve" xmlns="http://www.w3.org/2000/svg" xmlns:xlink="http://www.w3.org/1999/xlink" width="269.546" height="257.613" viewBox="0 0 269.546 257.613">
  <defs>
    <clipPath id="clip-path">
      <rect id="Rectangle_1593" data-name="Rectangle 1593" width="54.16" height="37.31" fill="#00bed2"/>
    </clipPath>
  </defs>
  <path id="Union_22" data-name="Union 22" d="M70.013,197.5H0l41.474-49.013A116.386,116.386,0,1,1,70.013,197.5Z" transform="translate(0 8.821)" fill="#c7f9ff"/>
  <g id="undraw_mathematics_-4-otb" transform="translate(90.94)">
    <ellipse id="Ellipse_251" data-name="Ellipse 251" cx="39.874" cy="4.859" rx="39.874" ry="4.859" transform="translate(0 162.4)" opacity="0.1"/>
    <ellipse id="Ellipse_252" data-name="Ellipse 252" cx="37.696" cy="40.209" rx="37.696" ry="40.209" transform="translate(2.01 90.359)" fill="#3f3d56"/>
    <rect id="Rectangle_1535" data-name="Rectangle 1535" width="23.455" height="21.445" transform="translate(28.146 154.358)" fill="#16cc86"/>
    <path id="Tracé_902" data-name="Tracé 902" d="M393.84,607.614l-1.34,7.372,8.712,1.34,5.7-3.351-.335-5.361Z" transform="translate(-311.579 -448.062)" fill="#0c8355"/>
    <path id="Tracé_903" data-name="Tracé 903" d="M533.084,303.171s-.67,7.707-2.346,8.042,3.686,13.738,3.686,13.738h8.042l6.366-1.675-3.016-7.372s-4.021-5.361-1.005-9.717S533.084,303.171,533.084,303.171Z" transform="translate(-494.718 -282.005)" fill="#a0616a"/>
    <path id="Tracé_904" data-name="Tracé 904" d="M533.084,303.171s-.67,7.707-2.346,8.042,3.686,13.738,3.686,13.738h8.042l6.366-1.675-3.016-7.372s-4.021-5.361-1.005-9.717S533.084,303.171,533.084,303.171Z" transform="translate(-494.718 -282.005)" opacity="0.1"/>
    <path id="Tracé_905" data-name="Tracé 905" d="M479.609,476.9s-8.712,16.754-1.675,20.1,8.712,3.016,8.712,4.021-1.34.67-.67,2.346-1.34,8.377.67,12.4a11.464,11.464,0,0,1,1.34,7.037,5.414,5.414,0,0,0,.67,1.675c.67,1.34,1.005,2.346.67,3.016s-2.346,5.026-.335,6.031,12.4,1.675,13.4,0-1.005-2.681,0-3.686,1.676-1.341,1.005-2.011-1.34-9.047-1.34-9.047,1.675-9.717,1.005-11.057-1.675-2.681-1.005-3.686,1.34-.67,1.675-2.01,1.005-4.356,1.005-4.356l3.686-.335,8.712,1.675s9.717,10.722,20.44,14.073c0,0,3.016,3.016,4.021,3.016s1.005,0,.67.67-1.34.67-.67,1.34,1.675-.335,1.005.67-1.34,1.005-.67,1.675-.335,4.356-.335,4.691-3.016,31.832-2.01,32.5,15.078,2.681,16.084,0-.67-6.031-.67-6.031,5.026-40.209,3.686-42.89-6.031-14.743-31.162-22.45c0,0-7.037-1.34-7.037-2.345s-.67-7.372-2.01-7.707-9.047-.67-9.047-.67l-9.717,3.016-13.4-2.346Z" transform="translate(-457.997 -396.758)" fill="#2f2e41"/>
    <path id="Tracé_906" data-name="Tracé 906" d="M519.05,645.562l-1.675,6.031s-1.34,9.717.335,12.063a10.539,10.539,0,0,0,8.023,4.494,5.385,5.385,0,0,0,5.622-3.725,1.677,1.677,0,0,0,.093-.434c0-.67-1.005-8.712-1.005-8.712l-1.675-8.377-.335-2.345Z" transform="translate(-485.71 -509.13)" fill="#2f2e41"/>
    <path id="Tracé_907" data-name="Tracé 907" d="M664.033,727.4s-1.676-1.675-2.011,0-1.675,8.712.67,9.047,24.8,3.686,27.141,2.346,6.7-3.351,4.021-4.356-10.387-4.021-10.387-4.021-4.356-5.7-5.026-6.031-4.356.335-6.031,1.675S664.033,727.4,664.033,727.4Z" transform="translate(-581.772 -562.155)" fill="#2f2e41"/>
    <ellipse id="Ellipse_253" data-name="Ellipse 253" cx="10.387" cy="10.387" rx="10.387" ry="10.387" transform="translate(36.021 7.428)" fill="#a0616a"/>
    <path id="Tracé_908" data-name="Tracé 908" d="M507.961,337.031l-4.021-4.356-4.457-8.712s-3.25-1.005-3.92.67-12.733,7.037-12.733,7.037,3.016,28.146,1.675,30.827-3.686,13.4-1.675,14.408,11.392,0,14.408,1.34,11.728,1.34,14.073-.335,3.016-3.016,5.361-2.01c2,.856,6.665-28.4,8.009-37.12a3.969,3.969,0,0,0-1.644-3.857c-3.007-2.109-8.421-5.743-9.38-5.264C512.317,330.33,507.961,337.031,507.961,337.031Z" transform="translate(-462.558 -295.761)" fill="#16cc86"/>
    <path id="Tracé_909" data-name="Tracé 909" d="M592.063,359.557h0a3.974,3.974,0,0,1,2.986,3.416l2.711,24.395s-6.7,14.408-10.052,4.691S592.063,359.557,592.063,359.557Z" transform="translate(-532.252 -319.627)" fill="#0c8355"/>
    <path id="Tracé_910" data-name="Tracé 910" d="M589.7,445.567l7.372-2.01s1.34,9.382,2.681,9.382-4.691,5.361-7.707,4.691-7.372-3.016-7.707-4.691,3.016-8.712,3.016-8.712Z" transform="translate(-530.555 -375.48)" fill="#0c8355"/>
    <path id="Tracé_911" data-name="Tracé 911" d="M525.509,262.685c.706-1.557.584-3.374,1.168-4.981a5.94,5.94,0,0,1,9.031-2.808c.751.536,1.5,1.288,2.421,1.186.987-.11,1.868-1.212,2.776-.808,1.006.447.734,2.251,1.754,2.667a1.288,1.288,0,0,0,1.48-.608,3.759,3.759,0,0,0,.431-1.667,7.978,7.978,0,0,0-.352-4.237,10.164,10.164,0,0,1-.68-1.37,4.7,4.7,0,0,1-.129-1.352,9.683,9.683,0,0,0-.974-4.883,7.08,7.08,0,0,0-4.481-3.09,17.1,17.1,0,0,0-5.562-.223c-3.07.26-6.272.817-8.691,2.726a3.4,3.4,0,0,0-.835.878,4.532,4.532,0,0,0-.445,1.287,26.621,26.621,0,0,1-2.335,6.124,13.3,13.3,0,0,0-1.2,2.6,3.368,3.368,0,0,0,.3,2.768,10.581,10.581,0,0,0,1.685,1.518c.544.523.8,1.529,1.4,1.926.526.346,1.156.1,1.693.468C524.648,261.276,524.7,262.308,525.509,262.685Z" transform="translate(-486.942 -240.389)" fill="#2f2e41"/>
    <path id="Tracé_912" data-name="Tracé 912" d="M564.382,374.567l1.005-2.01s14.743,4.356,17.759,8.377c0,0,7.372-4.691,11.393-4.021l4.021.67-12.4,11.057-15.749-1.34Z" transform="translate(-517.304 -328.271)" fill="#f2f2f2"/>
    <path id="Tracé_913" data-name="Tracé 913" d="M535.12,372.557l-13.738,19.1,19.769,9.717a3.4,3.4,0,0,0,3.27,0l13.149-6.031,12.4-17.759-12.4,6.366a2.935,2.935,0,0,0-4.021-1.34Z" transform="translate(-488.712 -328.271)" fill="#0c8355"/>
    <path id="Tracé_914" data-name="Tracé 914" d="M622.057,435.789l2.681-7.037s6.031-7.707,2.681-11.393-7.037,10.722-7.037,10.722Z" transform="translate(-554.54 -357.66)" fill="#a0616a"/>
    <path id="Tracé_915" data-name="Tracé 915" d="M533.079,441.372l5.849-4.742s9.084-3.641,8.035-8.51-11.466,5.745-11.466,5.745Z" transform="translate(-496.49 -364.366)" fill="#a0616a"/>
    <path id="Tracé_916" data-name="Tracé 916" d="M473.987,364.676h-.335s-5.194-6.2-6.2,2.178-4.356,36.188,4.356,37.193a21.185,21.185,0,0,0,14.911-4.188s6.366-9.717,4.021-9.717a63.019,63.019,0,0,0-7.036-.335c-3,.186-5.7,1.032-5.529.168C478.51,388.3,483.369,367.021,473.987,364.676Z" transform="translate(-451.872 -321.563)" opacity="0.1"/>
    <path id="Tracé_917" data-name="Tracé 917" d="M470.16,348.227l-1.34-.67s-5.361,1.005-6.366,9.382-4.356,36.188,4.356,37.193,20.44-1.34,20.44-1.34,2.346-12.733,0-12.733-14.408,1.675-14.073,0S479.542,350.572,470.16,348.227Z" transform="translate(-448.547 -311.648)" fill="#0c8355"/>
    <path id="Tracé_918" data-name="Tracé 918" d="M338,341.876l3.695-5.663,2.336,9.349L338,348.243Z" transform="translate(-275.341 -267.601)" fill="#0c8355"/>
  </g>
  <g id="Groupe_3645" data-name="Groupe 3645" transform="matrix(-0.934, -0.358, 0.358, -0.934, 250.525, 257.613)">
    <g id="Groupe_3591" data-name="Groupe 3591" transform="translate(0 0)" clip-path="url(#clip-path)">
      <path id="Tracé_1375" data-name="Tracé 1375" d="M45.479,31.09c-.393-.14-.625-.239-.866-.306-2.986-.833-5.981-1.634-8.959-2.5-6.961-2.017-13.746-4.405-19.882-8.432C9.847,15.967,4.42,11.677,1.1,5.2A12.6,12.6,0,0,1,.015,1.111.9.9,0,0,1,.869.014c.6-.088.912.254,1.059.8a19.172,19.172,0,0,0,4.895,8.51c5.446,5.556,12.066,9.33,19.227,12.142,5.607,2.2,11.529,3.35,17.415,4.568.6.124,1.21.21,1.939.334-.128-.225-.15-.317-.21-.362-2.2-1.664-3.335-4.138-4.8-6.355a1.3,1.3,0,0,1,.386-1.776,1.077,1.077,0,0,1,1.607.277c.407.527.732,1.118,1.141,1.643a26.041,26.041,0,0,0,2.3,2.8,30.9,30.9,0,0,0,7.078,4.883c1.575.841,1.666,2.283.277,3.392-1.2.96-2.338,2.009-3.577,2.916a50.718,50.718,0,0,1-4.82,3.23,2.184,2.184,0,0,1-3.048-.983,2.077,2.077,0,0,1,.831-2.849c.917-.686,1.858-1.339,2.91-2.095" transform="translate(0 0)" fill="#00bed2"/>
    </g>
  </g>
</svg>
