<svg id="Enseignant" xmlns="http://www.w3.org/2000/svg" xmlns:xlink="http://www.w3.org/1999/xlink" width="218.499" height="204.725" viewBox="0 0 218.499 204.725">
  <defs>
    <clipPath id="clip-path">
      <rect id="Rectangle_1593" data-name="Rectangle 1593" width="48.045" height="33.097" fill="#00bed2"/>
    </clipPath>
  </defs>
  <path id="Union_24" data-name="Union 24" d="M44.628,153.465q-.883-.906-1.739-1.839-2.133-2.322-4.1-4.789-1.107-1.386-2.16-2.817a90.116,90.116,0,0,1-10.714-18.976,89.129,89.129,0,0,1-3.116-8.78c-.064-.212-.125-.423-.186-.634q-.2-.682-.386-1.372a90.825,90.825,0,0,1-3.182-23.9c0-49.9,40.295-90.36,90-90.36A89.312,89.312,0,0,1,156.3,13.442L188.737-1.635,172.821,26.607a90.776,90.776,0,0,1,21.468,92.808q-.273.8-.557,1.6a90.57,90.57,0,0,1-14.317,25.678q-2.749,3.461-5.823,6.636t-6.458,6.05a89.373,89.373,0,0,1-44.142,20.264h0q-3.116.485-6.292.756-3.783.321-7.655.324h-.116A89.541,89.541,0,0,1,44.628,153.465Z" transform="translate(237.541 203.089) rotate(180)" fill="#bbf2f4"/>
  <g id="Groupe_3598" data-name="Groupe 3598" transform="translate(55.921 157.699) rotate(162)">
    <g id="Groupe_3591" data-name="Groupe 3591" transform="translate(0 0)" clip-path="url(#clip-path)">
      <path id="Tracé_1375" data-name="Tracé 1375" d="M7.7,5.518c.349.124.555.212.768.272,2.649.739,5.306,1.449,7.947,2.215,6.175,1.789,12.194,3.908,17.637,7.48,5.256,3.449,10.07,7.255,13.019,13a11.179,11.179,0,0,1,.959,3.626.8.8,0,0,1-.758.973c-.537.078-.809-.225-.939-.707a17.007,17.007,0,0,0-4.342-7.549A47.787,47.787,0,0,0,24.936,14.057C19.962,12.1,14.709,11.086,9.488,10.005c-.533-.11-1.073-.186-1.72-.3.113.2.133.282.186.321,1.954,1.476,2.959,3.671,4.262,5.638a1.15,1.15,0,0,1-.343,1.575A.955.955,0,0,1,10.448,17c-.361-.467-.65-.991-1.012-1.457a23.1,23.1,0,0,0-2.044-2.487A27.413,27.413,0,0,0,1.113,8.722C-.285,7.976-.366,6.7.867,5.713c1.067-.851,2.074-1.782,3.174-2.587A44.99,44.99,0,0,1,8.317.261a1.938,1.938,0,0,1,2.7.872,1.843,1.843,0,0,1-.738,2.527C9.469,4.268,8.634,4.848,7.7,5.518" transform="translate(0 0)" fill="#00bed2"/>
    </g>
  </g>
  <g id="undraw_teacher_re_sico" transform="translate(42.106 -20.353)">
    <path id="Tracé_882" data-name="Tracé 882" d="M405.133,300.34A5.881,5.881,0,0,0,411,307.185l14.367,41.97,9.167-6.325-17.7-42.035a5.894,5.894,0,0,0-11.7-.454Z" transform="translate(-366.963 -246.329)" fill="#a0616a"/>
    <path id="Tracé_883" data-name="Tracé 883" d="M503.186,345.287c-6.38,7.288-22.111,20.131-35.071,28.974-2.8,1.912-5.475,3.633-7.895,5.074-1.635.973-3.155,1.815-4.524,2.5a7.443,7.443,0,0,1-10.227-3.876l-8.973-21.8,3.1-2.067,7.655-5.1,1.739-1.155,7.179,17.166,7.57-6.1,4.7-3.788,21.424-17.262,1.848-.551,4.311,4.224,3.049,2.989,2.868.5C502.371,345.1,502.786,345.186,503.186,345.287Z" transform="translate(-390.032 -277.076)" fill="#e68415"/>
    <path id="Tracé_886" data-name="Tracé 886" d="M545.969,368.653l-.8,55.449-64.96-1.871,10.374-22.991c-.074-.738,4.553-5.916,4.527-6.683-.08-2.248,1.592-4.331,1.864-6.683.554-4.852-2.617-23.176-1.156-26.961a25.775,25.775,0,0,1,2.381-4.833,5.981,5.981,0,0,1,2.5-2.419l2.4-5.619,2.13-3.208,16.714-4.97,1.848-.551,4.311,4.224,3.049,2.989,2.868.5c.429.075.844.163,1.243.265a12.614,12.614,0,0,1,5.235,2.6C545.5,352.161,546.081,360.191,545.969,368.653Z" transform="translate(-422.103 -277.076)" fill="#f19a38"/>
    <path id="Path_9" data-name="Path 9" d="M516.563,231.129h-.014a2.912,2.912,0,0,1-3.166-2.637l-1.514-16.227a21.868,21.868,0,0,1,.914-8.624,22.113,22.113,0,0,1,10.446-12.723,21.644,21.644,0,0,1,8.321-2.555c11.934-1.142,16.3,1.354,23.667,19.628s1.517,16.252,1.517,16.252a2.938,2.938,0,0,1-.123,1.16,2.971,2.971,0,0,1-1.407,1.709,2.915,2.915,0,0,1-1.113.341c-14.109,3.6-28.345,7.391-37.53,3.674Z" transform="translate(-445.265 -167.778)" fill="#2f2e41"/>
    <path id="Ellipse_1" data-name="Ellipse 1" d="M547.947,227.323A16.056,16.056,0,0,1,531.675,252.1a15.811,15.811,0,0,1-10.183-6.728A16.056,16.056,0,0,1,537.753,220.6a15.811,15.811,0,0,1,10.195,6.721Z" transform="translate(-450.389 -191.36)" fill="#9e616a"/>
    <path id="Path_10" data-name="Path 10" d="M493.136,232.261a17.3,17.3,0,0,1,.723-6.82c.161-5.386,1.717-10.265,8.26-10.06a17.119,17.119,0,0,1,6.537-2.014l3.233-.321.109-.011a17.151,17.151,0,0,1,18.646,15.533l.03.325-6.841.671-2.944-6.326.145,6.6-3.533.348L516.018,227l.072,3.329c-5.246,4.639-13.2,4.882-22.921,2.26Z" transform="translate(-431.535 -185.97)" fill="#2f2e41"/>
    <path id="Path_13" data-name="Path 13" d="M573.091,262.2a2.884,2.884,0,0,0,.267,1.56,2.927,2.927,0,0,0,.97,1.151,2.9,2.9,0,0,0,1.943.509l.128-.016q.064-.009.128-.021c.043-.008.085-.017.128-.027l.127-.033,2.388-.672,2.676-7.491.613,6.573,10.857-3.035-2.6-27.893-18.5,1.831.507.491a12.853,12.853,0,0,1,3.47,6.02,21.013,21.013,0,0,1,.528,7.1,37.888,37.888,0,0,1-1.325,7.108,55.768,55.768,0,0,1-2.092,6.051A2.945,2.945,0,0,0,573.091,262.2Z" transform="translate(-489.608 -200.51)" fill="#2f2e41"/>
    <path id="Tracé_888" data-name="Tracé 888" d="M437.61,635.951a2.137,2.137,0,0,1-.92-.209l-51.263,1.313a2.163,2.163,0,0,1,.306-4.022l33.538-10.04a2.144,2.144,0,0,1,1.069-.041l51.877,6.348a2.162,2.162,0,0,1,.247,4.153l-34.152,2.378A2.147,2.147,0,0,1,437.61,635.951Z" transform="translate(-351.66 -486.32)" fill="#3f3d56"/>
    <path id="Tracé_889" data-name="Tracé 889" d="M473.429,646.168a1.35,1.35,0,0,1-.661-.173l-41.633,1.953a1.357,1.357,0,0,1,.342-2.5l15.072-3.673a1.346,1.346,0,0,1,.713.021l38.7-.047a1.356,1.356,0,0,1,.009,2.588l-12.143,1.767A1.347,1.347,0,0,1,473.429,646.168Z" transform="translate(-385.594 -500.12)" fill="#2f2e41"/>
    <path id="Tracé_890" data-name="Tracé 890" d="M567.88,620.053a5.855,5.855,0,0,0,8.589-2.677l44.067,3.475-2.13-10.961-45.452-.435a5.918,5.918,0,0,0-5.073,10.6Z" transform="translate(-484.427 -476.232)" fill="#a0616a"/>
    <path id="Tracé_891" data-name="Tracé 891" d="M666.441,378.9s6.657-5.347,14.645,4.277c5.387,6.49,15.779,45.727,16.641,61.986a7.467,7.467,0,0,1-7.611,7.876l-23.488-.41L664,437.806l18.544.22Z" transform="translate(-556.96 -306.463)" fill="#f19a38"/>
    <path id="Tracé_892" data-name="Tracé 892" d="M421.811,526.566a6.036,6.036,0,0,1-2.346-.477l-47.514,1.088a6.067,6.067,0,0,1-3.635-6.572l-1.765-41.895a6.034,6.034,0,0,1,6.373-5.1l44.112,1.837a6.074,6.074,0,0,1,5.571,7.1l5.168,38.97A6.071,6.071,0,0,1,421.811,526.566Z" transform="translate(-338.711 -376.928)" fill="#3f3d56"/>
    <path id="Tracé_893" data-name="Tracé 893" d="M378.207,205.016l-19.829-.056a2.012,2.012,0,0,0-2.01,2.008L356.3,233.33a2.007,2.007,0,0,0,2,2.016l11,.032,8.832.024a2.008,2.008,0,0,0,2.008-2.008l.005-1.559.069-24.8A2.01,2.01,0,0,0,378.207,205.016Z" transform="translate(-331.187 -180.108)" fill="#e6e6e6"/>
    <path id="Tracé_894" data-name="Tracé 894" d="M381.057,210.928l-17.041-.048a1.884,1.884,0,0,0-1.883,1.879l-.048,16.949a8.389,8.389,0,0,0,8.34,8.418l3.238.008,7.32.021a1.882,1.882,0,0,0,1.883-1.879l.005-1.706.059-21.753A1.882,1.882,0,0,0,381.057,210.928Z" transform="translate(-335.435 -184.446)" fill="#fff"/>
    <path id="Tracé_895" data-name="Tracé 895" d="M387.335,254.38H374.048a.8.8,0,0,0,0,1.6h13.287a.8.8,0,0,0,0-1.6Z" transform="translate(-343.627 -216.316)" fill="#e68415"/>
    <path id="Tracé_896" data-name="Tracé 896" d="M376.969,237.96h-2.921a.8.8,0,0,0,0,1.6h2.921a.8.8,0,0,0,0-1.6Z" transform="translate(-343.627 -204.286)" fill="#e68415"/>
    <path id="Tracé_897" data-name="Tracé 897" d="M387.335,280.71H374.048a.8.8,0,0,0,0,1.6h13.287a.8.8,0,0,0,0-1.6Z" transform="translate(-343.627 -235.607)" fill="#e68415"/>
    <path id="Tracé_898" data-name="Tracé 898" d="M387.339,267.55H374.051a.8.8,0,0,0,0,1.6h13.287a.8.8,0,0,0,0-1.6Z" transform="translate(-343.631 -225.966)" fill="#e68415"/>
    <path id="Tracé_899" data-name="Tracé 899" d="M403.45,222.59a4.736,4.736,0,1,1,4.717-4.736A4.727,4.727,0,0,1,403.45,222.59Zm0-9.143a4.407,4.407,0,1,0,4.389,4.407A4.4,4.4,0,0,0,403.45,213.447Z" transform="translate(-362.324 -186.085)" fill="#e68415"/>
    <path id="Tracé_900" data-name="Tracé 900" d="M412.775,224.5a12.2,12.2,0,0,0-1.991-4.7.248.248,0,0,0-.424,0,13.039,13.039,0,0,0-1.616,4.9c-.038.315.454.312.492,0a12.19,12.19,0,0,1,.322-1.657.278.278,0,0,0,.055-.017,3.572,3.572,0,0,1,2.117-.346h.019a11.862,11.862,0,0,1,.553,1.946C412.361,224.942,412.835,224.81,412.775,224.5Zm-3.04-2.057a12.529,12.529,0,0,1,.859-2.037,11.86,11.86,0,0,1,.949,1.768A4.133,4.133,0,0,0,409.735,222.442Z" transform="translate(-369.669 -190.896)" fill="#e68415"/>
  </g>
</svg>
