<svg xmlns="http://www.w3.org/2000/svg" width="110.542" height="120" viewBox="0 0 110.542 120">
  <g id="Elève" transform="translate(-105.5 -216)">
    <g id="Groupe_3701" data-name="Groupe 3701" transform="translate(105.5 216)">
      <path id="Tracé_1273" data-name="Tracé 1273" d="M860.475,159.686a49.059,49.059,0,0,0-44.721-48.864c1.429-.125,2.874-.193,4.336-.193a49.057,49.057,0,1,1,0,98.113c-1.459,0-2.9-.069-4.329-.193A49.059,49.059,0,0,0,860.475,159.686Z" transform="translate(-758.605 -97.875)" fill="none" opacity="0.432" style="isolation: isolate"/>
      <ellipse id="Ellipse_11" data-name="Ellipse 11" cx="53.918" cy="53.398" rx="53.918" ry="53.398" transform="translate(0 13.205)" fill="#fcfcfc"/>
      <ellipse id="Ellipse_251" data-name="Ellipse 251" cx="29.591" cy="3.606" rx="29.591" ry="3.606" transform="translate(17.35 107.315)" opacity="0.1"/>
      <ellipse id="Ellipse_252" data-name="Ellipse 252" cx="27.975" cy="29.84" rx="27.975" ry="29.84" transform="translate(18.769 53.853)" fill="#3f3d56"/>
      <rect id="Rectangle_1535" data-name="Rectangle 1535" width="17.407" height="15.915" transform="translate(37.456 101.348)" fill="#16cc86"/>
      <path id="Tracé_902" data-name="Tracé 902" d="M393.495,607.614l-.995,5.471,6.465.995,4.227-2.487-.249-3.979Z" transform="translate(-319.839 -502.412)" fill="#0c8355"/>
      <path id="Tracé_903" data-name="Tracé 903" d="M532.4,303.121s-.5,5.719-1.741,5.968,2.735,10.2,2.735,10.2h5.968l4.725-1.243-2.238-5.471s-2.984-3.979-.746-7.211S532.4,303.121,532.4,303.121Z" transform="translate(-487.813 -287.413)" fill="#a0616a"/>
      <path id="Tracé_904" data-name="Tracé 904" d="M532.4,303.121s-.5,5.719-1.741,5.968,2.735,10.2,2.735,10.2h5.968l4.725-1.243-2.238-5.471s-2.984-3.979-.746-7.211S532.4,303.121,532.4,303.121Z" transform="translate(-487.813 -287.413)" opacity="0.1"/>
      <path id="Tracé_905" data-name="Tracé 905" d="M478.47,476.552s-6.465,12.433-1.243,14.92,6.465,2.238,6.465,2.984-.995.5-.5,1.741-.995,6.217.5,9.2a8.508,8.508,0,0,1,.995,5.222,4.017,4.017,0,0,0,.5,1.243c.5.995.746,1.741.5,2.238s-1.741,3.73-.249,4.476,9.2,1.243,9.947,0-.746-1.989,0-2.735,1.243-.995.746-1.492-.995-6.714-.995-6.714,1.243-7.211.746-8.206-1.243-1.989-.746-2.735.995-.5,1.243-1.492.746-3.233.746-3.233l2.735-.249,6.465,1.243s7.211,7.957,15.169,10.444c0,0,2.238,2.238,2.984,2.238s.746,0,.5.5-.995.5-.5.995,1.244-.249.746.5-.995.746-.5,1.243-.249,3.233-.249,3.481-2.238,23.623-1.492,24.121,11.19,1.989,11.936,0-.5-4.476-.5-4.476,3.73-29.84,2.735-31.829-4.476-10.941-23.126-16.661c0,0-5.222-.995-5.222-1.741s-.5-5.471-1.492-5.719-6.714-.5-6.714-.5l-7.211,2.238-9.947-1.741Z" transform="translate(-447.843 -430.283)" fill="#2f2e41"/>
      <path id="Tracé_906" data-name="Tracé 906" d="M518.487,645.3l-1.243,4.476s-.995,7.211.249,8.952a7.822,7.822,0,0,0,5.954,3.335,4,4,0,0,0,4.172-2.765,1.244,1.244,0,0,0,.069-.322c0-.5-.746-6.465-.746-6.465L525.7,646.3l-.249-1.741Z" transform="translate(-477.132 -557.259)" fill="#2f2e41"/>
      <path id="Tracé_907" data-name="Tracé 907" d="M663.338,726.6s-1.243-1.243-1.492,0-1.243,6.465.5,6.714,18.4,2.735,20.142,1.741,4.973-2.487,2.984-3.233-7.709-2.984-7.709-2.984a50.55,50.55,0,0,0-3.73-4.476c-.5-.249-3.232.249-4.476,1.243S663.338,726.6,663.338,726.6Z" transform="translate(-592.995 -617.174)" fill="#2f2e41"/>
      <circle id="Ellipse_253" data-name="Ellipse 253" cx="7.709" cy="7.709" r="7.709" transform="translate(42.727 5.512)" fill="#a0616a"/>
      <path id="Tracé_908" data-name="Tracé 908" d="M501.278,333.584l-2.984-3.233-3.308-6.465s-2.412-.746-2.909.5-9.449,5.222-9.449,5.222,2.238,20.888,1.243,22.877-2.735,9.947-1.243,10.693,8.455,0,10.693.995,8.7.995,10.444-.249,2.238-2.238,3.979-1.492c1.482.635,4.946-21.077,5.943-27.548a2.946,2.946,0,0,0-1.221-2.862c-2.231-1.565-6.25-4.262-6.961-3.906C504.511,328.611,501.278,333.584,501.278,333.584Z" transform="translate(-450.925 -305.929)" fill="#16cc86"/>
      <path id="Tracé_909" data-name="Tracé 909" d="M590.722,359.557h0a2.949,2.949,0,0,1,2.216,2.535l2.012,18.1s-4.973,10.693-7.46,3.481S590.722,359.557,590.722,359.557Z" transform="translate(-531.454 -333.595)" fill="#0c8355"/>
      <path id="Tracé_910" data-name="Tracé 910" d="M588.308,445.049l5.471-1.492s.995,6.963,1.989,6.963-3.481,3.979-5.719,3.481-5.471-2.238-5.719-3.481,2.238-6.465,2.238-6.465Z" transform="translate(-529.675 -398.473)" fill="#0c8355"/>
      <path id="Tracé_911" data-name="Tracé 911" d="M523.758,256.935c.524-1.156.433-2.5.866-3.7a4.408,4.408,0,0,1,6.7-2.084c.557.4,1.116.956,1.8.88.733-.082,1.386-.9,2.06-.6.747.332.545,1.67,1.3,1.979a.956.956,0,0,0,1.1-.452,2.789,2.789,0,0,0,.32-1.237,5.92,5.92,0,0,0-.261-3.144,7.547,7.547,0,0,1-.5-1.017,3.487,3.487,0,0,1-.1-1,7.187,7.187,0,0,0-.723-3.624,5.254,5.254,0,0,0-3.325-2.293,12.687,12.687,0,0,0-4.128-.166,11.852,11.852,0,0,0-6.45,2.023,2.523,2.523,0,0,0-.62.651,3.365,3.365,0,0,0-.33.955,19.75,19.75,0,0,1-1.733,4.545,9.861,9.861,0,0,0-.894,1.931,2.5,2.5,0,0,0,.221,2.054,7.862,7.862,0,0,0,1.251,1.127c.4.388.593,1.135,1.04,1.429.39.257.858.076,1.256.348C523.119,255.89,523.156,256.656,523.758,256.935Z" transform="translate(-478.974 -240.389)" fill="#2f2e41"/>
      <path id="Tracé_912" data-name="Tracé 912" d="M564.382,374.049l.746-1.492s10.941,3.233,13.179,6.217c0,0,5.471-3.481,8.455-2.984l2.984.5-9.2,8.206-11.688-.995Z" transform="translate(-515.032 -343.27)" fill="#f2f2f2"/>
      <path id="Tracé_913" data-name="Tracé 913" d="M531.577,372.557l-10.2,14.174,14.671,7.211a2.522,2.522,0,0,0,2.426,0l9.758-4.476,9.2-13.179-9.2,4.725a2.178,2.178,0,0,0-2.984-.995Z" transform="translate(-482.094 -343.584)" fill="#0c8355"/>
      <path id="Tracé_914" data-name="Tracé 914" d="M621.625,430.881l1.989-5.222s4.476-5.719,1.989-8.455-5.222,7.957-5.222,7.957Z" transform="translate(-557.387 -377.763)" fill="#a0616a"/>
      <path id="Tracé_915" data-name="Tracé 915" d="M533.079,437.625l4.341-3.519s6.741-2.7,5.963-6.315-8.51,4.263-8.51,4.263Z" transform="translate(-489.73 -385.479)" fill="#a0616a"/>
      <path id="Tracé_916" data-name="Tracé 916" d="M471.921,364.107h-.249s-3.854-4.6-4.6,1.616-3.233,26.856,3.233,27.6a15.721,15.721,0,0,0,11.066-3.108s4.725-7.211,2.984-7.211a46.764,46.764,0,0,0-5.222-.249c-2.229.138-4.231.766-4.1.124C475.278,381.638,478.884,365.847,471.921,364.107Z" transform="translate(-437.786 -336.032)" opacity="0.1"/>
      <path id="Tracé_917" data-name="Tracé 917" d="M467.792,348.054l-.995-.5s-3.979.746-4.725,6.963-3.232,26.856,3.233,27.6,15.169-.995,15.169-.995,1.741-9.449,0-9.449-10.693,1.243-10.444,0S474.754,349.795,467.792,348.054Z" transform="translate(-433.937 -324.483)" fill="#0c8355"/>
      <path id="Tracé_918" data-name="Tracé 918" d="M338,340.416l2.742-4.2,1.734,6.938L338,345.14Z" transform="translate(-277.032 -290.704)" fill="#0c8355"/>
    </g>
  </g>
</svg>
