<svg xmlns="http://www.w3.org/2000/svg" width="120" height="120" viewBox="0 0 120 120">
  <g id="Enseignant" transform="translate(-482 -220)">
    <g id="Groupe_3703" data-name="Groupe 3703" transform="translate(0 -3.631)">
      <path id="Tracé_881" data-name="Tracé 881" d="M382,172a59.9,59.9,0,0,1-3.169,19.292q-.181.533-.371,1.062a60.07,60.07,0,0,1-9.545,17.05q-1.832,2.3-3.882,4.406t-4.3,4.017A59.689,59.689,0,0,1,331.3,231.283h0q-2.077.322-4.195.5-2.522.213-5.1.215a59.812,59.812,0,0,1-42.943-18.1q-.588-.6-1.159-1.221-1.422-1.542-2.736-3.179-.738-.921-1.44-1.871a59.77,59.77,0,0,1-7.143-12.6,58.994,58.994,0,0,1-2.077-5.83c-.043-.14-.083-.28-.124-.421q-.133-.453-.257-.911A60.007,60.007,0,1,1,382,172Z" transform="translate(220 111.631)" fill="#fff"/>
      <path id="Tracé_882" data-name="Tracé 882" d="M405.1,298.35a3.542,3.542,0,0,0,3.542,4.118l8.677,25.249,5.537-3.805L412.17,298.623a3.561,3.561,0,0,0-7.068-.273Z" transform="translate(109.015 -29.65)" fill="#a0616a"/>
      <path id="Tracé_883" data-name="Tracé 883" d="M476.776,342.109c-3.853,4.384-13.355,12.11-21.182,17.43-1.692,1.15-3.307,2.186-4.768,3.053-.987.585-1.906,1.092-2.732,1.505a4.5,4.5,0,0,1-6.177-2.332l-5.42-13.112,1.875-1.243,4.624-3.067,1.05-.695,4.336,10.327,4.572-3.67,2.839-2.279,12.94-10.385,1.116-.331,2.6,2.541,1.841,1.8,1.732.3C476.284,341.995,476.535,342.048,476.776,342.109Z" transform="translate(82.631 -64.867)" fill="#e68415"/>
      <path id="Tracé_886" data-name="Tracé 886" d="M519.926,356.165l-.486,33.357L480.205,388.4l6.266-13.831c-.045-.444,2.75-3.559,2.734-4.021-.048-1.353.962-2.605,1.126-4.021.335-2.919-1.581-13.942-.7-16.219a15.479,15.479,0,0,1,1.438-2.908,3.607,3.607,0,0,1,1.509-1.456l1.451-3.381,1.287-1.93,10.1-2.99,1.116-.331,2.6,2.541,1.841,1.8,1.732.3c.259.045.51.1.751.159a7.63,7.63,0,0,1,3.162,1.566C519.642,346.244,519.994,351.075,519.926,356.165Z" transform="translate(45.95 -64.867)" fill="#f19a38"/>
      <path id="Path_9" data-name="Path 9" d="M514.666,214h-.009a1.757,1.757,0,0,1-1.912-1.587l-.914-9.762a13.1,13.1,0,0,1,.552-5.188,13.314,13.314,0,0,1,6.309-7.654,13.109,13.109,0,0,1,5.026-1.537c7.208-.687,9.842.815,14.295,11.808s.916,9.777.916,9.777a1.757,1.757,0,0,1-.074.7,1.789,1.789,0,0,1-.85,1.028,1.766,1.766,0,0,1-.672.205c-8.522,2.166-17.12,4.446-22.668,2.21Z" transform="translate(19.46 60.32)" fill="#2f2e41"/>
      <path id="Ellipse_1" data-name="Ellipse 1" d="M536.387,224.532a9.665,9.665,0,0,1-9.828,14.9,9.552,9.552,0,0,1-6.15-4.047,9.665,9.665,0,0,1,9.821-14.9,9.552,9.552,0,0,1,6.157,4.043Z" transform="translate(13.6 33.311)" fill="#9e616a"/>
      <path id="Path_10" data-name="Path 10" d="M493.106,224.572a10.365,10.365,0,0,1,.437-4.1c.1-3.24,1.037-6.175,4.989-6.052a10.371,10.371,0,0,1,3.949-1.212l1.953-.193.066-.006a10.348,10.348,0,0,1,11.262,9.344l.018.2-4.132.4-1.778-3.805.088,3.972-2.134.209-.9-1.92.044,2c-3.169,2.791-7.973,2.937-13.844,1.36Z" transform="translate(35.164 39.484)" fill="#2f2e41"/>
      <path id="Path_13" data-name="Path 13" d="M572.741,250.489a1.728,1.728,0,0,0,.161.938,1.768,1.768,0,0,0,.271.412,1.794,1.794,0,0,0,.315.28,1.754,1.754,0,0,0,1.173.306l.078-.009.077-.013.077-.016.077-.02,1.442-.4,1.616-4.506.37,3.954,6.557-1.826-1.572-16.78-11.177,1.1.306.3a7.724,7.724,0,0,1,2.1,3.621,12.592,12.592,0,0,1,.319,4.272,22.709,22.709,0,0,1-.8,4.276,33.446,33.446,0,0,1-1.263,3.64A1.761,1.761,0,0,0,572.741,250.489Z" transform="translate(-31.255 22.83)" fill="#2f2e41"/>
      <path id="Tracé_888" data-name="Tracé 888" d="M416.458,630.753a1.3,1.3,0,0,1-.555-.126l-30.962.79a1.3,1.3,0,0,1,.185-2.42l20.256-6.04a1.3,1.3,0,0,1,.646-.025l31.333,3.819a1.3,1.3,0,0,1,.149,2.5l-20.627,1.431a1.3,1.3,0,0,1-.424.071Z" transform="translate(126.518 -304.529)" fill="#3f3d56"/>
      <path id="Tracé_889" data-name="Tracé 889" d="M456.408,644.4a.817.817,0,0,1-.4-.1l-25.146,1.175a.815.815,0,0,1,.206-1.5l9.1-2.209a.817.817,0,0,1,.431.013l23.377-.028a.815.815,0,0,1,.005,1.557l-7.334,1.063A.817.817,0,0,1,456.408,644.4Z" transform="translate(87.707 -320.336)" fill="#2f2e41"/>
      <path id="Tracé_890" data-name="Tracé 890" d="M566.8,615.7a3.542,3.542,0,0,0,5.187-1.61l26.616,2.091-1.287-6.594-27.453-.262A3.562,3.562,0,0,0,566.8,615.7Z" transform="translate(-25.33 -292.977)" fill="#a0616a"/>
      <path id="Tracé_891" data-name="Tracé 891" d="M665.475,378.311s4.021-3.217,8.845,2.573c3.254,3.9,9.53,27.508,10.051,37.29a4.5,4.5,0,0,1-4.6,4.738l-14.187-.247L664,413.747l11.2.133Z" transform="translate(-108.287 -98.525)" fill="#f19a38"/>
      <path id="Tracé_892" data-name="Tracé 892" d="M399.927,505.462a3.657,3.657,0,0,1-1.417-.287l-28.7.655a3.647,3.647,0,0,1-2.2-3.953l-1.066-25.2a3.641,3.641,0,0,1,3.849-3.068l26.643,1.105a3.657,3.657,0,0,1,3.365,4.269l3.122,23.443A3.663,3.663,0,0,1,399.927,505.462Z" transform="translate(141.327 -179.234)" fill="#3f3d56"/>
      <path id="Tracé_893" data-name="Tracé 893" d="M369.53,204.994l-11.977-.034a1.213,1.213,0,0,0-1.214,1.208l-.043,15.859a1.21,1.21,0,0,0,1.206,1.213l6.644.019,5.335.014a1.21,1.21,0,0,0,1.213-1.208l0-.938.042-14.92A1.212,1.212,0,0,0,369.53,204.994Z" transform="translate(149.932 46.197)" fill="#e6e6e6"/>
      <path id="Tracé_894" data-name="Tracé 894" d="M373.544,210.909l-10.293-.029a1.136,1.136,0,0,0-1.137,1.131l-.029,10.2a5.057,5.057,0,0,0,5.037,5.064l1.956,0,4.421.013a1.135,1.135,0,0,0,1.137-1.131l0-1.026.035-13.086A1.135,1.135,0,0,0,373.544,210.909Z" transform="translate(145.073 41.23)" fill="#fff"/>
      <path id="Tracé_895" data-name="Tracé 895" d="M381.757,254.38h-8.025a.482.482,0,0,0,0,.963h8.025a.482.482,0,1,0,0-.963Z" transform="translate(135.704 4.727)" fill="#e68415"/>
      <path id="Tracé_896" data-name="Tracé 896" d="M375.5,237.96h-1.764a.482.482,0,0,0,0,.963H375.5a.482.482,0,1,0,0-.963Z" transform="translate(135.704 18.506)" fill="#e68415"/>
      <path id="Tracé_897" data-name="Tracé 897" d="M381.757,280.71h-8.025a.482.482,0,0,0,0,.963h8.025a.482.482,0,1,0,0-.963Z" transform="translate(135.704 -17.369)" fill="#e68415"/>
      <path id="Tracé_898" data-name="Tracé 898" d="M381.761,267.55h-8.025a.481.481,0,1,0,0,.962h8.025a.481.481,0,0,0,0-.962Z" transform="translate(135.7 -6.326)" fill="#e68415"/>
      <path id="Tracé_899" data-name="Tracé 899" d="M401.582,218.816a2.849,2.849,0,1,1,2.849-2.849A2.849,2.849,0,0,1,401.582,218.816Zm0-5.5a2.651,2.651,0,1,0,2.651,2.651A2.651,2.651,0,0,0,401.582,213.316Z" transform="translate(114.32 39.352)" fill="#e68415"/>
      <path id="Tracé_900" data-name="Tracé 900" d="M411.178,222.581a7.324,7.324,0,0,0-1.2-2.825.15.15,0,0,0-.256,0,7.823,7.823,0,0,0-.976,2.949c-.023.189.274.188.3,0a7.3,7.3,0,0,1,.195-1,.17.17,0,0,0,.033-.01,2.164,2.164,0,0,1,1.279-.208h.011a7.127,7.127,0,0,1,.334,1.171C410.928,222.847,411.214,222.768,411.178,222.581Zm-1.836-1.238a7.516,7.516,0,0,1,.519-1.225,7.126,7.126,0,0,1,.573,1.063A2.505,2.505,0,0,0,409.342,221.343Z" transform="translate(105.921 33.842)" fill="#e68415"/>
    </g>
  </g>
</svg>
