<svg xmlns="http://www.w3.org/2000/svg" width="111.005" height="120" viewBox="0 0 111.005 120">
  <g id="Parent" transform="translate(-294 -220)">
    <g id="Groupe_3702" data-name="Groupe 3702" transform="translate(294 220)">
      <ellipse id="Ellipse_11" data-name="Ellipse 11" cx="55.502" cy="55.138" rx="55.502" ry="55.138" fill="#fff"/>
      <path id="Tracé_1197" data-name="Tracé 1197" d="M490.286,389.648s-.533,4.383,3.693,4.831l.636-3.034-1.331-1.8L491.377,389Z" transform="translate(-449.561 -341.135)" fill="#6c63ff"/>
      <path id="Tracé_1198" data-name="Tracé 1198" d="M491.377,389l-1.091.647s-.533,4.383,3.693,4.831" transform="translate(-449.561 -341.135)" opacity="0.1"/>
      <path id="Tracé_1199" data-name="Tracé 1199" d="M474.908,177.29s-2.852.176-5.711.651q-.439.075-.873.16c-.169.032-.334.065-.5.1a11.812,11.812,0,0,0-3.658,1.226c-.954.615-1.272-1.041-1.3-3.342-.013-.809.014-1.7.057-2.594.056-1.038.137-2.088.223-3.034.189-2.095.407-3.723.407-3.723s1,0,2.333-.046l.429-.016c.418-.016.862-.038,1.309-.065.212-.011.425-.024.636-.04.846-.061,1.681-.147,2.386-.259a5.2,5.2,0,0,0,1.691-.479C473.845,164.928,474.908,177.29,474.908,177.29Z" transform="translate(-426.515 -153.558)" fill="#f8bdc5"/>
      <path id="Tracé_1200" data-name="Tracé 1200" d="M609.905,333.882l-.557,3.709s-1.214,1.517-1.055,2.36,1.559,38.1,1.559,38.1,2.744,15.733,1.791,17.756-.056,6.744-.056,6.744l5.71-.9,1.909-68.781Z" transform="translate(-548.806 -293.967)" fill="#474463"/>
      <path id="Tracé_1201" data-name="Tracé 1201" d="M609.905,333.882l-.557,3.709s-1.214,1.517-1.055,2.36,1.559,38.1,1.559,38.1,2.744,15.733,1.791,17.756-.056,6.744-.056,6.744l5.71-.9,1.909-68.781Z" transform="translate(-548.806 -293.967)" opacity="0.1"/>
      <path id="Tracé_1202" data-name="Tracé 1202" d="M638.616,752.5a4.8,4.8,0,0,0-.116,1.945c.044.65.116,1.2.116,1.2v3.821a53.1,53.1,0,0,1-9.46-4.383c-1.385-.928-1.78-1.79-1.7-2.48a2.014,2.014,0,0,1,1.7-1.622,13.117,13.117,0,0,0,3.391-1.657c1.023-.608,1.872-1.153,1.872-1.153S638.951,751.935,638.616,752.5Z" transform="translate(-564.922 -642.959)" fill="#575988"/>
      <path id="Tracé_1203" data-name="Tracé 1203" d="M665.6,752.5a4.8,4.8,0,0,0-.116,1.945c-1.357-.639-5.557-4.729-5.953-5.119,1.023-.608,1.872-1.153,1.872-1.153S665.935,751.935,665.6,752.5Z" transform="translate(-591.905 -642.959)" opacity="0.1"/>
      <path id="Tracé_1204" data-name="Tracé 1204" d="M634.573,316.98l-1.455,5.395a11.732,11.732,0,0,0-.954,2.416,6.572,6.572,0,0,1-.9,1.967,6.247,6.247,0,0,0-.56,2.472c-.056,1.518-1.113,8.542-2.295,9.722l-.28,4.552a1.356,1.356,0,0,0-.336,1.916c.778,1.131.5,4.046.5,4.046s-1.064.843-.391,1.686.223,3.316.223,3.316-.616.786-.336,1.236-.277,12.026-.277,12.026l-1.346,5.674s-.617,4.721-.954,6.126a15.88,15.88,0,0,0-.336,3.145s-1.455,3.091-2.519,2.923-6.212-5.227-6.212-5.227l.727-17.084s.616-7.249.224-8.654a84.225,84.225,0,0,1-.671-8.429l-.784-11.069-7.828-12.363s-.568-3.6,1.054-4.664l.294-1.943.266-1.766,9.293-1.012,14.217-3.707a4.6,4.6,0,0,1,1.67,2.373A8.319,8.319,0,0,1,634.573,316.98Z" transform="translate(-548.339 -274.479)" fill="#474463"/>
      <path id="Tracé_1205" data-name="Tracé 1205" d="M575.975,359.443s-6.605,8.143-6.325,5.868c.175-1.429-.728-3.174-1.431-4.277-.415-.656-.759-1.086-.759-1.086s4.03-7.416,4.255-6.406a8.25,8.25,0,0,0,1.137,1.889C574.116,357.184,575.975,359.443,575.975,359.443Z" transform="translate(-514.479 -311.259)" fill="#ffc1c8"/>
      <path id="Tracé_1206" data-name="Tracé 1206" d="M638.616,782.014v.8a53.1,53.1,0,0,1-9.46-4.383c-1.385-.928-1.78-1.79-1.7-2.48A62.807,62.807,0,0,1,633.8,779.5,32.985,32.985,0,0,0,638.616,782.014Z" transform="translate(-564.922 -666.304)" fill="#fff" opacity="0.3"/>
      <ellipse id="Ellipse_289" data-name="Ellipse 289" cx="1.866" cy="1.873" rx="1.866" ry="1.873" transform="translate(70.393 114.997)" fill="#474463"/>
      <ellipse id="Ellipse_290" data-name="Ellipse 290" cx="1.866" cy="1.873" rx="1.866" ry="1.873" transform="translate(51.335 112.367)" fill="#474463"/>
      <path id="Tracé_1207" data-name="Tracé 1207" d="M506.293,763.944a.992.992,0,0,1-.11.382l-1.113,1.218-15.561-.251-4.185-.069s-8.808-1.609-10.524-2.36a79.791,79.791,0,0,0-8.463-2.123s-4.075-.687-4.673-2.671a1.723,1.723,0,0,1,.121-1.494,2.145,2.145,0,0,1,1.334-.81,8.765,8.765,0,0,1,5.6.208L494.8,762.71l.4.1s9.3-.174,9.486-.14C506.118,762.935,506.327,763.544,506.293,763.944Z" transform="translate(-425.418 -649.039)" fill="#7effcd"/>
      <path id="Tracé_1208" data-name="Tracé 1208" d="M506.293,770.108c-1.565-.2-4.294-.506-5-.216a30.3,30.3,0,0,0-11.793,1.565l-4.178-.069s-8.808-1.609-10.524-2.36a79.818,79.818,0,0,0-8.463-2.123s-4.075-.687-4.673-2.671a1.723,1.723,0,0,1,.121-1.495c.278.814.814,1.994,1.67,2.325,1.344.519,6.868,1.576,6.868,1.576l10.933,2.687s6.313,1.375,8.77.479a28.131,28.131,0,0,1,4.771-.942l.4.1s9.3-.174,9.486-.141C506.118,769.1,506.327,769.708,506.293,770.108Z" transform="translate(-425.418 -655.202)" fill="#fff" opacity="0.3"/>
      <path id="Tracé_1209" data-name="Tracé 1209" d="M587.957,763.808a5.206,5.206,0,0,1-.088.7,70.532,70.532,0,0,1-9.4-.257,2.373,2.373,0,0,1-1.641-.76,1.171,1.171,0,0,1-.116-1.118,1.755,1.755,0,0,1,.135-.3c.24-.422.609-.72.811-.68.56.113,1.52-1.039,1.52-1.039-.076-.7,1.026-.958,1.2-.843a.224.224,0,0,0,.358-.141c.011-.053.014-.306.014-.6,0-.495-.014-1.118-.014-1.118l6.216.758.247,1.193c.226,1.063.541,2.524.676,3.024A3.621,3.621,0,0,1,587.957,763.808Z" transform="translate(-522.18 -650.926)" fill="#474463"/>
      <path id="Tracé_1210" data-name="Tracé 1210" d="M589.052,794.355a5.212,5.212,0,0,1-.088.7,70.525,70.525,0,0,1-9.4-.257,2.372,2.372,0,0,1-1.641-.76,10.1,10.1,0,0,1,2.564.086C581.432,794.362,587.1,794.362,589.052,794.355Z" transform="translate(-523.275 -681.473)" opacity="0.1"/>
      <path id="Tracé_1211" data-name="Tracé 1211" d="M504.886,752.012a.321.321,0,0,1-.135.3c-.783.607-4.538-.053-4.538-.053s-7.673-.479-8.819-1.265a.811.811,0,0,1-.253-.267c-.477-.865,1.25-2.318,1.4-2.318s2.212-.283,2.351-.31c.954-.193,1.909-.787,2.068-.618s.954-.225,1.342-.281c.142-.021.207-.222.231-.479a5.347,5.347,0,0,0-.035-1.042l6.128,1.656.054.98.177,3.263.022.4A.153.153,0,0,1,504.886,752.012Z" transform="translate(-450.228 -640.866)" fill="#474463"/>
      <path id="Tracé_1212" data-name="Tracé 1212" d="M500.692,778.831s-7.672-.479-8.819-1.265a.81.81,0,0,1-.253-.267c1.554.128,4.145.343,4.612.463.673.16,4.453.393,4.453.393h4.649l.022.4C505.559,779.687,500.692,778.831,500.692,778.831Z" transform="translate(-450.701 -667.439)" opacity="0.1"/>
      <ellipse id="Ellipse_291" data-name="Ellipse 291" cx="1.866" cy="1.873" rx="1.866" ry="1.873" transform="translate(41.993 112.367)" fill="#474463"/>
      <ellipse id="Ellipse_292" data-name="Ellipse 292" cx="1.866" cy="1.873" rx="1.866" ry="1.873" transform="translate(62.256 116.254)" fill="#474463"/>
      <path id="Tracé_1213" data-name="Tracé 1213" d="M473.528,390.948s-.353.639-.884,1.587c-1.272,2.254-3.561,6.251-4.546,7.515-1.4,1.8-1.287.113-2.8-3.652-1.123-2.8,2.333-6,4.181-7.461.636-.506,1.082-.8,1.082-.8Z" transform="translate(-428.381 -340.412)" fill="#f8bdc5"/>
      <path id="Tracé_1214" data-name="Tracé 1214" d="M479.674,432.83s-4.646.393-5.541.674a21.911,21.911,0,0,1-5.09,0c-.332-.112-6.942,1.4-3.919,2.922s4.931,0,4.931,0,3.919-.225,4.93.394,4.7.281,4.7.281Z" transform="translate(-427.755 -377.967)" fill="#ffc1c8"/>
      <path id="Tracé_1215" data-name="Tracé 1215" d="M468.762,178.658a4.675,4.675,0,0,1-.46,4.065,13.068,13.068,0,0,0-4.162,1.328c-2.519,1.63-.616-12.7-.616-12.7s1.218,0,2.763-.062C465.819,173.433,467.591,175.657,468.762,178.658Z" transform="translate(-426.494 -158.185)" opacity="0.1"/>
      <path id="Tracé_1216" data-name="Tracé 1216" d="M400.078,164.947a9.559,9.559,0,1,1-.954-4.188A9.566,9.566,0,0,1,400.078,164.947Z" transform="translate(-357.667 -144.793)" fill="#f8bdc5"/>
      <path id="Tracé_1217" data-name="Tracé 1217" d="M642.3,312.023a2.185,2.185,0,0,1-1.272.886c-2.184.618-17.578,4.327-18.585,4.1-.889-.2-4.7-.749-5.584-.875l.266-1.766,9.293-1.012,14.217-3.707A4.607,4.607,0,0,1,642.3,312.023Z" transform="translate(-556.022 -274.455)" opacity="0.1"/>
      <path id="Tracé_1218" data-name="Tracé 1218" d="M509.841,177.238a53.453,53.453,0,0,0-5.431.607.377.377,0,0,0-.009-.251l3.722-.461s-.544-8.781-2.545-10.886a5.193,5.193,0,0,0,1.691-.479C508.779,164.875,509.841,177.238,509.841,177.238Z" transform="translate(-461.448 -153.506)" opacity="0.1"/>
      <path id="Tracé_1219" data-name="Tracé 1219" d="M498.3,140.033s3.3-.3,3.75-.861,3.639-.73,3.639-.73a5.2,5.2,0,0,0,1.909-.675c.342-.394,8.843-.9,9.683-.449a6.708,6.708,0,0,0,2.128.787c.5.058,4.422,2.864,4.813,2.864s11.133,10.172,11.133,10.172,1.113,2.585,1.568,2.7,4.479,10.34,4.479,10.34.56,2.472-1.622,3.091-17.578,4.327-18.585,4.1-5.765-.9-5.765-.9.056,0-.056-.618-.28-.45-.057-1.012.448-.506.169-.843,0-.506-.9-1.068a11.277,11.277,0,0,1-1.959-1.348c-.051-.168-.84-1.293-1.231-1.349s-11.364-3.147-11.364-3.147l-2.575-.843s-1.231-.843-.954-1.348,1.229-5.069,1.229-5.069l3.936-.487s-.587-9.516-2.791-11.113S498.3,140.033,498.3,140.033Z" transform="translate(-454.775 -129.489)" fill="#7effcd"/>
      <path id="Tracé_1220" data-name="Tracé 1220" d="M496.8,390.948s-.353.639-.884,1.587a3.325,3.325,0,0,0-3.163-3.6c.636-.506,1.081-.8,1.081-.8Z" transform="translate(-451.651 -340.412)" opacity="0.1"/>
      <path id="Tracé_1221" data-name="Tracé 1221" d="M492.077,272.34l.27,1.517s1.064,1.293,1.064,1.686,1.231,1.517,1.568,2.135,1.511.731,1.062,1.8-3.022,9.216-3.022,9.216l-2.631,2.922s4.366-.394,3.693,4.831l5.654-4.949,4.428-8.087s-4.31-8.2-4.477-8.877S492.077,272.34,492.077,272.34Z" transform="translate(-449.667 -243.102)" fill="#7effcd"/>
      <path id="Tracé_1222" data-name="Tracé 1222" d="M583.31,275.055s3.582-2.529,3.582-2.81S583.31,275.055,583.31,275.055Z" transform="translate(-527.808 -243.007)" opacity="0.1"/>
      <path id="Tracé_1223" data-name="Tracé 1223" d="M621,300.683s1.909-.45,2.068-1.461S621,300.683,621,300.683Z" transform="translate(-559.503 -265.487)" opacity="0.1"/>
      <path id="Tracé_1224" data-name="Tracé 1224" d="M630.82,317.48s2.688-1.336,2.575-1.568S630.82,317.48,630.82,317.48Z" transform="translate(-567.761 -279.699)" opacity="0.1"/>
      <path id="Tracé_1225" data-name="Tracé 1225" d="M716.808,272.23s-1.113.73-.782,1.413S716.808,272.23,716.808,272.23Z" transform="translate(-639.364 -243.009)" opacity="0.1"/>
      <path id="Tracé_1226" data-name="Tracé 1226" d="M728.466,274.1s-3.171,3.034-2.454,3.091S728.466,274.1,728.466,274.1Z" transform="translate(-647.724 -244.581)" opacity="0.1"/>
      <path id="Tracé_1227" data-name="Tracé 1227" d="M696.64,568.68s4.086.787,4.2,1.068S696.64,568.68,696.64,568.68Z" transform="translate(-623.112 -492.127)" opacity="0.1"/>
      <path id="Tracé_1228" data-name="Tracé 1228" d="M705.79,585.57s2.182,1.349,2.238,1.742S705.79,585.57,705.79,585.57Z" transform="translate(-630.808 -506.32)" opacity="0.1"/>
      <path id="Tracé_1229" data-name="Tracé 1229" d="M702.62,604.58s.336,1.517.9,1.742S702.62,604.58,702.62,604.58Z" transform="translate(-628.142 -522.295)" opacity="0.1"/>
      <path id="Tracé_1230" data-name="Tracé 1230" d="M398.889,160.65a.108.108,0,0,1-.008.049,1.415,1.415,0,0,1-.747,1.207,1.186,1.186,0,0,1-.848-.078c-.8-.35-1.5-1.189-2.352-.987a1.41,1.41,0,0,0-.887.782,3.938,3.938,0,0,0-.318.857,3.077,3.077,0,0,0-.043,1.9,1.939,1.939,0,0,0,.143.281c.226.362.544.671.767,1.036a1.122,1.122,0,0,1-.083,1.455.87.87,0,0,1-.741.1,4.4,4.4,0,0,1-.9-.4,1.846,1.846,0,0,0-1.807-.137c-.185.115-.332.281-.509.4a1.829,1.829,0,0,1-1.229.257c-1.011-.1-1.39-.747-2.163-1.245-.566-.367-1.75-.524-2.087.227-.216.479.1,1.083-.107,1.571s-.884.639-1.2,1.092c-.41.6-.029,1.461-.329,2.123a1.083,1.083,0,0,1-.183.281,9.59,9.59,0,0,1,13.535-13.571l.429-.016c.418-.016.862-.038,1.309-.065a3.668,3.668,0,0,1,.247.7A5.867,5.867,0,0,1,398.889,160.65Z" transform="translate(-357.423 -144.734)" opacity="0.1"/>
      <path id="Tracé_1231" data-name="Tracé 1231" d="M363.476,148.09c-.218.479.1,1.083-.107,1.57s-.888.639-1.2,1.092c-.412.6-.03,1.463-.329,2.124a1.813,1.813,0,0,1-2.176.653,4.461,4.461,0,0,1-2.968-2.786c-.539-1.541-.191-3.236-.331-4.863a8.1,8.1,0,0,0-.445-2.042,8.689,8.689,0,0,1-.62-1.946,2.9,2.9,0,0,1,1.556-2.844c.655-.319,1.462-.41,1.939-.958a4.216,4.216,0,0,0,.614-1.552,3.668,3.668,0,0,1,3.34-2.595c1.206.01,2.386.723,3.564.442.666-.16,1.272-.639,1.959-.57a2.48,2.48,0,0,1,.927.346,36.124,36.124,0,0,1,5.2,3.433,5.856,5.856,0,0,0,1.1.752,6.838,6.838,0,0,1,.743.343,2.406,2.406,0,0,1,.929,1.518,5.822,5.822,0,0,1,.118,2.175,1.448,1.448,0,0,1-.756,1.258,1.184,1.184,0,0,1-.849-.081c-.8-.346-1.5-1.186-2.351-.985-.693.16-1.027.948-1.209,1.64a3.059,3.059,0,0,0-.043,1.9,11.054,11.054,0,0,0,.908,1.316c.272.458.35,1.143-.083,1.455-.477.346-1.124-.022-1.648-.3a1.847,1.847,0,0,0-1.805-.139c-.183.115-.331.281-.509.4a1.846,1.846,0,0,1-1.228.255c-1.013-.1-1.392-.747-2.163-1.245C364.995,147.495,363.814,147.338,363.476,148.09Z" transform="translate(-336.055 -126.688)" fill="#474463"/>
      <path id="Tracé_1232" data-name="Tracé 1232" d="M572.862,355.414c-.043.24-.371.267-.437.5a7.392,7.392,0,0,1-4.2,5.109c-.415-.656-.759-1.086-.759-1.086s4.03-7.416,4.255-6.406A8.364,8.364,0,0,0,572.862,355.414Z" transform="translate(-514.487 -311.251)" opacity="0.1"/>
      <path id="Tracé_1233" data-name="Tracé 1233" d="M523.979,317.066a7.377,7.377,0,1,1-2.157-5.252,7.4,7.4,0,0,1,2.157,5.252Z" transform="translate(-465.484 -274.454)" fill="#ffc1c8"/>
      <path id="Tracé_1234" data-name="Tracé 1234" d="M544.038,747.366l.054.98a3.979,3.979,0,0,1-2.6-.109c-.927-.57-2.3-.709-3.552-1.485a5.334,5.334,0,0,0-.035-1.042Z" transform="translate(-489.629 -640.892)" opacity="0.1"/>
      <path id="Tracé_1235" data-name="Tracé 1235" d="M608.959,759.588c-.043.219-.083.353-.083.353s-4.938-.508-6.362-1.193c0-.495-.014-1.118-.014-1.118l6.215.758Z" transform="translate(-543.946 -650.909)" opacity="0.1"/>
      <path id="Tracé_1236" data-name="Tracé 1236" d="M549.729,584.835c-.336.9-.5,1.068-.167,1.517s.167,2.81-.367,3.034-2.545,1.573-2.545,1.573a6.831,6.831,0,0,1,1.147,2.076,1.884,1.884,0,0,0,.433,1.068s1.724,3.709,2.068,4.889.658,3.034.658,3.034a4.615,4.615,0,0,0-.186,2.642,4.137,4.137,0,0,1,0,2.36s-6.014-.618-6.68-1.411-.223-2.578-.223-2.578a6.471,6.471,0,0,0-.84-2.248c-.673-1.068.159-2.19,0-2.248a4.747,4.747,0,0,1-1.179-1.684c-.506-1.011-.821-.619-.821-.619s.655,5.676,0,6.182-.744.281-.576.958a17.432,17.432,0,0,1,.28,1.967s-2.015.618-3.022,0-2.522-.731-3.854-1.686.6-2.585.938-2.81-.111-3.484-.111-3.484l-.449-3.2s1.511.337,1.015-.9-1.07-5.507-1.35-6.181.954-1.574.784-2.023.727-3.034.727-3.034.057-2.135.616-2.535a1.985,1.985,0,0,0,.444-1.132,14.115,14.115,0,0,0,.173-1.839s12.818-.9,14.889.337c.932.556.867,1.579.477,2.615a20.468,20.468,0,0,1-1.7,3.023C549.842,583.355,550.065,583.936,549.729,584.835Z" transform="translate(-485.831 -498.448)" fill="#575988"/>
      <path id="Tracé_1237" data-name="Tracé 1237" d="M568.194,579.47a16.47,16.47,0,0,0-4.054,1.487c-.56.62-2.464-3.484-2.464-3.484s.113,3.085-2.406,1.795c-2.18-1.118-5.7-.971-6.61-.91a14.1,14.1,0,0,0,.173-1.839s12.818-.9,14.888.337C568.654,577.411,568.589,578.434,568.194,579.47Z" transform="translate(-502.033 -498.449)" opacity="0.1"/>
      <path id="Tracé_1238" data-name="Tracé 1238" d="M558.186,378.875s1.113-1.349,1.344-.843a7.618,7.618,0,0,0,1.544,1.517s.377,1.18,1.04,1.349,5.645,6.912,5.645,6.912l-1.792,3.652-1.455,8.879a4.022,4.022,0,0,1-.332,1.916c-.4.511-1.909.393-1.207,1.011s1.708,1.18,2.268,3.992a26.2,26.2,0,0,0,1.231,4.439s-5.261,1.349-5.821,1.967-2.464-3.484-2.464-3.484.113,3.083-2.406,1.795-6.83-.9-6.83-.9v-3.321s.84-1.293.393-2.192.305-2.585.305-2.585a13.278,13.278,0,0,0-.7-2.752c-.449-1.011-.28-5.788-.28-5.788a21.275,21.275,0,0,1-.03-4.665,13.99,13.99,0,0,1,1.379-3.909,5.077,5.077,0,0,0,.838-2.778c-.167-.45,1.478-1.424,1.478-1.424l.911,1.48.232.885S558.3,380.561,558.186,378.875Z" transform="translate(-498.543 -331.823)" fill="#dce6f2"/>
      <path id="Tracé_1239" data-name="Tracé 1239" d="M591.947,432.83s3.135,3.09,3.47,3.6,1.46,3.137,0,3.936-7.157,2.029-7.723,1.6-3.976.479-3.976.479-5.7,1.405-4.472-.9,4.143-1.916,4.143-1.916,4.7-.008,5.207-.479,4.294-1.482,3.435-3.564S591.947,432.83,591.947,432.83Z" transform="translate(-524.247 -377.967)" fill="#ffc1c8"/>
      <path id="Tracé_1240" data-name="Tracé 1240" d="M567.086,519.41s-7.3,6.35-6.575,6.35S567.086,519.41,567.086,519.41Z" transform="translate(-508.592 -450.724)" opacity="0.1"/>
      <path id="Tracé_1241" data-name="Tracé 1241" d="M622.538,535.6s-2.32.56-1.872.9S622.538,535.6,622.538,535.6Z" transform="translate(-559.174 -464.328)" opacity="0.1"/>
      <path id="Tracé_1242" data-name="Tracé 1242" d="M581.29,439.16s2.9.26,2.386,1.17S581.29,439.16,581.29,439.16Z" transform="translate(-526.11 -383.286)" opacity="0.1"/>
      <path id="Tracé_1243" data-name="Tracé 1243" d="M569.017,610.09a2.521,2.521,0,0,0,0,1.756c.393.613,0,2.076,0,2.076v5.109s-.054,3.709,1.287,5Z" transform="translate(-515.641 -526.926)" opacity="0.1"/>
      <path id="Tracé_1244" data-name="Tracé 1244" d="M545.83,709.81a9.61,9.61,0,0,1,.9,1.573C546.838,711.8,545.83,709.81,545.83,709.81Z" transform="translate(-496.288 -610.724)" opacity="0.1"/>
      <path id="Tracé_1245" data-name="Tracé 1245" d="M547.06,694.317a6.854,6.854,0,0,1,2.1-.14C549.439,694.373,547.06,694.317,547.06,694.317Z" transform="translate(-497.323 -597.535)" opacity="0.1"/>
      <path id="Tracé_1246" data-name="Tracé 1246" d="M543.015,738.49s-.533.056.531.639,3.135,1.32,3.162,1.068S543.015,738.49,543.015,738.49Z" transform="translate(-493.809 -634.824)" opacity="0.1"/>
      <path id="Tracé_1247" data-name="Tracé 1247" d="M592.69,703.33c.188,0,2.531-.14,2.4.225S592.69,703.33,592.69,703.33Z" transform="translate(-535.696 -605.257)" opacity="0.1"/>
      <path id="Tracé_1248" data-name="Tracé 1248" d="M612.7,679.562s.531-.926.727-.533S612.7,679.562,612.7,679.562Z" transform="translate(-552.523 -584.776)" opacity="0.1"/>
      <path id="Tracé_1249" data-name="Tracé 1249" d="M523.987,317.005a7.424,7.424,0,0,1-.283,2.039,1.1,1.1,0,0,1-1.221.075A3.3,3.3,0,0,1,521.457,318a2.539,2.539,0,0,0-1.093-1.031,1.981,1.981,0,0,0-1.805.377c-.522.377-.938.875-1.431,1.277a2.323,2.323,0,0,1-1.749.629,3,3,0,0,1-1.113-.514,9.984,9.984,0,0,0-1.513-.974c-.523-.2-.954.16-1.452.16-.4.144-.827.471-.747.885a1.372,1.372,0,0,0,.2.428,1.8,1.8,0,0,1-.234,1.978A7.4,7.4,0,1,1,523.989,317Z" transform="translate(-465.493 -274.393)" opacity="0.1"/>
      <path id="Tracé_1250" data-name="Tracé 1250" d="M503.637,302.313c-.4.144-.827.471-.749.886a1.426,1.426,0,0,0,.205.426,1.8,1.8,0,0,1-.8,2.413.7.7,0,0,1-.442.07.781.781,0,0,1-.318-.192,2.958,2.958,0,0,1-.918-1.589,19.229,19.229,0,0,1-.122-1.972c-.07-.656-.294-1.3-.372-1.964a1.829,1.829,0,0,1,.1-.971,2.259,2.259,0,0,1,.4-.552,5.186,5.186,0,0,0,1.137-1.645c.355-1.009.1-2.294.873-3.034a4.844,4.844,0,0,1,1.307-.679,9.206,9.206,0,0,0,1.2-.765,6.59,6.59,0,0,1,4.9-1.4,6.953,6.953,0,0,1,1.942.8,21.828,21.828,0,0,1,3.181,2.146,4.959,4.959,0,0,1,1.113,1.148,3.988,3.988,0,0,1,.487,1.221,7.023,7.023,0,0,1,.092,2.874,18.644,18.644,0,0,0-.534,2.794,1.811,1.811,0,0,1-.138.939,1.034,1.034,0,0,1-1.358.236,3.248,3.248,0,0,1-1.024-1.118,2.518,2.518,0,0,0-1.093-1.03,1.981,1.981,0,0,0-1.805.375c-.522.375-.937.875-1.432,1.277a2.314,2.314,0,0,1-1.749.629,2.993,2.993,0,0,1-1.113-.513,9.811,9.811,0,0,0-1.511-.974C504.58,301.946,504.133,302.313,503.637,302.313Z" transform="translate(-457.831 -258.997)" fill="#794f6a"/>
      <path id="Tracé_1251" data-name="Tracé 1251" d="M593.236,432.83s-8.228,7.642-6.55,11.462,9.066-2.922,9.066-2.922l2.634-6.118Z" transform="translate(-530.458 -377.967)" fill="#f8bdc5"/>
      <path id="Tracé_1252" data-name="Tracé 1252" d="M502.32,350.756a.7.7,0,0,1-.441.07.759.759,0,0,1-.318-.193,2.963,2.963,0,0,1-.919-1.587c-.135-.647-.051-1.317-.121-1.973s-.3-1.3-.372-1.964a.422.422,0,0,0-.008-.1,2.54,2.54,0,0,0,.008.549c.076.661.3,1.3.372,1.964a19.635,19.635,0,0,0,.121,1.972,2.962,2.962,0,0,0,.919,1.589.773.773,0,0,0,.318.192.7.7,0,0,0,.441-.07,1.805,1.805,0,0,0,.98-1.843A1.77,1.77,0,0,1,502.32,350.756Z" transform="translate(-457.858 -304.169)"/>
      <path id="Tracé_1253" data-name="Tracé 1253" d="M531.553,334.964a18.456,18.456,0,0,0-.533,2.794,1.8,1.8,0,0,1-.14.939,1.031,1.031,0,0,1-1.357.236,3.253,3.253,0,0,1-1.026-1.118,2.508,2.508,0,0,0-1.093-1.03,1.979,1.979,0,0,0-1.8.377c-.522.377-.938.873-1.432,1.277a2.325,2.325,0,0,1-1.75.631,3.022,3.022,0,0,1-1.113-.514,9.931,9.931,0,0,0-1.511-.974c-.522-.2-.954.16-1.452.16-.4.145-.827.471-.751.888a.675.675,0,0,0,.043.131,1.238,1.238,0,0,1,.708-.568c.5,0,.935-.358,1.452-.16a9.574,9.574,0,0,1,1.511.974,2.95,2.95,0,0,0,1.113.512,2.289,2.289,0,0,0,1.75-.629c.49-.407.911-.91,1.432-1.277a2,2,0,0,1,1.8-.375,2.528,2.528,0,0,1,1.093,1.03,3.387,3.387,0,0,0,1.026,1.118,1.022,1.022,0,0,0,1.357-.236,1.915,1.915,0,0,0,.14-.939,17.887,17.887,0,0,1,.533-2.794,7.1,7.1,0,0,0,.1-1.456A7.106,7.106,0,0,1,531.553,334.964Z" transform="translate(-472.536 -294.883)"/>
      <path id="Tracé_1254" data-name="Tracé 1254" d="M561.487,172.488s-3.022,5.507,1.113,8.317,4.534,2.529,4.534,2.529a4.06,4.06,0,0,0,0,.843c.057.169,1.113.56,1.113.56a9.069,9.069,0,0,0,3.133,2.979,4.4,4.4,0,0,1,2.184,3.034,1.916,1.916,0,0,0,.954,1.405,7.026,7.026,0,0,1,1.689,2.641v1.8c0,.281.336,1.118-.391,1.207s-.113,1.771-.113,1.771-.783.958-.615,1.405-.336,1.348-.336,1.348-.615.9-.56,1.068-.671.787-.5,1.18-.838.9-.671,1.349-.716.674-.716.674l-2.419,5.62s5.089,1.118,6.4,3.933l6.416-11.8s3.582-8.821,3.695-9.383a8.846,8.846,0,0,0-.784-2.585l-4.366-7.983-6.55-9.272S569.492,164,561.487,172.488Z" transform="translate(-508.56 -156.511)" opacity="0.1"/>
      <path id="Tracé_1255" data-name="Tracé 1255" d="M581.7,187.756s-7.863,2.77-3.722,5.58,4.534,2.527,4.534,2.527a4.172,4.172,0,0,0,0,.843c.056.168,1.113.562,1.113.562a9.081,9.081,0,0,0,3.135,2.979,4.4,4.4,0,0,1,2.184,3.034,1.916,1.916,0,0,0,.954,1.405,6.961,6.961,0,0,1,1.68,2.641v1.8c0,.281.336,1.118-.393,1.209s-.111,1.771-.111,1.771-.784.958-.616,1.4-.336,1.349-.336,1.349-.616.9-.56,1.068-.673.787-.5,1.18-.84.9-.671,1.349-.717.674-.717.674l-2.418,5.619s4.193.217,5.516,3.034l7.3-10.894s3.583-8.821,3.695-9.383a8.959,8.959,0,0,0-.781-2.591l-4.366-7.983-9.96-5.767S589.705,179.27,581.7,187.756Z" transform="translate(-522.311 -169.456)" opacity="0.1"/>
      <path id="Tracé_1256" data-name="Tracé 1256" d="M564.307,172.491s-3.022,5.507,1.113,8.317,4.535,2.529,4.535,2.529a4.161,4.161,0,0,0,0,.843c.056.169,1.113.56,1.113.56a9.08,9.08,0,0,0,3.135,2.979,4.4,4.4,0,0,1,2.184,3.034,1.916,1.916,0,0,0,.954,1.405,7.016,7.016,0,0,1,1.688,2.641v1.8c0,.281.336,1.118-.393,1.207s-.111,1.771-.111,1.771-.784.958-.615,1.405-.336,1.348-.336,1.348-.615.9-.56,1.068-.673.787-.5,1.18-.84.9-.671,1.349-.717.674-.717.674l-2.417,5.62s5.08,1.118,6.4,3.932l6.416-11.8s3.583-8.821,3.695-9.383a8.9,8.9,0,0,0-.784-2.585l-4.366-7.983-6.548-9.268S572.31,164.006,564.307,172.491Z" transform="translate(-510.931 -156.514)" fill="#7effcd"/>
      <path id="Tracé_1257" data-name="Tracé 1257" d="M356.369,185.281a8.037,8.037,0,0,0-.445-2.044,8.689,8.689,0,0,1-.62-1.946v-.061a2.622,2.622,0,0,0,0,.511,8.768,8.768,0,0,0,.62,1.946,8.024,8.024,0,0,1,.445,2.042c.022.262.032.527.035.8C356.409,186.1,356.4,185.691,356.369,185.281Z" transform="translate(-336.055 -166.539)"/>
      <path id="Tracé_1258" data-name="Tracé 1258" d="M367.6,228.008a1.811,1.811,0,0,1-2.176.651,4.47,4.47,0,0,1-2.968-2.785,6.618,6.618,0,0,1-.318-2.125,7.334,7.334,0,0,0,.318,2.574,4.471,4.471,0,0,0,2.968,2.786c.8.22,1.834.1,2.176-.653a2.445,2.445,0,0,0,.124-1.054A1.652,1.652,0,0,1,367.6,228.008Z" transform="translate(-341.815 -202.27)"/>
      <path id="Tracé_1259" data-name="Tracé 1259" d="M465.424,181.856a1.444,1.444,0,0,1-.755,1.257,1.186,1.186,0,0,1-.848-.08c-.8-.348-1.5-1.188-2.352-.985-.694.16-1.026.947-1.209,1.64a4.049,4.049,0,0,0-.17,1.352,5.286,5.286,0,0,1,.17-.9c.183-.691.515-1.474,1.209-1.64.849-.2,1.551.639,2.352.985a1.179,1.179,0,0,0,.848.081,1.445,1.445,0,0,0,.755-1.258,5.835,5.835,0,0,0,.048-.985C465.464,181.5,465.448,181.679,465.424,181.856Z" transform="translate(-424.182 -166.614)"/>
      <path id="Tracé_1260" data-name="Tracé 1260" d="M415.749,218.429c-.477.346-1.124-.022-1.648-.3a1.847,1.847,0,0,0-1.805-.139c-.183.115-.331.281-.509.4a1.825,1.825,0,0,1-1.228.255c-1.013-.1-1.392-.747-2.163-1.245-.566-.366-1.75-.522-2.087.228a1.366,1.366,0,0,0-.065.691.9.9,0,0,1,.065-.241c.339-.752,1.52-.6,2.087-.228.771.5,1.15,1.142,2.163,1.245a1.835,1.835,0,0,0,1.228-.257c.178-.121.326-.287.509-.4a1.85,1.85,0,0,1,1.805.139c.523.275,1.167.639,1.648.3a.887.887,0,0,0,.285-.912A.738.738,0,0,1,415.749,218.429Z" transform="translate(-378.889 -196.682)"/>
      <path id="Tracé_1261" data-name="Tracé 1261" d="M398.658,229.062c-.218.5-.887.639-1.2,1.09a1.94,1.94,0,0,0-.2,1.174,1.332,1.332,0,0,1,.2-.723c.309-.452.978-.591,1.2-1.092a1.394,1.394,0,0,0,.06-.68A.9.9,0,0,1,398.658,229.062Z" transform="translate(-371.344 -206.539)"/>
    </g>
  </g>
</svg>
