<svg xmlns="http://www.w3.org/2000/svg" width="137" height="120" viewBox="0 0 137 120">
  <g id="Professionnel_de_l_Orientation" data-name="Professionnel de l&apos;Orientation" transform="translate(-667.794 -220)">
    <g id="Groupe_3704" data-name="Groupe 3704" transform="translate(0 -2.603)">
      <path id="Tracé_1163" data-name="Tracé 1163" d="M60,0A60,60,0,1,1,0,60,60,60,0,0,1,60,0Z" transform="translate(684.794 222.603)" fill="#fff"/>
      <g id="Groupe_3700" data-name="Groupe 3700" transform="translate(667.794 239.159)">
        <circle id="Ellipse_257" data-name="Ellipse 257" cx="5.228" cy="5.228" r="5.228" transform="translate(0 0.269)" fill="#2f2e41"/>
        <path id="Tracé_950" data-name="Tracé 950" d="M64.007,480.24l-2.633-2.56-5.288,1.642.508,6.122,10.872-.5-3.34-4.538Z" transform="translate(-39.829 -459.223)" fill="#fbbebe"/>
        <circle id="Ellipse_258" data-name="Ellipse 258" cx="8.452" cy="8.452" r="8.452" transform="translate(9.967 4.06)" fill="#fbbebe"/>
        <path id="Tracé_951" data-name="Tracé 951" d="M391.163,617.061s10.384,17.844,12.855,20.523a44.886,44.886,0,0,0,3.75,3.737s-1.162,3.853-3.012,3.716a8.71,8.71,0,0,1-3.052-.752,7.405,7.405,0,0,0-2.266-3.079c-1.441-.939-13.209-12.517-12.934-16.217S391.163,617.061,391.163,617.061Z" transform="translate(-320.273 -585.196)" fill="#2f2e41"/>
        <path id="Tracé_952" data-name="Tracé 952" d="M275.023,676.844s11.071,8.593,26.117.519l1.3-.954a51.069,51.069,0,0,0-2.391,6.257c-.235,1.547-5.932,10.612-6.862,11.047a2.41,2.41,0,0,0-1.135.835l3.945,4.342,1.459-1.073s5.688-8.059,7.352-9.533,9.59-16.677,9.59-16.677,3.03-5.728-4.533-6.159-11.043,1.631-11.043,1.631L285.4,669.21Z" transform="translate(-241.112 -619.515)" fill="#2f2e41"/>
        <path id="Tracé_953" data-name="Tracé 953" d="M440.783,697.841l5.6,3.875s7.144,2.238,2.743,3.728-16,2.028-16.261-.027.457-5.29,1.036-5.113A5.978,5.978,0,0,0,440.783,697.841Z" transform="translate(-353.16 -642.56)" fill="#2f2e41"/>
        <path id="Tracé_954" data-name="Tracé 954" d="M331.047,765.961l1.036,5.692s2.947,5.636-.591,3.888-10.829-8.392-9.752-9.785,3.453-2.9,3.694-2.449A5.079,5.079,0,0,0,331.047,765.961Z" transform="translate(-274.21 -688.99)" fill="#2f2e41"/>
        <path id="Tracé_955" data-name="Tracé 955" d="M235.473,605.991s-7.526,8.787-12.1,6.652-23.262-26.857-21.128-31.426,2.85-3.6,2.85-3.6l9.652.893-2.777-4.453a1.878,1.878,0,0,1,2.532.385c1.236,1.339,6.2,4.685,7.924,9.41s6.8,4.489,6.8,4.489l4.491,12.7Z" transform="translate(-189.314 -554.427)" fill="#c7fcfe"/>
        <path id="Tracé_956" data-name="Tracé 956" d="M203.5,479.882l-13.046,13.848L178.764,473.1l11.11-13.423Z" transform="translate(-126.945 -446.437)" fill="#3f3d56"/>
        <path id="Tracé_957" data-name="Tracé 957" d="M205.666,482.543l-11.783,12.169-10.677-18.753L193,463.631Z" transform="translate(-130.099 -449.246)" fill="#fff"/>
        <path id="Tracé_958" data-name="Tracé 958" d="M172.325,575.336l.639.529-.41.8L154.312,582.1l-.172-.625.83-.858Z" transform="translate(-109.459 -528.57)" fill="#b3b3b3"/>
        <path id="Tracé_959" data-name="Tracé 959" d="M145.153,526.5l-18.89,5.906-11.515-21.759,18.557-4.661Z" transform="translate(-81.485 -479.319)" fill="#d0cde1"/>
        <path id="Tracé_960" data-name="Tracé 960" d="M190.712,528.706l-.811.6-8.995-15.618.93-.434Z" transform="translate(-128.467 -484.481)" fill="#3f3d56"/>
        <path id="Tracé_961" data-name="Tracé 961" d="M166.519,531.6l-7.991,2.383-9.071-16.061,7.906-1.82Z" transform="translate(-106.134 -486.505)" fill="#3f3d56"/>
        <path id="Tracé_962" data-name="Tracé 962" d="M286.2,619.988l1.654-.468s9.227-1.043,9.361,1.856-10.6,1.554-10.6,1.554l-1.431-1.945Z" transform="translate(-248.331 -586.813)" fill="#fbbebe"/>
        <path id="Tracé_963" data-name="Tracé 963" d="M311.56,650.077l2.3-.945s6.951-3.117,4.957-5.147-8.144,1.5-8.144,1.5L309.5,646.6Z" transform="translate(-265.594 -603.867)" fill="#fbbebe"/>
        <path id="Tracé_964" data-name="Tracé 964" d="M234.3,624.406s3.75,3.737,2.9,4.615-14.844,12.423-18.312,8.729-20.366-22.242-13.791-23.832,8.312,2.128,8.312,2.128l8.68,14.85Z" transform="translate(-190.381 -582.683)" fill="#c7fcfe"/>
        <path id="Tracé_965" data-name="Tracé 965" d="M111.647,518.781l6.159,2.089-.1,4.447-6.514-.7Z" transform="translate(-78.961 -488.409)" fill="#c7fcfe"/>
        <path id="Tracé_966" data-name="Tracé 966" d="M97.083,546.836l-6.636,3.884L82.865,539.06l7.319,9.606Z" transform="translate(-58.845 -502.81)" opacity="0.2"/>
        <circle id="Ellipse_259" data-name="Ellipse 259" cx="10.062" cy="10.062" r="10.062" transform="translate(4.647)" fill="#2f2e41"/>
        <path id="Tracé_967" data-name="Tracé 967" d="M221.04,498.112l-7.045-10.307,2.987-3.7,7.321,10.6Z" transform="translate(-151.963 -463.787)" fill="#02afc5"/>
        <path id="Tracé_968" data-name="Tracé 968" d="M211.339,506.947l-10.726-15.593.529-.639,10.676,15.63Z" transform="translate(-142.46 -468.479)" fill="#e6e6e6"/>
        <path id="Tracé_969" data-name="Tracé 969" d="M206.571,512.179l-10.726-15.593.529-.639,10.676,15.63Z" transform="translate(-139.075 -472.194)" fill="#e6e6e6"/>
        <path id="Tracé_970" data-name="Tracé 970" d="M202.509,516.031l-10.726-15.593.529-.639,10.676,15.63Z" transform="translate(-136.19 -474.929)" fill="#e6e6e6"/>
        <path id="Tracé_971" data-name="Tracé 971" d="M66.117,425.544H69.23a5.942,5.942,0,0,1,5.942,5.942H66.117Z" transform="translate(-46.952 -422.2)" fill="#2f2e41"/>
      </g>
    </g>
  </g>
</svg>
