<svg xmlns="http://www.w3.org/2000/svg" xmlns:xlink="http://www.w3.org/1999/xlink" width="208.393" height="252.585" viewBox="0 0 208.393 252.585">
  <defs>
    <clipPath id="clip-path">
      <rect id="Rectangle_1593" data-name="Rectangle 1593" width="57.818" height="39.829" fill="#236c74"/>
    </clipPath>
  </defs>
  <g id="Parent" transform="translate(0 1.346)">
    <g id="Groupe_3595" data-name="Groupe 3595" transform="translate(14.169 0)">
      <path id="Union_23" data-name="Union 23" d="M0,106.365C0,54.749,43.367,12.907,96.862,12.907a98.854,98.854,0,0,1,55.281,16.706L186.208,0,175.572,51.884a90.842,90.842,0,0,1,18.152,54.481c0,51.616-43.367,93.458-96.862,93.458S0,157.981,0,106.365Z" fill="#fcfcfc" stroke="#d3d3d3" stroke-width="1"/>
      <g id="Groupe_3521" data-name="Groupe 3521" transform="translate(41.151 81.164)">
        <path id="Tracé_1197" data-name="Tracé 1197" d="M490.295,389.977s-.761,6.6,5.277,7.279l.909-4.571-1.9-2.709L491.854,389Z" transform="translate(-459.588 -327.61)" fill="#6c63ff"/>
        <path id="Tracé_1198" data-name="Tracé 1198" d="M491.854,389l-1.559.974s-.761,6.6,5.277,7.279" transform="translate(-459.588 -327.61)" opacity="0.1"/>
        <path id="Tracé_1199" data-name="Tracé 1199" d="M480.076,183.121s-4.075.265-8.161.982q-.627.113-1.248.241c-.241.048-.477.1-.714.154a16.3,16.3,0,0,0-5.227,1.848c-1.364.926-1.818-1.568-1.861-5.035-.018-1.22.02-2.557.082-3.909.079-1.564.2-3.147.318-4.571.27-3.156.582-5.61.582-5.61s1.427,0,3.334-.07l.614-.024c.6-.024,1.232-.058,1.87-.1.3-.017.607-.036.909-.06,1.209-.091,2.4-.221,3.409-.39a7.138,7.138,0,0,0,2.416-.722C478.558,164.494,480.076,183.121,480.076,183.121Z" transform="translate(-438.412 -158.092)" fill="#f8bdc5"/>
        <path id="Tracé_1200" data-name="Tracé 1200" d="M610.6,334.4l-.8,5.588s-1.734,2.285-1.507,3.556,2.227,57.4,2.227,57.4,3.92,23.705,2.559,26.753-.08,10.161-.08,10.161l8.159-1.354,2.727-103.632Z" transform="translate(-550.781 -284.983)" fill="#474463"/>
        <path id="Tracé_1201" data-name="Tracé 1201" d="M610.6,334.4l-.8,5.588s-1.734,2.285-1.507,3.556,2.227,57.4,2.227,57.4,3.92,23.705,2.559,26.753-.08,10.161-.08,10.161l8.159-1.354,2.727-103.632Z" transform="translate(-550.781 -284.983)" opacity="0.1"/>
        <path id="Tracé_1202" data-name="Tracé 1202" d="M643.408,754.689a7.613,7.613,0,0,0-.166,2.93c.064.979.166,1.811.166,1.811v5.757s-8.718-3.216-13.518-6.6c-1.98-1.4-2.543-2.7-2.434-3.736a2.942,2.942,0,0,1,2.434-2.444c.718,0,2.986-1.326,4.845-2.5,1.461-.917,2.675-1.737,2.675-1.737S643.888,753.842,643.408,754.689Z" transform="translate(-565.59 -600.377)" fill="#575988"/>
        <path id="Tracé_1203" data-name="Tracé 1203" d="M668.2,754.689a7.613,7.613,0,0,0-.166,2.93c-1.939-.962-7.941-7.126-8.507-7.713,1.461-.917,2.675-1.737,2.675-1.737S668.682,753.842,668.2,754.689Z" transform="translate(-590.385 -600.377)" opacity="0.1"/>
        <path id="Tracé_1204" data-name="Tracé 1204" d="M646.089,320.679l-2.08,8.129a18.235,18.235,0,0,0-1.364,3.64,10.149,10.149,0,0,1-1.28,2.964,9.841,9.841,0,0,0-.8,3.724c-.08,2.288-1.591,12.87-3.279,14.648l-.4,6.858a2.1,2.1,0,0,0-.48,2.887c1.111,1.7.721,6.1.721,6.1s-1.521,1.27-.559,2.54.318,5,.318,5-.88,1.184-.48,1.862-.4,18.119-.4,18.119l-1.923,8.55s-.882,7.113-1.364,9.23a25.2,25.2,0,0,0-.48,4.739s-2.08,4.657-3.6,4.4-8.877-7.876-8.877-7.876l1.039-25.74s.88-10.922.32-13.039-.959-12.7-.959-12.7l-1.12-16.678-11.186-18.627s-.811-5.42,1.507-7.027l.42-2.928.38-2.661,13.28-1.525,20.316-5.586a6.891,6.891,0,0,1,2.386,3.575A13.185,13.185,0,0,1,646.089,320.679Z" transform="translate(-550.353 -267.372)" fill="#474463"/>
        <path id="Tracé_1205" data-name="Tracé 1205" d="M579.628,362.481s-9.439,12.269-9.039,8.841c.25-2.153-1.041-4.782-2.045-6.445-.593-.989-1.084-1.636-1.084-1.636s5.759-11.174,6.08-9.651a12.6,12.6,0,0,0,1.625,2.846C576.971,359.077,579.628,362.481,579.628,362.481Z" transform="translate(-519.24 -300.61)" fill="#ffc1c8"/>
        <path id="Tracé_1206" data-name="Tracé 1206" d="M643.408,785.086v1.2s-8.718-3.216-13.518-6.6c-1.98-1.4-2.543-2.7-2.434-3.736a88.535,88.535,0,0,1,9.073,5.345A46.332,46.332,0,0,0,643.408,785.086Z" transform="translate(-565.59 -621.474)" fill="#fff" opacity="0.3"/>
        <ellipse id="Ellipse_289" data-name="Ellipse 289" cx="2.666" cy="2.822" rx="2.666" ry="2.822" transform="translate(73.101 162.537)" fill="#474463"/>
        <ellipse id="Ellipse_290" data-name="Ellipse 290" cx="2.666" cy="2.822" rx="2.666" ry="2.822" transform="translate(45.869 158.575)" fill="#474463"/>
        <path id="Tracé_1207" data-name="Tracé 1207" d="M525.484,768.271a1.554,1.554,0,0,1-.157.575l-1.591,1.836L501.5,770.3l-5.979-.1s-12.586-2.425-15.039-3.555-12.093-3.2-12.093-3.2-5.823-1.034-6.677-4.025a2.719,2.719,0,0,1,.173-2.252,3.027,3.027,0,0,1,1.907-1.22,11.914,11.914,0,0,1,8,.313l37.273,10.149.577.156s13.286-.262,13.554-.212C525.234,766.751,525.532,767.667,525.484,768.271Z" transform="translate(-437.404 -605.872)" fill="#7effcd"/>
        <path id="Tracé_1208" data-name="Tracé 1208" d="M525.484,773.842c-2.236-.308-6.136-.763-7.141-.325,0,0-7.093-.928-16.852,2.358l-5.97-.1s-12.586-2.425-15.039-3.556-12.093-3.2-12.093-3.2-5.823-1.034-6.677-4.025a2.719,2.719,0,0,1,.173-2.252c.4,1.227,1.164,3,2.386,3.5,1.92.782,9.814,2.374,9.814,2.374l15.623,4.049s9.02,2.071,12.532.722a38.367,38.367,0,0,1,6.818-1.419l.577.156s13.286-.262,13.555-.212C525.234,772.322,525.532,773.238,525.484,773.842Z" transform="translate(-437.404 -611.442)" fill="#fff" opacity="0.3"/>
        <path id="Tracé_1209" data-name="Tracé 1209" d="M592.82,766.928a8.26,8.26,0,0,1-.125,1.056s-8.836.334-13.436-.387a3.331,3.331,0,0,1-2.346-1.145,1.846,1.846,0,0,1-.166-1.684,2.713,2.713,0,0,1,.193-.452c.343-.635.87-1.085,1.159-1.025.8.171,2.173-1.566,2.173-1.566-.109-1.061,1.466-1.443,1.711-1.27a.306.306,0,0,0,.312.047.335.335,0,0,0,.2-.259c.016-.079.02-.462.02-.909,0-.746-.02-1.684-.02-1.684l8.882,1.143.352,1.8c.323,1.6.773,3.8.966,4.556A5.746,5.746,0,0,1,592.82,766.928Z" transform="translate(-526.316 -607.577)" fill="#474463"/>
        <path id="Tracé_1210" data-name="Tracé 1210" d="M593.827,794.535a8.222,8.222,0,0,1-.125,1.056s-8.836.334-13.436-.387a3.33,3.33,0,0,1-2.345-1.145,13.694,13.694,0,0,1,3.664.13C582.938,794.545,591.04,794.545,593.827,794.535Z" transform="translate(-527.322 -635.183)" opacity="0.1"/>
        <path id="Tracé_1211" data-name="Tracé 1211" d="M510.817,755.221a.493.493,0,0,1-.193.452c-1.118.914-6.484-.079-6.484-.079s-10.964-.722-12.6-1.905a1.2,1.2,0,0,1-.361-.4c-.682-1.3,1.786-3.493,2-3.493s3.161-.426,3.359-.467c1.364-.291,2.727-1.186,2.954-.931s1.364-.339,1.918-.423c.2-.031.3-.334.33-.722a8.493,8.493,0,0,0-.05-1.571l8.757,2.495.077,1.477.252,4.917.032.6A.229.229,0,0,1,510.817,755.221Z" transform="translate(-460.202 -598.486)" fill="#474463"/>
        <path id="Tracé_1212" data-name="Tracé 1212" d="M504.583,779.607s-10.964-.722-12.6-1.905a1.2,1.2,0,0,1-.361-.4c2.22.192,5.923.517,6.591.7.961.24,6.364.592,6.364.592h6.643l.032.6C511.538,780.9,504.583,779.607,504.583,779.607Z" transform="translate(-460.636 -622.5)" opacity="0.1"/>
        <ellipse id="Ellipse_291" data-name="Ellipse 291" cx="2.666" cy="2.822" rx="2.666" ry="2.822" transform="translate(32.518 158.575)" fill="#474463"/>
        <ellipse id="Ellipse_292" data-name="Ellipse 292" cx="2.666" cy="2.822" rx="2.666" ry="2.822" transform="translate(61.473 164.432)" fill="#474463"/>
        <path id="Tracé_1213" data-name="Tracé 1213" d="M477.152,392.372s-.5.962-1.264,2.391c-1.818,3.4-5.089,9.418-6.5,11.323-2,2.709-1.839.171-4-5.5-1.6-4.219,3.334-9.048,5.975-11.242.909-.763,1.545-1.2,1.545-1.2Z" transform="translate(-440.126 -326.957)" fill="#f8bdc5"/>
        <path id="Tracé_1214" data-name="Tracé 1214" d="M486.254,432.83s-6.639.592-7.918,1.015-6.8.168-7.273,0-9.92,2.117-5.6,4.4,7.045,0,7.045,0,5.6-.339,7.045.594,6.718.423,6.718.423Z" transform="translate(-439.552 -360.896)" fill="#ffc1c8"/>
        <path id="Tracé_1215" data-name="Tracé 1215" d="M471.3,182.392a7.376,7.376,0,0,1-.657,6.125,18.009,18.009,0,0,0-5.948,2c-3.6,2.456-.88-19.134-.88-19.134s1.741,0,3.948-.094C467.1,174.518,469.631,177.869,471.3,182.392Z" transform="translate(-438.392 -162.273)" opacity="0.1"/>
        <path id="Tracé_1216" data-name="Tracé 1216" d="M408.266,169.808c-.009,7.341-5.222,13.506-12.115,14.325s-13.268-3.969-14.814-11.125,2.228-14.4,8.772-16.836A13.358,13.358,0,0,1,406.9,163.5a15.136,15.136,0,0,1,1.364,6.31Z" transform="translate(-375.15 -150.17)" fill="#f8bdc5"/>
        <path id="Tracé_1217" data-name="Tracé 1217" d="M653.214,313.225a3.129,3.129,0,0,1-1.818,1.335c-3.12.931-25.118,6.519-26.557,6.18-1.271-.3-6.723-1.128-7.98-1.318l.38-2.661,13.279-1.525,20.316-5.586A6.9,6.9,0,0,1,653.214,313.225Z" transform="translate(-557.412 -267.349)" opacity="0.1"/>
        <path id="Tracé_1218" data-name="Tracé 1218" d="M512.175,183.073a72.591,72.591,0,0,0-7.761.914.6.6,0,0,0-.014-.378l5.318-.7s-.777-13.231-3.636-16.4a7.137,7.137,0,0,0,2.416-.722C510.657,164.446,512.175,183.073,512.175,183.073Z" transform="translate(-470.511 -158.044)" opacity="0.1"/>
        <path id="Tracé_1219" data-name="Tracé 1219" d="M499.087,141.5s4.72-.45,5.359-1.3,5.2-1.1,5.2-1.1,2.239-.423,2.727-1.018,12.636-1.354,13.836-.676a9.273,9.273,0,0,0,3.041,1.186c.72.087,6.318,4.316,6.877,4.316s15.909,15.326,15.909,15.326,1.591,3.895,2.241,4.063,6.4,15.579,6.4,15.579.8,3.724-2.318,4.657-25.118,6.519-26.557,6.18-8.239-1.354-8.239-1.354.08,0-.08-.931-.4-.678-.082-1.525.641-.763.241-1.27,0-.763-1.28-1.609a16.137,16.137,0,0,1-2.8-2.03c-.073-.253-1.2-1.949-1.759-2.033s-16.239-4.742-16.239-4.742l-3.68-1.27s-1.759-1.27-1.364-2.03,1.757-7.638,1.757-7.638l5.625-.734s-.839-14.338-3.989-16.743S499.087,141.5,499.087,141.5Z" transform="translate(-464.38 -136.339)" fill="#7effcd"/>
        <path id="Tracé_1220" data-name="Tracé 1220" d="M498.534,392.372s-.5.962-1.264,2.391c-.118-4.417-3.036-5.273-4.52-5.42.909-.763,1.545-1.2,1.545-1.2Z" transform="translate(-461.508 -326.957)" opacity="0.1"/>
        <path id="Tracé_1221" data-name="Tracé 1221" d="M492.8,272.34l.386,2.285s1.521,1.949,1.521,2.54,1.759,2.285,2.241,3.216,2.159,1.1,1.518,2.711-4.318,13.885-4.318,13.885l-3.759,4.4s6.239-.594,5.277,7.279l8.08-7.457,6.327-12.184s-6.159-12.36-6.4-13.375S492.8,272.34,492.8,272.34Z" transform="translate(-459.685 -239.014)" fill="#7effcd"/>
        <path id="Tracé_1222" data-name="Tracé 1222" d="M583.31,276.488s5.118-3.811,5.118-4.234S583.31,276.488,583.31,276.488Z" transform="translate(-531.487 -238.928)" opacity="0.1"/>
        <path id="Tracé_1223" data-name="Tracé 1223" d="M621,301.546s2.727-.678,2.955-2.2S621,301.546,621,301.546Z" transform="translate(-560.611 -259.245)" opacity="0.1"/>
        <path id="Tracé_1224" data-name="Tracé 1224" d="M630.82,318.284s3.841-2.013,3.68-2.362S630.82,318.284,630.82,318.284Z" transform="translate(-568.199 -272.089)" opacity="0.1"/>
        <path id="Tracé_1225" data-name="Tracé 1225" d="M717.17,272.23s-1.591,1.1-1.118,2.129S717.17,272.23,717.17,272.23Z" transform="translate(-633.993 -238.931)" opacity="0.1"/>
        <path id="Tracé_1226" data-name="Tracé 1226" d="M729.564,274.1s-4.532,4.571-3.507,4.657S729.564,274.1,729.564,274.1Z" transform="translate(-641.675 -240.351)" opacity="0.1"/>
        <path id="Tracé_1227" data-name="Tracé 1227" d="M696.64,568.68s5.839,1.186,6,1.609S696.64,568.68,696.64,568.68Z" transform="translate(-619.06 -464.066)" opacity="0.1"/>
        <path id="Tracé_1228" data-name="Tracé 1228" d="M705.79,585.57s3.118,2.033,3.2,2.625S705.79,585.57,705.79,585.57Z" transform="translate(-626.131 -476.893)" opacity="0.1"/>
        <path id="Tracé_1229" data-name="Tracé 1229" d="M702.62,604.58s.479,2.285,1.28,2.625S702.62,604.58,702.62,604.58Z" transform="translate(-623.682 -491.33)" opacity="0.1"/>
        <path id="Tracé_1230" data-name="Tracé 1230" d="M406.691,163.37a.171.171,0,0,1-.011.075,2.146,2.146,0,0,1-1.068,1.819,1.615,1.615,0,0,1-1.211-.118c-1.136-.527-2.148-1.792-3.361-1.487a2.053,2.053,0,0,0-1.268,1.179,6.14,6.14,0,0,0-.455,1.292,4.877,4.877,0,0,0-.061,2.865,2.993,2.993,0,0,0,.2.423c.323.546.777,1.01,1.1,1.561a1.76,1.76,0,0,1-.118,2.192,1.189,1.189,0,0,1-1.059.156,6.131,6.131,0,0,1-1.293-.606,2.522,2.522,0,0,0-2.582-.207c-.264.173-.475.423-.727.606a2.5,2.5,0,0,1-1.757.387c-1.445-.156-1.986-1.126-3.091-1.876-.809-.553-2.5-.789-2.982.342-.309.722.15,1.631-.152,2.367s-1.264.962-1.709,1.645c-.586.9-.041,2.2-.47,3.2a1.643,1.643,0,0,1-.261.423,15.092,15.092,0,0,1,.36-20.091,13.14,13.14,0,0,1,18.981-.357l.614-.024c.6-.024,1.232-.058,1.87-.1a5.729,5.729,0,0,1,.352,1.056A9.3,9.3,0,0,1,406.691,163.37Z" transform="translate(-374.925 -150.117)" opacity="0.1"/>
        <path id="Tracé_1231" data-name="Tracé 1231" d="M366.986,155.327c-.311.722.148,1.631-.152,2.365s-1.268.962-1.709,1.645c-.589.9-.043,2.2-.47,3.2-.491,1.138-1.973,1.316-3.109.984a6.526,6.526,0,0,1-4.241-4.2c-.77-2.321-.273-4.876-.473-7.328a12.767,12.767,0,0,0-.636-3.077,13.608,13.608,0,0,1-.886-2.932,4.419,4.419,0,0,1,2.223-4.284c.936-.481,2.089-.618,2.77-1.443a6.554,6.554,0,0,0,.877-2.338,5.3,5.3,0,0,1,4.773-3.909c1.723.014,3.409,1.09,5.093.666.952-.241,1.818-.962,2.8-.859a3.434,3.434,0,0,1,1.325.522,51.468,51.468,0,0,1,7.434,5.172,8.363,8.363,0,0,0,1.575,1.133,9.53,9.53,0,0,1,1.061.517,3.658,3.658,0,0,1,1.327,2.288,9.238,9.238,0,0,1,.168,3.276c-.1.772-.386,1.638-1.08,1.9a1.613,1.613,0,0,1-1.214-.123c-1.136-.522-2.146-1.787-3.359-1.484-.991.241-1.468,1.429-1.727,2.471a4.848,4.848,0,0,0-.061,2.868,16.712,16.712,0,0,0,1.3,1.982c.389.69.5,1.722-.118,2.192-.682.522-1.607-.034-2.355-.447a2.523,2.523,0,0,0-2.579-.209c-.261.173-.473.423-.727.609a2.526,2.526,0,0,1-1.755.385c-1.448-.156-1.989-1.126-3.091-1.876C369.157,154.43,367.47,154.194,366.986,155.327Z" transform="translate(-355.291 -133.808)" fill="#474463"/>
        <path id="Tracé_1232" data-name="Tracé 1232" d="M575.174,356.416c-.061.361-.53.4-.625.753-.909,3.394-2.909,6.447-6,7.7-.593-.989-1.084-1.636-1.084-1.636s5.759-11.174,6.08-9.651A12.767,12.767,0,0,0,575.174,356.416Z" transform="translate(-519.247 -300.602)" opacity="0.1"/>
        <path id="Tracé_1233" data-name="Tracé 1233" d="M530.318,320.824c0,6.175-4.728,11.179-10.56,11.179S509.2,327,509.2,320.826s4.728-11.176,10.56-11.176a10.232,10.232,0,0,1,7.476,3.261A11.477,11.477,0,0,1,530.318,320.824Z" transform="translate(-474.22 -267.349)" fill="#ffc1c8"/>
        <path id="Tracé_1234" data-name="Tracé 1234" d="M546.667,748.2l.077,1.477c-.925.217-2.684.5-3.709-.163-1.325-.859-3.282-1.068-5.075-2.237a8.483,8.483,0,0,0-.05-1.571Z" transform="translate(-496.405 -598.509)" opacity="0.1"/>
        <path id="Tracé_1235" data-name="Tracé 1235" d="M611.729,760.579c-.061.329-.118.532-.118.532s-7.057-.765-9.091-1.8c0-.746-.02-1.684-.02-1.684l8.882,1.143Z" transform="translate(-546.316 -607.562)" opacity="0.1"/>
        <path id="Tracé_1236" data-name="Tracé 1236" d="M556.736,589.209c-.48,1.354-.721,1.609-.239,2.285s.239,4.234-.525,4.571-3.636,2.37-3.636,2.37,1.591,2.2,1.639,3.127a2.925,2.925,0,0,0,.618,1.609s2.464,5.588,2.955,7.366.941,4.571.941,4.571-.861,2.54-.266,3.981a6.557,6.557,0,0,1,0,3.555s-8.593-.931-9.545-2.127-.318-3.885-.318-3.885a10.084,10.084,0,0,0-1.2-3.387c-.961-1.609.227-3.3,0-3.387a7.14,7.14,0,0,1-1.684-2.538c-.723-1.523-1.173-.933-1.173-.933s.936,8.552,0,9.315-1.064.423-.823,1.443a27.616,27.616,0,0,1,.4,2.964s-2.88.931-4.318,0-3.6-1.1-5.507-2.54.861-3.895,1.341-4.234-.159-5.249-.159-5.249l-.641-4.826s2.159.508,1.45-1.354-1.529-8.3-1.93-9.312,1.364-2.372,1.12-3.048,1.039-4.571,1.039-4.571.082-3.216.88-3.82a3.08,3.08,0,0,0,.634-1.706,22.4,22.4,0,0,0,.248-2.771s18.316-1.354,21.275.508c1.332.837,1.239,2.379.682,3.94a31.333,31.333,0,0,1-2.434,4.554C556.9,586.979,557.216,587.855,556.736,589.209Z" transform="translate(-492.915 -469.779)" fill="#7c7c7c"/>
        <path id="Tracé_1237" data-name="Tracé 1237" d="M574.858,581.126c-2.273.676-5.3,1.67-5.793,2.24-.8.933-3.52-5.249-3.52-5.249s.161,4.648-3.439,2.7c-3.116-1.684-8.145-1.463-9.445-1.371a22.388,22.388,0,0,0,.248-2.771s18.316-1.354,21.275.508C575.515,578.023,575.421,579.565,574.858,581.126Z" transform="translate(-507.803 -469.779)" opacity="0.1"/>
        <path id="Tracé_1238" data-name="Tracé 1238" d="M562.337,379.36s1.591-2.033,1.921-1.27a11.167,11.167,0,0,0,2.207,2.285s.539,1.778,1.486,2.033,8.066,10.414,8.066,10.414l-2.561,5.5-2.08,13.378s.091,2.117-.475,2.887-2.727.592-1.725,1.523,2.441,1.778,3.241,6.014a41.127,41.127,0,0,0,1.759,6.688s-7.518,2.033-8.318,2.964-3.521-5.249-3.521-5.249.161,4.645-3.439,2.7-9.759-1.35-9.759-1.35v-5s1.2-1.948.561-3.3.436-3.895.436-3.895a20.914,20.914,0,0,0-1-4.147c-.641-1.523-.4-8.72-.4-8.72a33.777,33.777,0,0,1-.043-7.029,21.847,21.847,0,0,1,1.97-5.889c.88-1.814,1.436-3.507,1.2-4.186s2.111-2.146,2.111-2.146l1.3,2.23.332,1.333S562.5,381.9,562.337,379.36Z" transform="translate(-504.596 -319.195)" fill="#eeeeef"/>
        <path id="Tracé_1239" data-name="Tracé 1239" d="M597.468,432.83s4.48,4.655,4.959,5.418,2.086,4.727.007,5.93-10.227,3.058-11.036,2.418-5.682.722-5.682.722-8.15,2.117-6.391-1.354,5.92-2.887,5.92-2.887,6.723-.012,7.441-.722,6.136-2.232,4.909-5.369S597.468,432.83,597.468,432.83Z" transform="translate(-528.215 -360.896)" fill="#ffc1c8"/>
        <path id="Tracé_1240" data-name="Tracé 1240" d="M569.928,519.41s-10.434,9.567-9.4,9.567S569.928,519.41,569.928,519.41Z" transform="translate(-513.83 -426.649)" opacity="0.1"/>
        <path id="Tracé_1241" data-name="Tracé 1241" d="M623.365,535.6s-3.316.844-2.675,1.354S623.365,535.6,623.365,535.6Z" transform="translate(-560.308 -438.943)" opacity="0.1"/>
        <path id="Tracé_1242" data-name="Tracé 1242" d="M581.29,439.16s4.139.392,3.409,1.763S581.29,439.16,581.29,439.16Z" transform="translate(-529.927 -365.703)" opacity="0.1"/>
        <path id="Tracé_1243" data-name="Tracé 1243" d="M569.092,610.09a3.993,3.993,0,0,0,0,2.646c.561.924,0,3.127,0,3.127v7.7s-.077,5.588,1.839,7.534Z" transform="translate(-520.307 -495.514)" opacity="0.1"/>
        <path id="Tracé_1244" data-name="Tracé 1244" d="M545.83,709.81a14.7,14.7,0,0,1,1.28,2.37C547.271,712.815,545.83,709.81,545.83,709.81Z" transform="translate(-502.525 -571.245)" opacity="0.1"/>
        <path id="Tracé_1245" data-name="Tracé 1245" d="M547.06,694.419s2.6-.508,3-.212S547.06,694.419,547.06,694.419Z" transform="translate(-503.475 -559.326)" opacity="0.1"/>
        <path id="Tracé_1246" data-name="Tracé 1246" d="M543.072,738.49s-.761.084.759.962,4.479,1.99,4.518,1.609S543.072,738.49,543.072,738.49Z" transform="translate(-500.247 -593.026)" opacity="0.1"/>
        <path id="Tracé_1247" data-name="Tracé 1247" d="M592.69,703.344c.268,0,3.616-.212,3.423.339S592.69,703.344,592.69,703.344Z" transform="translate(-538.735 -566.304)" opacity="0.1"/>
        <path id="Tracé_1248" data-name="Tracé 1248" d="M612.7,679.882s.759-1.4,1.039-.8S612.7,679.882,612.7,679.882Z" transform="translate(-554.198 -547.795)" opacity="0.1"/>
        <path id="Tracé_1249" data-name="Tracé 1249" d="M530.326,320.769a11.743,11.743,0,0,1-.4,3.072,1.51,1.51,0,0,1-1.745.113,4.879,4.879,0,0,1-1.466-1.684,3.716,3.716,0,0,0-1.561-1.554,2.72,2.72,0,0,0-2.58.568c-.745.568-1.341,1.318-2.045,1.924a3.219,3.219,0,0,1-2.5.948,4.186,4.186,0,0,1-1.591-.775,14.21,14.21,0,0,0-2.161-1.467c-.748-.306-1.364.241-2.075.241-.566.217-1.182.71-1.068,1.333a2.12,2.12,0,0,0,.291.645,2.833,2.833,0,0,1-.334,2.981,11.71,11.71,0,0,1,.238-13.066,10.228,10.228,0,0,1,11.786-3.894,11.142,11.142,0,0,1,7.219,10.6Z" transform="translate(-474.228 -267.294)" opacity="0.1"/>
        <path id="Tracé_1250" data-name="Tracé 1250" d="M505.154,307.916c-.566.216-1.182.71-1.07,1.335a2.2,2.2,0,0,0,.293.642,2.776,2.776,0,0,1-1.136,3.635.958.958,0,0,1-.632.106,1.107,1.107,0,0,1-.455-.289,4.516,4.516,0,0,1-1.311-2.394c-.2-.962-.075-1.982-.175-2.971s-.42-1.963-.532-2.959a2.9,2.9,0,0,1,.143-1.463,3.4,3.4,0,0,1,.573-.832,7.837,7.837,0,0,0,1.625-2.478c.507-1.52.139-3.457,1.248-4.571a6.805,6.805,0,0,1,1.868-1.022,13.077,13.077,0,0,0,1.716-1.152c2.057-1.5,4.557-2.646,7-2.117a9.66,9.66,0,0,1,2.775,1.2,31.148,31.148,0,0,1,4.546,3.233,7.313,7.313,0,0,1,1.591,1.73,6.2,6.2,0,0,1,.7,1.84,11.149,11.149,0,0,1,.132,4.33,29.452,29.452,0,0,0-.764,4.21,2.864,2.864,0,0,1-.2,1.415,1.427,1.427,0,0,1-1.941.356,4.809,4.809,0,0,1-1.464-1.684,3.683,3.683,0,0,0-1.561-1.552,2.718,2.718,0,0,0-2.58.565c-.745.565-1.339,1.318-2.045,1.924a3.207,3.207,0,0,1-2.5.948,4.18,4.18,0,0,1-1.591-.772,13.955,13.955,0,0,0-2.159-1.467C506.5,307.363,505.863,307.916,505.154,307.916Z" transform="translate(-467.187 -253.38)" fill="#794f6a"/>
        <path id="Tracé_1251" data-name="Tracé 1251" d="M596.142,432.83s-11.757,11.513-9.359,17.27,12.954-4.4,12.954-4.4l3.764-9.218Z" transform="translate(-533.922 -360.896)" fill="#f8bdc5"/>
        <g id="Groupe_3519" data-name="Groupe 3519" transform="translate(32.918 48.149)" opacity="0.1">
          <path id="Tracé_1252" data-name="Tracé 1252" d="M503.259,353.668a.951.951,0,0,1-.63.106,1.076,1.076,0,0,1-.455-.291,4.523,4.523,0,0,1-1.314-2.391c-.193-.974-.073-1.985-.173-2.973s-.423-1.961-.532-2.959a.668.668,0,0,0-.011-.149,4.028,4.028,0,0,0,.011.828c.109,1,.432,1.958.532,2.959s-.021,2,.173,2.971a4.521,4.521,0,0,0,1.314,2.394,1.093,1.093,0,0,0,.455.289.952.952,0,0,0,.63-.106,2.757,2.757,0,0,0,1.4-2.776A2.667,2.667,0,0,1,503.259,353.668Z" transform="translate(-500.13 -342.352)"/>
          <path id="Tracé_1253" data-name="Tracé 1253" d="M537.544,335.473a29.158,29.158,0,0,0-.761,4.21,2.838,2.838,0,0,1-.2,1.414,1.424,1.424,0,0,1-1.939.356,4.816,4.816,0,0,1-1.466-1.684,3.669,3.669,0,0,0-1.561-1.552,2.716,2.716,0,0,0-2.577.568c-.745.568-1.341,1.316-2.045,1.925a3.221,3.221,0,0,1-2.5.95,4.222,4.222,0,0,1-1.591-.775,14.128,14.128,0,0,0-2.159-1.467c-.746-.306-1.364.241-2.075.241-.566.219-1.182.71-1.073,1.338a1.041,1.041,0,0,0,.061.2,1.791,1.791,0,0,1,1.011-.856c.709,0,1.336-.539,2.075-.241a13.631,13.631,0,0,1,2.159,1.467,4.117,4.117,0,0,0,1.591.772,3.174,3.174,0,0,0,2.5-.948c.7-.613,1.3-1.371,2.045-1.925a2.745,2.745,0,0,1,2.577-.565,3.7,3.7,0,0,1,1.561,1.552,5.015,5.015,0,0,0,1.466,1.684,1.411,1.411,0,0,0,1.939-.356,3.026,3.026,0,0,0,.2-1.415,28.246,28.246,0,0,1,.761-4.21,11.251,11.251,0,0,0,.146-2.194A11.267,11.267,0,0,1,537.544,335.473Z" transform="translate(-513.617 -333.96)"/>
        </g>
        <path id="Tracé_1254" data-name="Tracé 1254" d="M561.944,174.1s-4.318,8.3,1.591,12.531,6.479,3.811,6.479,3.811a6.442,6.442,0,0,0,0,1.27c.082.255,1.591.844,1.591.844a13.337,13.337,0,0,0,4.477,4.489,6.664,6.664,0,0,1,3.12,4.571,2.92,2.92,0,0,0,1.364,2.117c1.364,1.015,2.414,3.979,2.414,3.979v2.711c0,.423.48,1.684-.559,1.819s-.161,2.668-.161,2.668-1.118,1.443-.88,2.117-.48,2.03-.48,2.03-.879,1.354-.8,1.609-.959,1.186-.72,1.778-1.2,1.354-.959,2.033S577.4,225.5,577.4,225.5l-3.457,8.468s7.273,1.684,9.15,5.925l9.168-17.78s5.118-13.291,5.279-14.138-1.12-3.895-1.12-3.895l-6.239-12.028-9.359-13.969S573.383,161.321,561.944,174.1Z" transform="translate(-513.801 -160.76)" opacity="0.1"/>
        <path id="Tracé_1255" data-name="Tracé 1255" d="M583.813,189.3s-11.236,4.174-5.318,8.408,6.48,3.808,6.48,3.808a6.627,6.627,0,0,0,0,1.27c.08.253,1.591.847,1.591.847a13.355,13.355,0,0,0,4.48,4.489,6.664,6.664,0,0,1,3.12,4.571,2.92,2.92,0,0,0,1.364,2.117c1.364,1.015,2.4,3.979,2.4,3.979V221.5c0,.423.48,1.684-.561,1.821s-.159,2.668-.159,2.668-1.12,1.443-.879,2.115-.48,2.033-.48,2.033-.879,1.354-.8,1.609-.961,1.186-.72,1.778-1.2,1.354-.959,2.033-1.025,1.015-1.025,1.015l-3.455,8.465s5.991.327,7.882,4.571l10.434-16.414s5.12-13.291,5.279-14.138-1.116-3.9-1.116-3.9l-6.239-12.028L590.9,194.435S595.252,176.518,583.813,189.3Z" transform="translate(-526.437 -172.459)" opacity="0.1"/>
        <path id="Tracé_1256" data-name="Tracé 1256" d="M564.764,174.107s-4.318,8.3,1.591,12.531,6.48,3.811,6.48,3.811a6.624,6.624,0,0,0,0,1.27c.08.255,1.591.844,1.591.844a13.354,13.354,0,0,0,4.48,4.489,6.663,6.663,0,0,1,3.12,4.571,2.92,2.92,0,0,0,1.364,2.117c1.364,1.015,2.411,3.979,2.411,3.979v2.711c0,.423.479,1.684-.561,1.819s-.159,2.668-.159,2.668-1.12,1.443-.879,2.117-.479,2.03-.479,2.03-.88,1.354-.8,1.609-.961,1.186-.721,1.778-1.2,1.354-.959,2.033-1.025,1.015-1.025,1.015l-3.455,8.468s7.259,1.684,9.148,5.925l9.168-17.78s5.121-13.291,5.28-14.138-1.12-3.895-1.12-3.895L593,192.051l-9.357-13.965S576.2,161.323,564.764,174.107Z" transform="translate(-515.979 -160.763)" fill="#7effcd"/>
        <g id="Groupe_3520" data-name="Groupe 3520" transform="translate(0.001 11.408)" opacity="0.1">
          <path id="Tracé_1257" data-name="Tracé 1257" d="M356.832,187.333a12.677,12.677,0,0,0-.636-3.079,13.608,13.608,0,0,1-.886-2.932v-.091a4.153,4.153,0,0,0,0,.77,13.732,13.732,0,0,0,.886,2.932,12.657,12.657,0,0,1,.636,3.077c.032.395.045.794.05,1.2C356.889,188.574,356.882,187.951,356.832,187.333Z" transform="translate(-355.291 -181.23)"/>
          <path id="Tracé_1258" data-name="Tracé 1258" d="M369.948,230.166c-.489,1.135-1.973,1.316-3.109.981a6.54,6.54,0,0,1-4.241-4.2,10.472,10.472,0,0,1-.455-3.2,11.614,11.614,0,0,0,.455,3.878,6.543,6.543,0,0,0,4.241,4.2c1.136.332,2.62.154,3.109-.984a3.871,3.871,0,0,0,.177-1.588A2.6,2.6,0,0,1,369.948,230.166Z" transform="translate(-360.585 -213.521)"/>
          <path id="Tracé_1259" data-name="Tracé 1259" d="M467.714,182.128c-.1.77-.386,1.636-1.08,1.893a1.615,1.615,0,0,1-1.211-.12c-1.136-.524-2.148-1.79-3.361-1.484-.991.241-1.466,1.427-1.727,2.471a6.418,6.418,0,0,0-.243,2.038,8.356,8.356,0,0,1,.243-1.362c.261-1.042.736-2.22,1.727-2.471,1.214-.3,2.216.962,3.361,1.484a1.606,1.606,0,0,0,1.211.123c.693-.257.982-1.123,1.08-1.9a9.26,9.26,0,0,0,.068-1.484C467.771,181.589,467.748,181.861,467.714,182.128Z" transform="translate(-436.269 -181.298)"/>
          <path id="Tracé_1260" data-name="Tracé 1260" d="M419.834,219.1c-.682.522-1.607-.034-2.355-.45a2.523,2.523,0,0,0-2.58-.209c-.261.173-.473.423-.727.609a2.5,2.5,0,0,1-1.755.385c-1.448-.156-1.989-1.126-3.091-1.876-.809-.551-2.5-.787-2.982.344a2.164,2.164,0,0,0-.093,1.042,1.414,1.414,0,0,1,.093-.363c.484-1.133,2.173-.9,2.982-.344,1.1.751,1.643,1.72,3.091,1.876a2.511,2.511,0,0,0,1.755-.387c.255-.183.466-.433.727-.606a2.528,2.528,0,0,1,2.58.209c.748.414,1.668.962,2.355.447a1.381,1.381,0,0,0,.407-1.374A1.122,1.122,0,0,1,419.834,219.1Z" transform="translate(-394.65 -208.472)"/>
          <path id="Tracé_1261" data-name="Tracé 1261" d="M399.26,229.179c-.311.755-1.268.962-1.709,1.643a3.062,3.062,0,0,0-.291,1.768,2.089,2.089,0,0,1,.291-1.09c.441-.681,1.4-.89,1.709-1.645a2.209,2.209,0,0,0,.086-1.025A1.423,1.423,0,0,1,399.26,229.179Z" transform="translate(-387.717 -217.379)"/>
        </g>
      </g>
    </g>
    <g id="Groupe_3597" data-name="Groupe 3597" transform="matrix(-0.719, 0.695, -0.695, -0.719, 69.259, 180.195)">
      <g id="Groupe_3591" data-name="Groupe 3591" transform="translate(0 0)" clip-path="url(#clip-path)">
        <path id="Tracé_1375" data-name="Tracé 1375" d="M9.267,6.64c.42.15.667.255.924.327,3.188.889,6.385,1.744,9.564,2.665,7.431,2.154,14.675,4.7,21.225,9,6.325,4.15,12.119,8.731,15.668,15.646A13.453,13.453,0,0,1,57.8,38.644a.958.958,0,0,1-.912,1.171c-.646.094-.974-.271-1.13-.85a20.467,20.467,0,0,0-5.225-9.085c-5.814-5.932-12.881-9.96-20.526-12.962C24.023,14.566,17.7,13.341,11.418,12.04c-.641-.133-1.292-.224-2.07-.357.136.24.161.339.224.387,2.351,1.777,3.561,4.418,5.129,6.785a1.383,1.383,0,0,1-.412,1.9,1.149,1.149,0,0,1-1.716-.3c-.435-.562-.782-1.193-1.218-1.754A27.8,27.8,0,0,0,8.9,15.709,32.99,32.99,0,0,0,1.339,10.5c-1.682-.9-1.779-2.437-.3-3.621,1.284-1.024,2.5-2.145,3.819-3.113A54.142,54.142,0,0,1,10.009.314a2.332,2.332,0,0,1,3.253,1.049c.608,1.041.3,2.155-.888,3.041-.979.732-1.983,1.43-3.107,2.236" transform="translate(0 0)" fill="#236c74"/>
      </g>
    </g>
  </g>
</svg>
