<svg id="Professionnel_de_l_Orientation" data-name="Professionnel de l&apos;Orientation" xmlns="http://www.w3.org/2000/svg" xmlns:xlink="http://www.w3.org/1999/xlink" width="209.597" height="265.479" viewBox="0 0 209.597 265.479">
  <defs>
    <clipPath id="clip-path">
      <rect id="Rectangle_1593" data-name="Rectangle 1593" width="53.149" height="36.613" fill="#b2ff00"/>
    </clipPath>
  </defs>
  <ellipse id="Ellipse_331" data-name="Ellipse 331" cx="52.5" cy="9.5" rx="52.5" ry="9.5" transform="translate(65.565 240.479)" fill="#063437" opacity="0.23"/>
  <g id="professionnel" transform="translate(16.565)">
    <g id="Groupe_3406" data-name="Groupe 3406">
      <g id="Tracé_1163" data-name="Tracé 1163" fill="#fff">
        <path d="M 96.51646423339844 192.5329437255859 C 90.00153350830078 192.5329437255859 83.49086761474609 191.8766326904297 77.16527557373047 190.5822296142578 C 71.00070190429688 189.3207702636719 64.93701171875 187.4384918212891 59.14267730712891 184.9877014160156 C 53.45341491699219 182.5813446044922 47.96608352661133 179.6029205322266 42.83310699462891 176.1351318359375 C 37.74874877929688 172.7002258300781 32.96763229370117 168.7554473876953 28.62258338928223 164.4103698730469 C 24.27751159667969 160.0652923583984 20.33272552490234 155.2841949462891 16.8978214263916 150.1998443603516 C 13.43003559112549 145.0668640136719 10.45160675048828 139.5795288085938 8.045249938964844 133.8902740478516 C 5.594464302062988 128.0959167480469 3.712178468704224 122.0322494506836 2.45072603225708 115.86767578125 C 1.156321406364441 109.5420837402344 0.5000118613243103 103.0313949584961 0.5000118613243103 96.51646423339844 C 0.5000118613243103 90.00153350830078 1.156321406364441 83.49086761474609 2.45072603225708 77.16527557373047 C 3.712178468704224 71.00070190429688 5.594464302062988 64.93701171875 8.045249938964844 59.14267730712891 C 10.45160675048828 53.45341491699219 13.43003559112549 47.96608352661133 16.8978214263916 42.83310699462891 C 20.33272552490234 37.74874877929688 24.27751159667969 32.96763229370117 28.62258338928223 28.62258338928223 C 32.96763229370117 24.27751159667969 37.74874877929688 20.33272552490234 42.83310699462891 16.8978214263916 C 47.96608352661133 13.43003559112549 53.45341491699219 10.45160675048828 59.14267730712891 8.045249938964844 C 64.93701171875 5.594464302062988 71.00070190429688 3.712178468704224 77.16527557373047 2.45072603225708 C 83.49086761474609 1.156321406364441 90.00153350830078 0.5000118613243103 96.51646423339844 0.5000118613243103 C 103.0313949584961 0.5000118613243103 109.5420837402344 1.156321406364441 115.86767578125 2.45072603225708 C 122.0322494506836 3.712178468704224 128.0959167480469 5.594464302062988 133.8902740478516 8.045249938964844 C 139.5795288085938 10.45160675048828 145.0668640136719 13.43003559112549 150.1998443603516 16.8978214263916 C 155.2841949462891 20.33272552490234 160.0652923583984 24.27751159667969 164.4103698730469 28.62258338928223 C 168.7554473876953 32.96763229370117 172.7002258300781 37.74874877929688 176.1351318359375 42.83310699462891 C 179.6029205322266 47.96608352661133 182.5813446044922 53.45341491699219 184.9877014160156 59.14267730712891 C 187.4384918212891 64.93701171875 189.3207702636719 71.00070190429688 190.5822296142578 77.16527557373047 C 191.8766326904297 83.49086761474609 192.5329437255859 90.00153350830078 192.5329437255859 96.51646423339844 C 192.5329437255859 103.0313949584961 191.8766326904297 109.5420837402344 190.5822296142578 115.86767578125 C 189.3207702636719 122.0322494506836 187.4384918212891 128.0959167480469 184.9877014160156 133.8902740478516 C 182.5813446044922 139.5795288085938 179.6029205322266 145.0668640136719 176.1351318359375 150.1998443603516 C 172.7002258300781 155.2841949462891 168.7554473876953 160.0652923583984 164.4103698730469 164.4103698730469 C 160.0652923583984 168.7554473876953 155.2841949462891 172.7002258300781 150.1998443603516 176.1351318359375 C 145.0668640136719 179.6029205322266 139.5795288085938 182.5813446044922 133.8902740478516 184.9877014160156 C 128.0959167480469 187.4384918212891 122.0322494506836 189.3207702636719 115.86767578125 190.5822296142578 C 109.5420837402344 191.8766326904297 103.0313949584961 192.5329437255859 96.51646423339844 192.5329437255859 Z" stroke="none"/>
        <path d="M 96.51646423339844 0.9999847412109375 C 90.03514099121094 0.9999847412109375 83.55818939208984 1.65289306640625 77.26551055908203 2.940567016601562 C 71.13326263427734 4.195388793945312 65.10138702392578 6.067794799804688 59.33743286132812 8.5057373046875 C 53.67791748046875 10.89952087402344 48.21920776367188 13.86241149902344 43.11299133300781 17.31211853027344 C 38.05500793457031 20.72921752929688 33.29869079589844 24.653564453125 28.97611999511719 28.97611999511719 C 24.653564453125 33.29869079589844 20.72921752929688 38.05500793457031 17.31211853027344 43.11299133300781 C 13.86241149902344 48.21920776367188 10.89952087402344 53.67791748046875 8.5057373046875 59.33743286132812 C 6.067794799804688 65.10138702392578 4.195388793945312 71.13326263427734 2.940567016601562 77.26551055908203 C 1.65289306640625 83.55818939208984 0.9999847412109375 90.03514099121094 0.9999847412109375 96.51646423339844 C 0.9999847412109375 102.9977874755859 1.65289306640625 109.474739074707 2.940567016601562 115.7674179077148 C 4.195388793945312 121.8996658325195 6.067794799804688 127.9315414428711 8.5057373046875 133.6954650878906 C 10.89952087402344 139.35498046875 13.86241149902344 144.8136901855469 17.31211853027344 149.9199371337891 C 20.72921752929688 154.9779052734375 24.653564453125 159.7342376708984 28.97611999511719 164.0567932128906 C 33.29869079589844 168.3793640136719 38.05500793457031 172.3036956787109 43.11299133300781 175.7207946777344 C 48.21920776367188 179.1705169677734 53.67791748046875 182.1333923339844 59.33743286132812 184.5271606445312 C 65.10138702392578 186.9651184082031 71.13326263427734 188.8375091552734 77.26551055908203 190.0923461914062 C 83.55818939208984 191.3800201416016 90.03514099121094 192.0329132080078 96.51646423339844 192.0329132080078 C 102.9977874755859 192.0329132080078 109.474739074707 191.3800201416016 115.7674179077148 190.0923461914062 C 121.8996658325195 188.8375091552734 127.9315414428711 186.9651184082031 133.6954650878906 184.5271606445312 C 139.35498046875 182.1333923339844 144.8136901855469 179.1705169677734 149.9199371337891 175.7207946777344 C 154.9779052734375 172.3036956787109 159.7342376708984 168.3793640136719 164.0567932128906 164.0567932128906 C 168.3793640136719 159.7342376708984 172.3036956787109 154.9779052734375 175.7207946777344 149.9199371337891 C 179.1705169677734 144.8136901855469 182.1333923339844 139.35498046875 184.5271606445312 133.6954650878906 C 186.9651184082031 127.9315414428711 188.8375091552734 121.8996658325195 190.0923461914062 115.7674179077148 C 191.3800201416016 109.474739074707 192.0329132080078 102.9977874755859 192.0329132080078 96.51646423339844 C 192.0329132080078 90.03514099121094 191.3800201416016 83.55818939208984 190.0923461914062 77.26551055908203 C 188.8375091552734 71.13326263427734 186.9651184082031 65.10138702392578 184.5271606445312 59.33743286132812 C 182.1333923339844 53.67791748046875 179.1705169677734 48.21920776367188 175.7207946777344 43.11299133300781 C 172.3036956787109 38.05500793457031 168.3793640136719 33.29869079589844 164.0567932128906 28.97611999511719 C 159.7342376708984 24.653564453125 154.9779052734375 20.72921752929688 149.9199371337891 17.31211853027344 C 144.8136901855469 13.86241149902344 139.35498046875 10.89952087402344 133.6954650878906 8.5057373046875 C 127.9315414428711 6.067794799804688 121.8996658325195 4.195388793945312 115.7674179077148 2.940567016601562 C 109.474739074707 1.65289306640625 102.9977874755859 0.9999847412109375 96.51646423339844 0.9999847412109375 M 96.51646423339844 -1.52587890625e-05 C 149.821044921875 -1.52587890625e-05 193.0329132080078 43.21188354492188 193.0329132080078 96.51646423339844 C 193.0329132080078 149.821044921875 149.821044921875 193.0329132080078 96.51646423339844 193.0329132080078 C 43.21188354492188 193.0329132080078 -1.52587890625e-05 149.821044921875 -1.52587890625e-05 96.51646423339844 C -1.52587890625e-05 43.21188354492188 43.21188354492188 -1.52587890625e-05 96.51646423339844 -1.52587890625e-05 Z" stroke="none" fill="#d3d3d3"/>
      </g>
      <g id="Groupe_3518" data-name="Groupe 3518" transform="translate(23.231 96.754)">
        <circle id="Ellipse_257" data-name="Ellipse 257" cx="8.105" cy="8.105" r="8.105" transform="translate(0 0.417)" fill="#2f2e41"/>
        <path id="Tracé_950" data-name="Tracé 950" d="M68.366,481.648l-4.082-3.968-8.2,2.546.787,9.492,16.855-.783L68.55,481.9Z" transform="translate(-30.882 -449.066)" fill="#fbbebe"/>
        <circle id="Ellipse_258" data-name="Ellipse 258" cx="13.103" cy="13.103" r="13.103" transform="translate(15.452 6.294)" fill="#fbbebe"/>
        <path id="Tracé_951" data-name="Tracé 951" d="M393.73,617.061s16.1,27.664,19.929,31.817a69.574,69.574,0,0,0,5.813,5.793s-1.8,5.974-4.67,5.761a13.5,13.5,0,0,1-4.732-1.166s-1.28-3.319-3.513-4.774-20.478-19.4-20.052-25.141S393.73,617.061,393.73,617.061Z" transform="translate(-283.83 -567.661)" fill="#2f2e41"/>
        <path id="Tracé_952" data-name="Tracé 952" d="M275.023,683.148s17.164,13.322,40.489.8l2.01-1.479s-3.392,7.632-3.707,9.7c-.365,2.4-9.2,16.452-10.638,17.126a3.737,3.737,0,0,0-1.759,1.294l6.116,6.732,2.261-1.664s8.818-12.493,11.4-14.779,14.867-25.854,14.867-25.854,4.7-8.88-7.027-9.548-17.12,2.528-17.12,2.528L291.1,671.314Z" transform="translate(-222.451 -594.27)" fill="#2f2e41"/>
        <path id="Tracé_953" data-name="Tracé 953" d="M445.17,697.841l8.681,6.007s11.075,3.47,4.253,5.779-24.8,3.145-25.209-.042.709-8.2,1.606-7.927S441.624,703.55,445.17,697.841Z" transform="translate(-309.33 -612.139)" fill="#2f2e41"/>
        <path id="Tracé_954" data-name="Tracé 954" d="M336.228,767.467l1.607,8.824s4.569,8.738-.917,6.027-16.788-13.01-15.119-15.169,5.353-4.5,5.727-3.8S330.668,768.766,336.228,767.467Z" transform="translate(-248.115 -648.14)" fill="#2f2e41"/>
        <path id="Tracé_955" data-name="Tracé 955" d="M253.848,623.743s-11.667,13.622-18.751,10.313-36.063-41.635-32.754-48.718,4.418-5.576,4.418-5.576l14.963,1.384-4.305-6.9a2.912,2.912,0,0,1,3.926.6c1.915,2.076,9.606,7.263,12.285,14.588s10.545,6.959,10.545,6.959l6.962,19.688Z" transform="translate(-182.289 -543.804)" fill="#95e0e3"/>
        <path id="Tracé_956" data-name="Tracé 956" d="M217.106,491l-20.225,21.469-18.118-31.988,17.224-20.81Z" transform="translate(-98.43 -439.152)" fill="#3f3d56"/>
        <path id="Tracé_957" data-name="Tracé 957" d="M218.026,492.949l-18.267,18.866-16.553-29.072,15.18-19.112Z" transform="translate(-100.876 -441.33)" fill="#fff"/>
        <path id="Tracé_958" data-name="Tracé 958" d="M182.332,575.336l.991.82-.635,1.242-28.281,8.417-.267-.969,1.287-1.331Z" transform="translate(-84.872 -502.836)" fill="#b3b3b3"/>
        <path id="Tracé_959" data-name="Tracé 959" d="M161.884,537.784,132.6,546.94l-17.852-33.732,28.769-7.227Z" transform="translate(-63.182 -464.649)" fill="#d0cde1"/>
        <path id="Tracé_960" data-name="Tracé 960" d="M196.108,537.211l-1.257.924-13.945-24.212,1.441-.673Z" transform="translate(-99.61 -468.651)" fill="#3f3d56"/>
        <path id="Tracé_961" data-name="Tracé 961" d="M175.909,540.126,163.52,543.82l-14.063-24.9,12.256-2.821Z" transform="translate(-82.293 -470.22)" fill="#3f3d56"/>
        <path id="Tracé_962" data-name="Tracé 962" d="M286.763,620.346l2.565-.726s14.3-1.617,14.513,2.877-16.433,2.409-16.433,2.409l-2.219-3.015Z" transform="translate(-228.049 -568.914)" fill="#fbbebe"/>
        <path id="Tracé_963" data-name="Tracé 963" d="M312.694,653.777l3.57-1.465s10.776-4.832,7.685-7.98-12.626,2.319-12.626,2.319l-1.825,1.731Z" transform="translate(-241.434 -582.139)" fill="#fbbebe"/>
        <path id="Tracé_964" data-name="Tracé 964" d="M251.195,630.4s5.813,5.793,4.49,7.154-23.013,19.26-28.389,13.533-31.573-34.481-21.38-36.947,12.887,3.3,12.887,3.3l13.456,23.023Z" transform="translate(-183.116 -565.712)" fill="#95e0e3"/>
        <path id="Tracé_965" data-name="Tracé 965" d="M111.9,518.781l9.549,3.238-.156,6.894-10.1-1.09Z" transform="translate(-61.224 -471.697)" fill="#95e0e3"/>
        <path id="Tracé_966" data-name="Tracé 966" d="M104.907,551.116l-10.288,6.022L82.865,539.06l11.346,14.891Z" transform="translate(-45.627 -482.862)" opacity="0.2"/>
        <circle id="Ellipse_259" data-name="Ellipse 259" cx="15.599" cy="15.599" r="15.599" transform="translate(7.205)" fill="#2f2e41"/>
        <path id="Tracé_967" data-name="Tracé 967" d="M224.917,505.818,213.995,489.84l4.63-5.732,11.349,16.439Z" transform="translate(-117.829 -452.605)" fill="#02afc5"/>
        <path id="Tracé_968" data-name="Tracé 968" d="M217.241,515.879,200.613,491.7l.82-.991,16.551,24.231Z" transform="translate(-110.46 -456.243)" fill="#e6e6e6"/>
        <path id="Tracé_969" data-name="Tracé 969" d="M212.473,521.112l-16.628-24.174.82-.991,16.551,24.232Z" transform="translate(-107.835 -459.124)" fill="#e6e6e6"/>
        <path id="Tracé_970" data-name="Tracé 970" d="M208.411,524.963l-16.628-24.174.82-.991,16.551,24.232Z" transform="translate(-105.598 -461.244)" fill="#e6e6e6"/>
        <path id="Tracé_971" data-name="Tracé 971" d="M66.117,425.544h4.826a9.212,9.212,0,0,1,9.212,9.212H66.117Z" transform="translate(-36.405 -420.359)" fill="#2f2e41"/>
      </g>
    </g>
  </g>
  <g id="Groupe_3599" data-name="Groupe 3599" transform="translate(64.515 163.923) rotate(147)">
    <g id="Groupe_3591" data-name="Groupe 3591" transform="translate(0 0)" clip-path="url(#clip-path)">
      <path id="Tracé_1375" data-name="Tracé 1375" d="M8.519,6.1c.386.138.613.235.85.3,2.93.818,5.87,1.6,8.791,2.45,6.831,1.98,13.489,4.323,19.511,8.274,5.814,3.815,11.14,8.026,14.4,14.383a12.366,12.366,0,0,1,1.061,4.011A.881.881,0,0,1,52.3,36.6c-.594.087-.895-.249-1.039-.782a18.814,18.814,0,0,0-4.8-8.351c-5.344-5.453-11.84-9.156-18.868-11.916-5.5-2.161-11.314-3.287-17.09-4.483-.59-.122-1.187-.206-1.9-.328.125.22.148.312.206.355,2.161,1.633,3.273,4.061,4.715,6.237a1.272,1.272,0,0,1-.379,1.743,1.057,1.057,0,0,1-1.577-.272c-.4-.517-.719-1.1-1.12-1.612A25.555,25.555,0,0,0,8.177,14.44,30.326,30.326,0,0,0,1.231,9.648C-.315,8.823-.4,7.407.96,6.32,2.14,5.378,3.254,4.348,4.47,3.458A49.769,49.769,0,0,1,9.2.288a2.144,2.144,0,0,1,2.991.964,2.039,2.039,0,0,1-.816,2.8c-.9.673-1.823,1.314-2.856,2.056" transform="translate(0 0)" fill="#b2ff00"/>
    </g>
  </g>
</svg>
