<?xml version="1.0" encoding="UTF-8"?>
<!-- Generator: Adobe Illustrator 16.0.0, SVG Export Plug-In . SVG Version: 6.00 Build 0)  -->
<!DOCTYPE svg PUBLIC "-//W3C//DTD SVG 1.1//EN" "http://www.w3.org/Graphics/SVG/1.1/DTD/svg11.dtd">
<svg version="1.1" id="Calque_1" xmlns="http://www.w3.org/2000/svg" xmlns:xlink="http://www.w3.org/1999/xlink" x="0px" y="0px" width="223.2px" height="45px" viewBox="0 0 223.2 45" enable-background="new 0 0 223.2 45" xml:space="preserve">
<g>
	<path fill="#3C7FC1" d="M22.599,42.199c11.047,0,20-8.955,20-20c0-11.047-8.953-20-20-20c-11.046,0-20,8.953-20,20   C2.599,33.244,11.553,42.199,22.599,42.199"/>
	<path fill="#FFFFFF" d="M20.155,30.53c-0.211,0-0.373,0.019-0.483,0.057c-0.11,0.04-0.228,0.109-0.349,0.211l-0.117-0.117   c0.088-0.124,0.156-0.242,0.2-0.359c0.043-0.116,0.065-0.275,0.065-0.476v-5.211c0-0.165-0.022-0.313-0.065-0.44   c-0.044-0.126-0.112-0.251-0.2-0.375l0.133-0.133c0.122,0.099,0.234,0.166,0.333,0.2c0.101,0.033,0.261,0.057,0.483,0.065h7.977   v-3.58h-7.977c-0.2,0-0.352,0.016-0.457,0.05c-0.106,0.033-0.23,0.106-0.375,0.215l-0.134-0.133   c0.112-0.166,0.188-0.305,0.226-0.416s0.058-0.245,0.058-0.4v-4.811c0-0.167-0.022-0.314-0.065-0.442   c-0.044-0.128-0.112-0.258-0.2-0.392l0.117-0.133c0.167,0.113,0.308,0.186,0.424,0.227c0.117,0.038,0.253,0.058,0.408,0.058h9.125   l-0.4-3.647H15.677v23.626h13.169l0.434-3.646H20.155z"/>
</g>
<g>
	<path fill="#1D1D1B" d="M63.577,28.946l-0.244,2.053h-7.416V17.696h7.435l0.225,2.053H58.44c-0.087,0-0.164-0.011-0.23-0.033   c-0.065-0.022-0.145-0.064-0.239-0.126l-0.066,0.075c0.05,0.075,0.088,0.148,0.113,0.22s0.038,0.155,0.038,0.249v2.709   c0,0.088-0.011,0.163-0.033,0.225c-0.021,0.063-0.064,0.141-0.126,0.234l0.075,0.075c0.081-0.063,0.151-0.103,0.211-0.122   c0.059-0.019,0.145-0.028,0.258-0.028h4.491v2.016H58.44c-0.125-0.007-0.216-0.019-0.272-0.038   c-0.056-0.019-0.119-0.056-0.188-0.112l-0.075,0.075c0.05,0.068,0.088,0.139,0.113,0.211s0.038,0.154,0.038,0.248v2.935   c0,0.112-0.013,0.202-0.038,0.268s-0.063,0.133-0.113,0.201l0.066,0.065c0.069-0.056,0.134-0.095,0.197-0.117   c0.063-0.021,0.153-0.032,0.272-0.032H63.577z"/>
</g>
<g>
	<path fill="#1D1D1B" d="M77.077,30.999h-1.959l-5.869-8.578c-0.25-0.362-0.442-0.684-0.576-0.965   c-0.135-0.281-0.308-0.722-0.521-1.322l-0.094,0.019c0.163,0.719,0.271,1.253,0.323,1.603c0.053,0.35,0.08,0.7,0.08,1.05v8.193   h-2.119V17.696h1.959l5.878,8.56c0.225,0.331,0.42,0.672,0.586,1.021c0.166,0.35,0.336,0.778,0.511,1.284l0.094-0.019   c-0.144-0.581-0.247-1.076-0.31-1.486c-0.063-0.409-0.094-0.805-0.094-1.186v-8.175h2.109V30.999z"/>
	<path fill="#1D1D1B" d="M88.147,27.483c0,1.169-0.366,2.089-1.097,2.761c-0.731,0.672-1.725,1.008-2.981,1.008   c-0.844,0-1.597-0.144-2.259-0.431c-0.663-0.288-1.322-0.76-1.979-1.416l-0.141-0.131l1.444-1.481   c0.538,0.575,1.025,0.981,1.462,1.219s0.916,0.356,1.435,0.356c0.625,0,1.117-0.166,1.477-0.497s0.539-0.781,0.539-1.35   c0-0.463-0.136-0.872-0.408-1.229s-0.833-0.76-1.683-1.209l-0.328-0.169c-0.681-0.362-1.244-0.7-1.688-1.013   c-0.443-0.313-0.797-0.622-1.059-0.928c-0.244-0.288-0.425-0.606-0.544-0.956s-0.178-0.741-0.178-1.172   c0-1.05,0.339-1.88,1.018-2.489c0.678-0.609,1.598-0.914,2.761-0.914c0.7,0,1.354,0.122,1.964,0.366s1.146,0.597,1.608,1.06   l0.15,0.15l-1.472,1.387c-0.319-0.387-0.656-0.667-1.013-0.839c-0.356-0.172-0.769-0.258-1.237-0.258   c-0.569,0-0.995,0.124-1.28,0.37c-0.284,0.247-0.426,0.614-0.426,1.102c0,0.4,0.129,0.734,0.389,1.003   c0.26,0.269,0.771,0.6,1.533,0.994l0.318,0.178c1.444,0.762,2.417,1.458,2.92,2.085C87.896,25.669,88.147,26.483,88.147,27.483z"/>
	<path fill="#1D1D1B" d="M98.467,28.946l-0.244,2.053h-7.416V17.696h7.435l0.225,2.053H93.33c-0.087,0-0.164-0.011-0.229-0.033   c-0.066-0.022-0.146-0.064-0.239-0.126l-0.065,0.075c0.05,0.075,0.087,0.148,0.112,0.22s0.038,0.155,0.038,0.249v2.709   c0,0.088-0.011,0.163-0.033,0.225s-0.064,0.141-0.126,0.234l0.075,0.075c0.082-0.063,0.152-0.103,0.211-0.122   c0.06-0.019,0.146-0.028,0.258-0.028h4.491v2.016H93.33c-0.125-0.007-0.215-0.019-0.272-0.038   c-0.056-0.019-0.119-0.056-0.188-0.112l-0.075,0.075c0.05,0.068,0.087,0.139,0.112,0.211s0.038,0.154,0.038,0.248v2.935   c0,0.112-0.013,0.202-0.038,0.268s-0.063,0.133-0.112,0.201l0.065,0.065c0.069-0.056,0.134-0.095,0.197-0.117   c0.063-0.021,0.153-0.032,0.272-0.032H98.467z"/>
	<path fill="#1D1D1B" d="M103.612,30.999h-2.184V17.677h2.184V30.999z"/>
	<path fill="#1D1D1B" d="M119.267,28.214c-0.338,0.775-1.05,1.481-2.138,2.119c-1.087,0.637-2.272,0.956-3.553,0.956   c-2.025,0-3.719-0.663-5.081-1.987c-1.363-1.325-2.044-3-2.044-5.025c0-2,0.675-3.646,2.025-4.936   c1.35-1.291,3.025-1.936,5.025-1.936c1.162,0,2.217,0.224,3.164,0.67c0.947,0.447,1.767,1.108,2.461,1.983l-1.575,1.322   c-0.481-0.65-1.064-1.142-1.749-1.477c-0.684-0.334-1.452-0.501-2.301-0.501c-1.406,0-2.57,0.455-3.492,1.364   c-0.922,0.909-1.383,2.061-1.383,3.454c0,1.444,0.47,2.65,1.411,3.619c0.941,0.969,2.114,1.453,3.521,1.453   c0.793,0,1.548-0.169,2.264-0.506c0.715-0.338,1.205-0.754,1.467-1.247v-1.96c0-0.087,0.01-0.162,0.028-0.225   s0.06-0.141,0.122-0.234l-0.075-0.075c-0.081,0.063-0.151,0.104-0.211,0.127c-0.06,0.021-0.142,0.032-0.249,0.032h-2.84   l0.516-1.903h4.688V28.214z"/>
	<path fill="#1D1D1B" d="M132.857,30.999h-1.959l-5.869-8.578c-0.25-0.362-0.441-0.684-0.576-0.965s-0.308-0.722-0.521-1.322   l-0.094,0.019c0.163,0.719,0.271,1.253,0.323,1.603c0.054,0.35,0.08,0.7,0.08,1.05v8.193h-2.119V17.696h1.96l5.878,8.56   c0.225,0.331,0.42,0.672,0.586,1.021s0.336,0.778,0.511,1.284l0.094-0.019c-0.144-0.581-0.247-1.076-0.31-1.486   c-0.063-0.409-0.094-0.805-0.094-1.186v-8.175h2.109V30.999z"/>
	<path fill="#1D1D1B" d="M143.898,28.946l-0.244,2.053h-7.415V17.696h7.435l0.225,2.053h-5.138c-0.087,0-0.162-0.011-0.228-0.033   c-0.066-0.022-0.147-0.064-0.241-0.126l-0.065,0.075c0.05,0.075,0.088,0.148,0.112,0.22c0.025,0.072,0.038,0.155,0.038,0.249v2.709   c0,0.088-0.01,0.163-0.031,0.225c-0.022,0.063-0.066,0.141-0.129,0.234l0.075,0.075c0.081-0.063,0.153-0.103,0.213-0.122   c0.06-0.019,0.144-0.028,0.256-0.028h4.491v2.016h-4.491c-0.125-0.007-0.216-0.019-0.271-0.038   c-0.057-0.019-0.119-0.056-0.188-0.112l-0.075,0.075c0.05,0.068,0.088,0.139,0.112,0.211c0.025,0.072,0.038,0.154,0.038,0.248   v2.935c0,0.112-0.013,0.202-0.038,0.268c-0.024,0.065-0.063,0.133-0.112,0.201l0.065,0.065c0.069-0.056,0.135-0.095,0.197-0.117   c0.063-0.021,0.153-0.032,0.271-0.032H143.898z"/>
	<path fill="#1D1D1B" d="M159.724,30.999h-2.109v-8.156c0-0.443,0.112-1.144,0.337-2.1c0.057-0.244,0.104-0.441,0.141-0.591   l-0.094-0.038l-0.009,0.019c-0.394,1.131-0.744,1.956-1.05,2.475l-3.723,6.432l-3.75-6.432c-0.188-0.325-0.359-0.673-0.512-1.045   c-0.153-0.372-0.325-0.855-0.52-1.449l-0.103,0.038c0.162,0.656,0.274,1.18,0.337,1.57s0.094,0.764,0.094,1.12v8.156h-2.081V17.696   h1.979l3.956,6.778c0.2,0.337,0.331,0.6,0.396,0.787c0.066,0.188,0.116,0.469,0.147,0.844l0.094-0.01   c0.031-0.375,0.078-0.654,0.141-0.839s0.193-0.445,0.394-0.782l3.975-6.778h1.96V30.999z"/>
	<path fill="#1D1D1B" d="M170.773,28.946l-0.244,2.053h-7.415V17.696h7.435l0.225,2.053h-5.138c-0.087,0-0.162-0.011-0.228-0.033   c-0.066-0.022-0.147-0.064-0.241-0.126l-0.065,0.075c0.05,0.075,0.088,0.148,0.112,0.22c0.025,0.072,0.038,0.155,0.038,0.249v2.709   c0,0.088-0.01,0.163-0.031,0.225c-0.022,0.063-0.066,0.141-0.129,0.234l0.075,0.075c0.081-0.063,0.153-0.103,0.213-0.122   c0.06-0.019,0.144-0.028,0.256-0.028h4.491v2.016h-4.491c-0.125-0.007-0.216-0.019-0.271-0.038   c-0.057-0.019-0.119-0.056-0.188-0.112l-0.075,0.075c0.05,0.068,0.088,0.139,0.112,0.211c0.025,0.072,0.038,0.154,0.038,0.248   v2.935c0,0.112-0.013,0.202-0.038,0.268c-0.024,0.065-0.063,0.133-0.112,0.201l0.065,0.065c0.069-0.056,0.135-0.095,0.197-0.117   c0.063-0.021,0.153-0.032,0.271-0.032H170.773z"/>
	<path fill="#1D1D1B" d="M184.292,30.999h-1.959l-5.869-8.578c-0.25-0.362-0.443-0.684-0.578-0.965   c-0.134-0.281-0.306-0.722-0.519-1.322l-0.094,0.019c0.162,0.719,0.269,1.253,0.322,1.603c0.053,0.35,0.081,0.7,0.081,1.05v8.193   h-2.119V17.696h1.96l5.878,8.56c0.225,0.331,0.419,0.672,0.584,1.021c0.166,0.35,0.338,0.778,0.513,1.284l0.094-0.019   c-0.144-0.581-0.247-1.076-0.31-1.486c-0.063-0.409-0.094-0.805-0.094-1.186v-8.175h2.109V30.999z"/>
	<path fill="#1D1D1B" d="M195.014,19.692h-2.766c-0.112,0-0.196-0.011-0.253-0.033c-0.056-0.022-0.125-0.064-0.206-0.126   l-0.075,0.075c0.057,0.082,0.096,0.155,0.117,0.221c0.022,0.065,0.033,0.148,0.033,0.248v10.922h-2.156V20.077   c0-0.087,0.009-0.161,0.028-0.22c0.019-0.059,0.063-0.139,0.131-0.239l-0.084-0.075c-0.063,0.056-0.125,0.095-0.188,0.117   s-0.153,0.033-0.272,0.033h-2.756l0.281-1.997h7.875L195.014,19.692z"/>
	<path fill="#1D1D1B" d="M198.982,30.999h-2.568V27.98h2.568V30.999z"/>
	<path fill="#1D1D1B" d="M211.045,27.024c0,1.169-0.402,2.123-1.209,2.864c-0.807,0.74-1.928,1.11-3.365,1.11h-3.994V17.696h3.713   c1.412,0,2.48,0.298,3.206,0.895c0.725,0.597,1.087,1.461,1.087,2.592c0,0.706-0.159,1.276-0.478,1.711   c-0.319,0.435-0.807,0.749-1.463,0.942v0.112c0.781,0.144,1.394,0.489,1.838,1.036C210.823,25.532,211.045,26.211,211.045,27.024z    M208.505,21.286c0-0.6-0.172-1.042-0.516-1.327c-0.344-0.284-0.9-0.426-1.669-0.426h-1.463c-0.118,0-0.206-0.009-0.262-0.028   c-0.057-0.019-0.122-0.059-0.197-0.122l-0.075,0.075c0.063,0.1,0.106,0.18,0.128,0.239c0.022,0.059,0.035,0.133,0.041,0.22v2.859   c0,0.138-0.047,0.278-0.141,0.422c-0.013,0.019-0.021,0.034-0.028,0.047l0.075,0.075c0.081-0.063,0.15-0.105,0.206-0.127   c0.057-0.021,0.141-0.033,0.253-0.033h1.716c0.619,0,1.097-0.161,1.432-0.483C208.339,22.356,208.505,21.893,208.505,21.286z    M209.029,26.967c0-0.269-0.05-0.529-0.149-0.782c-0.101-0.254-0.237-0.474-0.413-0.661c-0.212-0.226-0.462-0.383-0.75-0.474   c-0.287-0.091-0.668-0.136-1.144-0.136h-1.696c-0.113,0-0.197-0.011-0.254-0.033c-0.056-0.021-0.125-0.063-0.206-0.126   l-0.075,0.084c0.069,0.1,0.113,0.178,0.129,0.234s0.021,0.131,0.021,0.225v3.432c0,0.119-0.006,0.203-0.021,0.253   s-0.06,0.119-0.129,0.206l0.075,0.085c0.081-0.063,0.15-0.104,0.206-0.127c0.057-0.021,0.141-0.032,0.254-0.032h1.771   c0.75,0,1.334-0.189,1.753-0.567S209.029,27.642,209.029,26.967z"/>
	<path fill="#1D1D1B" d="M221.328,28.946l-0.244,2.053h-7.415V17.696h7.435l0.225,2.053h-5.138c-0.087,0-0.164-0.011-0.229-0.033   s-0.146-0.064-0.239-0.126l-0.065,0.075c0.05,0.075,0.088,0.148,0.112,0.22c0.025,0.072,0.038,0.155,0.038,0.249v2.709   c0,0.088-0.012,0.163-0.033,0.225s-0.064,0.141-0.127,0.234l0.075,0.075c0.081-0.063,0.151-0.103,0.211-0.122   c0.06-0.019,0.146-0.028,0.258-0.028h4.491v2.016h-4.491c-0.125-0.007-0.216-0.019-0.271-0.038   c-0.057-0.019-0.119-0.056-0.188-0.112l-0.075,0.075c0.05,0.068,0.088,0.139,0.112,0.211c0.025,0.072,0.038,0.154,0.038,0.248   v2.935c0,0.112-0.013,0.202-0.038,0.268c-0.024,0.065-0.063,0.133-0.112,0.201l0.065,0.065c0.069-0.056,0.135-0.095,0.197-0.117   c0.063-0.021,0.153-0.032,0.271-0.032H221.328z"/>
</g>
</svg>