<?xml version="1.0" encoding="UTF-8"?>
<!-- Generator: Adobe Illustrator 16.0.0, SVG Export Plug-In . SVG Version: 6.00 Build 0)  -->
<!DOCTYPE svg PUBLIC "-//W3C//DTD SVG 1.1//EN" "http://www.w3.org/Graphics/SVG/1.1/DTD/svg11.dtd">
<svg version="1.1" id="Calque_1" xmlns="http://www.w3.org/2000/svg" xmlns:xlink="http://www.w3.org/1999/xlink" x="0px" y="0px" width="162.899px" height="25px" viewBox="0 4.938 162.899 25" enable-background="new 0 4.938 162.899 25" xml:space="preserve">
<g>
	<path fill="#AA398C" d="M12.99,29.938c6.904,0,12.5-5.596,12.5-12.5c0-6.903-5.596-12.5-12.5-12.5s-12.5,5.597-12.5,12.5   C0.49,24.342,6.086,29.938,12.99,29.938"/>
	<path fill="#1D1D1B" d="M41.976,22.938h-1.318V17.84c0-0.277,0.07-0.715,0.211-1.313c0.035-0.152,0.064-0.275,0.087-0.368   l-0.058-0.024l-0.006,0.012c-0.246,0.707-0.465,1.224-0.656,1.547l-2.326,4.02l-2.344-4.02c-0.117-0.203-0.224-0.42-0.319-0.652   c-0.096-0.232-0.205-0.535-0.326-0.906l-0.064,0.024c0.101,0.409,0.172,0.737,0.211,0.981c0.039,0.243,0.058,0.478,0.058,0.699   v5.098h-1.3v-8.313h1.236l2.473,4.235c0.125,0.211,0.208,0.375,0.249,0.492s0.071,0.293,0.09,0.527l0.059-0.006   c0.02-0.234,0.049-0.408,0.088-0.523s0.121-0.279,0.246-0.49l2.484-4.235h1.225V22.938z"/>
	<path fill="#1D1D1B" d="M50.518,22.938h-1.365l-0.879-2.496h-2.736l-0.885,2.496h-1.371l3.023-8.314h1.19L50.518,22.938z    M47.987,19.217c-0.039-0.027-0.069-0.055-0.091-0.082c-0.021-0.027-0.04-0.064-0.055-0.111l-0.78-2.279   c-0.035-0.097-0.063-0.234-0.085-0.413c-0.021-0.177-0.036-0.38-0.044-0.606h-0.064c-0.008,0.227-0.023,0.43-0.044,0.606   c-0.022,0.179-0.05,0.316-0.085,0.413l-0.791,2.279c-0.016,0.047-0.033,0.084-0.053,0.111c-0.019,0.027-0.047,0.055-0.082,0.082   l0.041,0.059c0.055-0.02,0.099-0.031,0.132-0.037s0.075-0.01,0.126-0.01h1.576c0.055,0,0.102,0.004,0.141,0.012   c0.039,0.008,0.08,0.02,0.123,0.035L47.987,19.217z"/>
	<rect x="51.935" y="14.612" fill="#1D1D1B" width="1.365" height="8.326"/>
	<path fill="#1D1D1B" d="M60.336,20.74c0,0.73-0.229,1.307-0.687,1.727s-1.078,0.629-1.862,0.629c-0.527,0-0.998-0.09-1.412-0.27   s-0.826-0.475-1.236-0.885l-0.088-0.082l0.902-0.926c0.336,0.359,0.641,0.613,0.914,0.762c0.274,0.15,0.573,0.223,0.898,0.223   c0.389,0,0.697-0.104,0.922-0.311s0.336-0.488,0.336-0.844c0-0.289-0.084-0.543-0.254-0.768c-0.17-0.223-0.521-0.475-1.052-0.756   l-0.205-0.104c-0.426-0.229-0.778-0.439-1.055-0.635s-0.498-0.389-0.662-0.579c-0.152-0.181-0.266-0.379-0.34-0.599   c-0.074-0.219-0.111-0.463-0.111-0.731c0-0.657,0.212-1.175,0.636-1.556c0.423-0.381,0.999-0.571,1.725-0.571   c0.438,0,0.847,0.076,1.228,0.228c0.381,0.152,0.715,0.373,1.006,0.662l0.092,0.094l-0.92,0.867   c-0.198-0.242-0.409-0.416-0.631-0.523c-0.224-0.108-0.481-0.161-0.774-0.161c-0.355,0-0.622,0.077-0.8,0.231   c-0.177,0.153-0.266,0.383-0.266,0.688c0,0.25,0.081,0.459,0.243,0.626c0.162,0.168,0.481,0.375,0.958,0.622l0.199,0.11   c0.901,0.477,1.511,0.912,1.825,1.305S60.336,20.115,60.336,20.74"/>
	<path fill="#1D1D1B" d="M69.886,18.783c0,1.254-0.391,2.285-1.172,3.092s-1.779,1.209-2.994,1.209   c-1.219,0-2.217-0.402-2.994-1.209s-1.166-1.842-1.166-3.104c0-1.246,0.387-2.274,1.164-3.088c0.774-0.812,1.762-1.219,2.961-1.219   c1.238,0,2.248,0.402,3.029,1.204C69.495,16.473,69.886,17.51,69.886,18.783 M68.503,18.772c0-0.887-0.257-1.609-0.771-2.17   c-0.513-0.561-1.18-0.842-2-0.842c-0.836,0-1.511,0.277-2.024,0.829c-0.515,0.554-0.771,1.281-0.771,2.183   c0,0.906,0.254,1.635,0.765,2.186c0.51,0.551,1.183,0.826,2.019,0.826s1.51-0.275,2.018-0.826   C68.248,20.406,68.503,19.678,68.503,18.772"/>
	<path fill="#1D1D1B" d="M78.269,22.938h-1.225l-3.668-5.36c-0.156-0.228-0.275-0.429-0.359-0.604s-0.192-0.451-0.326-0.826   l-0.059,0.013c0.102,0.448,0.17,0.782,0.202,1.002c0.034,0.218,0.05,0.437,0.05,0.655v5.121H71.56v-8.313h1.226l3.673,5.349   c0.141,0.207,0.264,0.42,0.367,0.639s0.209,0.486,0.318,0.803l0.059-0.012c-0.09-0.363-0.154-0.672-0.193-0.928   s-0.058-0.504-0.058-0.742v-5.108h1.317V22.938z"/>
	<path fill="#1D1D1B" d="M85.201,20.74c0,0.73-0.229,1.307-0.688,1.727c-0.457,0.42-1.078,0.629-1.861,0.629   c-0.527,0-0.998-0.09-1.412-0.27s-0.826-0.475-1.236-0.885l-0.088-0.082l0.902-0.926c0.336,0.359,0.641,0.613,0.914,0.762   c0.273,0.15,0.572,0.223,0.896,0.223c0.389,0,0.697-0.104,0.922-0.311s0.336-0.488,0.336-0.844c0-0.289-0.084-0.543-0.254-0.768   c-0.17-0.223-0.52-0.475-1.051-0.756l-0.205-0.104c-0.426-0.229-0.779-0.439-1.055-0.635c-0.277-0.195-0.498-0.389-0.662-0.579   c-0.152-0.181-0.268-0.379-0.34-0.599c-0.074-0.219-0.111-0.463-0.111-0.731c0-0.657,0.211-1.175,0.635-1.556s1-0.571,1.727-0.571   c0.438,0,0.846,0.076,1.227,0.228c0.381,0.152,0.715,0.373,1.006,0.662l0.094,0.094l-0.922,0.867   c-0.197-0.242-0.408-0.416-0.631-0.523c-0.223-0.108-0.48-0.161-0.773-0.161c-0.355,0-0.623,0.077-0.801,0.231   c-0.178,0.153-0.266,0.383-0.266,0.688c0,0.25,0.08,0.459,0.242,0.626c0.162,0.168,0.48,0.375,0.959,0.622l0.199,0.11   c0.9,0.477,1.51,0.912,1.824,1.305S85.201,20.115,85.201,20.74"/>
	<path fill="#1D1D1B" d="M93.513,18.783c0,1.199-0.41,2.191-1.232,2.977s-1.893,1.178-3.209,1.178h-2.186v-8.314h2.232   c1.273,0,2.324,0.391,3.152,1.172S93.513,17.573,93.513,18.783 M92.171,18.783c0-0.844-0.281-1.539-0.844-2.088   c-0.563-0.55-1.27-0.824-2.121-0.824h-0.721c-0.07,0-0.123-0.006-0.158-0.021c-0.035-0.013-0.078-0.04-0.129-0.079l-0.053,0.053   c0.039,0.056,0.066,0.103,0.08,0.142s0.02,0.088,0.02,0.146v5.338c0,0.078-0.006,0.135-0.018,0.17s-0.039,0.074-0.082,0.117   l0.053,0.047c0.043-0.039,0.082-0.064,0.117-0.076s0.092-0.018,0.17-0.018h0.656c0.879,0,1.604-0.271,2.174-0.816   S92.171,19.631,92.171,18.783"/>
	<path fill="#1D1D1B" d="M99.953,21.655L99.8,22.938h-4.635v-8.314h4.646l0.141,1.283h-3.211c-0.055,0-0.104-0.006-0.145-0.021   c-0.041-0.013-0.09-0.04-0.148-0.079l-0.041,0.047c0.031,0.047,0.055,0.094,0.07,0.139s0.023,0.097,0.023,0.154v1.694   c0,0.054-0.008,0.101-0.021,0.14s-0.039,0.088-0.078,0.147l0.047,0.046c0.051-0.039,0.094-0.064,0.131-0.076   c0.037-0.011,0.092-0.018,0.162-0.018h2.807v1.26h-2.807c-0.078-0.004-0.135-0.012-0.17-0.023s-0.074-0.035-0.117-0.07   l-0.047,0.047c0.031,0.043,0.055,0.088,0.07,0.133s0.023,0.096,0.023,0.154v1.834c0,0.07-0.008,0.127-0.023,0.168   s-0.039,0.082-0.07,0.125l0.041,0.041c0.043-0.035,0.084-0.059,0.123-0.072s0.096-0.021,0.17-0.021H99.953z"/>
	<path fill="#1D1D1B" d="M104.263,20.981c0,0.668-0.178,1.176-0.531,1.521s-0.869,0.518-1.549,0.518c-0.223,0-0.443-0.033-0.66-0.1   s-0.424-0.164-0.623-0.293l0.551-1.119c0.148,0.098,0.279,0.166,0.393,0.205s0.234,0.059,0.363,0.059   c0.246,0,0.426-0.059,0.539-0.178s0.17-0.309,0.17-0.566v-6.403h1.348V20.981z"/>
	<path fill="#1D1D1B" d="M112.792,19.299c0,0.689-0.068,1.248-0.205,1.682s-0.348,0.799-0.633,1.096   c-0.313,0.328-0.68,0.58-1.104,0.756s-0.877,0.264-1.357,0.264s-0.932-0.088-1.355-0.264s-0.793-0.428-1.105-0.756   c-0.285-0.297-0.496-0.662-0.633-1.096s-0.205-0.992-0.205-1.682v-4.676h1.365v4.811c0,0.797,0.16,1.393,0.48,1.785   s0.805,0.588,1.453,0.588s1.133-0.195,1.453-0.588s0.48-0.988,0.48-1.785v-4.811h1.365V19.299z"/>
	<path fill="#1D1D1B" d="M119.531,20.74c0,0.73-0.229,1.307-0.686,1.727s-1.078,0.629-1.863,0.629c-0.527,0-0.998-0.09-1.412-0.27   s-0.826-0.475-1.236-0.885l-0.088-0.082l0.902-0.926c0.336,0.359,0.641,0.613,0.914,0.762c0.273,0.15,0.572,0.223,0.896,0.223   c0.391,0,0.697-0.104,0.922-0.311s0.338-0.488,0.338-0.844c0-0.289-0.086-0.543-0.256-0.768c-0.17-0.223-0.52-0.475-1.051-0.756   l-0.205-0.104c-0.426-0.229-0.777-0.439-1.055-0.635s-0.498-0.389-0.662-0.579c-0.152-0.181-0.266-0.379-0.34-0.599   c-0.074-0.219-0.111-0.463-0.111-0.731c0-0.657,0.211-1.175,0.635-1.556s1-0.571,1.727-0.571c0.438,0,0.846,0.076,1.227,0.228   c0.381,0.152,0.717,0.373,1.006,0.662l0.094,0.094l-0.92,0.867c-0.199-0.242-0.41-0.416-0.633-0.523   c-0.223-0.108-0.48-0.161-0.773-0.161c-0.355,0-0.623,0.077-0.801,0.231c-0.178,0.153-0.266,0.383-0.266,0.688   c0,0.25,0.08,0.459,0.242,0.626c0.162,0.168,0.482,0.375,0.959,0.622l0.199,0.11c0.902,0.477,1.51,0.912,1.824,1.305   S119.531,20.115,119.531,20.74"/>
	<path fill="#1D1D1B" d="M125.781,15.871h-1.729c-0.07,0-0.123-0.006-0.158-0.021c-0.035-0.013-0.078-0.04-0.129-0.079l-0.047,0.047   c0.035,0.051,0.061,0.098,0.074,0.139s0.02,0.092,0.02,0.154v6.826h-1.348v-6.826c0-0.054,0.006-0.1,0.018-0.137   c0.012-0.038,0.039-0.087,0.082-0.15l-0.053-0.047c-0.039,0.035-0.078,0.061-0.117,0.073c-0.039,0.015-0.096,0.021-0.17,0.021   h-1.723l0.176-1.248h4.922L125.781,15.871z"/>
	<rect x="127.316" y="14.612" fill="#1D1D1B" width="1.365" height="8.326"/>
	<path fill="#1D1D1B" d="M137.873,21.76c-0.391,0.434-0.859,0.77-1.406,1.006s-1.135,0.354-1.764,0.354   c-1.227,0-2.238-0.406-3.035-1.221s-1.195-1.846-1.195-3.092s0.398-2.282,1.193-3.11c0.795-0.829,1.791-1.243,2.99-1.243   c0.637,0,1.213,0.107,1.727,0.323c0.512,0.214,0.998,0.558,1.455,1.03l-0.891,0.974c-0.293-0.353-0.623-0.614-0.992-0.786   s-0.791-0.257-1.264-0.257c-0.848,0-1.535,0.285-2.063,0.854c-0.527,0.57-0.791,1.31-0.791,2.215c0,0.883,0.268,1.611,0.803,2.184   s1.215,0.857,2.039,0.857c0.469,0,0.898-0.09,1.287-0.27s0.729-0.443,1.021-0.791L137.873,21.76z"/>
	<path fill="#1D1D1B" d="M144.265,21.655l-0.152,1.283h-4.635v-8.314h4.646l0.141,1.283h-3.211c-0.055,0-0.104-0.006-0.145-0.021   c-0.041-0.013-0.09-0.04-0.148-0.079l-0.041,0.047c0.031,0.047,0.055,0.094,0.07,0.139s0.023,0.097,0.023,0.154v1.694   c0,0.054-0.008,0.101-0.021,0.14s-0.039,0.088-0.078,0.147l0.047,0.046c0.051-0.039,0.094-0.064,0.131-0.076   c0.037-0.011,0.092-0.018,0.162-0.018h2.807v1.26h-2.807c-0.078-0.004-0.135-0.012-0.17-0.023s-0.074-0.035-0.117-0.07   l-0.047,0.047c0.031,0.043,0.055,0.088,0.07,0.133s0.023,0.096,0.023,0.154v1.834c0,0.07-0.008,0.127-0.023,0.168   s-0.039,0.082-0.07,0.125l0.041,0.041c0.043-0.035,0.084-0.059,0.123-0.072s0.096-0.021,0.17-0.021H144.265z"/>
	<rect x="146.08" y="21.051" fill="#1D1D1B" width="1.605" height="1.887"/>
	<path fill="#1D1D1B" d="M155.224,20.453c0,0.73-0.252,1.328-0.756,1.791s-1.205,0.693-2.104,0.693h-2.496v-8.314h2.32   c0.883,0,1.551,0.188,2.004,0.561s0.68,0.913,0.68,1.619c0,0.441-0.1,0.799-0.299,1.07s-0.504,0.467-0.914,0.588v0.07   c0.488,0.09,0.871,0.307,1.148,0.648S155.224,19.946,155.224,20.453 M153.636,16.867c0-0.375-0.107-0.65-0.322-0.828   c-0.215-0.179-0.563-0.267-1.043-0.267h-0.914c-0.074,0-0.129-0.006-0.164-0.019c-0.035-0.012-0.076-0.037-0.123-0.076   l-0.047,0.048c0.039,0.062,0.066,0.112,0.08,0.149s0.021,0.082,0.025,0.137v1.787c0,0.086-0.029,0.175-0.088,0.265   c-0.008,0.011-0.014,0.021-0.018,0.028l0.047,0.048c0.051-0.039,0.094-0.066,0.129-0.079c0.035-0.014,0.088-0.021,0.158-0.021   h1.072c0.387,0,0.686-0.1,0.895-0.302C153.533,17.537,153.636,17.246,153.636,16.867 M153.964,20.418   c0-0.168-0.031-0.33-0.094-0.488s-0.148-0.297-0.258-0.414c-0.133-0.141-0.289-0.238-0.469-0.295s-0.418-0.086-0.715-0.086h-1.061   c-0.07,0-0.123-0.006-0.158-0.02s-0.078-0.041-0.129-0.08l-0.047,0.053c0.043,0.063,0.07,0.111,0.08,0.146s0.014,0.082,0.014,0.141   v2.145c0,0.074-0.004,0.127-0.014,0.158s-0.037,0.074-0.08,0.129l0.047,0.053c0.051-0.039,0.094-0.064,0.129-0.078   s0.088-0.021,0.158-0.021h1.107c0.469,0,0.834-0.117,1.096-0.354S153.964,20.84,153.964,20.418"/>
	<path fill="#1D1D1B" d="M161.652,21.655l-0.152,1.283h-4.635v-8.314h4.646l0.141,1.283h-3.211c-0.055,0-0.104-0.006-0.145-0.021   c-0.041-0.013-0.09-0.04-0.148-0.079l-0.041,0.047c0.031,0.047,0.055,0.094,0.07,0.139s0.023,0.097,0.023,0.154v1.694   c0,0.054-0.008,0.101-0.021,0.14s-0.039,0.088-0.078,0.147l0.047,0.046c0.051-0.039,0.094-0.064,0.131-0.076   c0.037-0.011,0.092-0.018,0.162-0.018h2.807v1.26h-2.807c-0.078-0.004-0.135-0.012-0.17-0.023s-0.074-0.035-0.117-0.07   l-0.047,0.047c0.031,0.043,0.055,0.088,0.07,0.133s0.023,0.096,0.023,0.154v1.834c0,0.07-0.008,0.127-0.023,0.168   s-0.039,0.082-0.07,0.125l0.041,0.041c0.043-0.035,0.084-0.059,0.123-0.072s0.096-0.021,0.17-0.021H161.652z"/>
	<path fill="#FFFFFF" d="M15.542,21.938h-1.648v-6.371c0-0.348,0.088-0.895,0.264-1.642c0.044-0.19,0.08-0.344,0.11-0.461   l-0.074-0.028l-0.007,0.014c-0.308,0.884-0.581,1.529-0.82,1.934l-2.908,5.023l-2.93-5.023c-0.146-0.254-0.279-0.525-0.399-0.816   s-0.255-0.668-0.406-1.131l-0.081,0.028c0.127,0.513,0.215,0.922,0.264,1.228c0.049,0.305,0.073,0.597,0.073,0.875v6.371H5.354   V11.545h1.545L9.99,16.84c0.156,0.264,0.26,0.469,0.311,0.616c0.052,0.146,0.09,0.366,0.114,0.659l0.073-0.008   c0.025-0.293,0.061-0.512,0.11-0.655c0.049-0.144,0.152-0.349,0.308-0.612l3.105-5.295h1.531V21.938z"/>
	<path fill="#FFFFFF" d="M21.422,19.492c0,0.834-0.221,1.469-0.663,1.9s-1.087,0.648-1.937,0.648c-0.278,0-0.553-0.043-0.824-0.125   c-0.271-0.084-0.531-0.205-0.78-0.367l0.688-1.398c0.186,0.123,0.349,0.207,0.491,0.256s0.293,0.074,0.454,0.074   c0.308,0,0.532-0.074,0.674-0.223c0.142-0.15,0.212-0.385,0.212-0.707v-8.006h1.685V19.492z"/>
</g>
<path fill="#FFFFFF" d="M15.542,21.938h-1.648v-6.371c0-0.348,0.088-0.895,0.264-1.642c0.044-0.19,0.08-0.344,0.11-0.461  l-0.074-0.028l-0.007,0.014c-0.308,0.884-0.581,1.529-0.82,1.934l-2.908,5.023l-2.93-5.023c-0.146-0.254-0.279-0.525-0.399-0.816  s-0.255-0.668-0.406-1.131l-0.081,0.028c0.127,0.513,0.215,0.922,0.264,1.228c0.049,0.305,0.073,0.597,0.073,0.875v6.371H5.354  V11.545h1.545L9.99,16.84c0.156,0.264,0.26,0.469,0.311,0.616c0.052,0.146,0.09,0.366,0.114,0.659l0.073-0.008  c0.025-0.293,0.061-0.512,0.11-0.655c0.049-0.144,0.152-0.349,0.308-0.612l3.105-5.295h1.531V21.938z"/>
<path fill="#FFFFFF" d="M21.422,19.492c0,0.834-0.221,1.469-0.663,1.9s-1.087,0.648-1.937,0.648c-0.278,0-0.553-0.043-0.824-0.125  c-0.271-0.084-0.531-0.205-0.78-0.367l0.688-1.398c0.186,0.123,0.349,0.207,0.491,0.256s0.293,0.074,0.454,0.074  c0.308,0,0.532-0.074,0.674-0.223c0.142-0.15,0.212-0.385,0.212-0.707v-8.006h1.685V19.492z"/>
</svg>